<svg xmlns="http://www.w3.org/2000/svg" xmlns:xlink="http://www.w3.org/1999/xlink" viewBox="0 0 478.81 468.4"><defs><style>.cls-1{fill:#0bbb72;}.cls-2{fill:#eeeaed;}.cls-3{fill:#68838c;}.cls-4{fill:#49bad4;}.cls-5{fill:#fafafa;}.cls-6{fill:#062d4f;}.cls-7{fill:#399aaa;}.cls-8{fill:#59a3ca;}.cls-9{fill:#a8def2;}.cls-10,.cls-12{fill:#231f20;}.cls-10,.cls-21,.cls-25,.cls-33{opacity:0.2;}.cls-11,.cls-33{fill:#fff;}.cls-13{fill:#494647;}.cls-14,.cls-18{fill:#606060;}.cls-15,.cls-24,.cls-27,.cls-36{fill:none;stroke-miterlimit:10;}.cls-15{stroke:#a8a8a8;stroke-width:2px;}.cls-16{fill:#a8a8a8;}.cls-17{fill:#009777;}.cls-18{font-size:24.16px;font-family:Objectivity-ExtraBold, Objectivity;font-weight:800;}.cls-19{fill:#1ba566;}.cls-20{fill:#663b1e;}.cls-22{fill:#dd9b6f;}.cls-23{fill:#252730;}.cls-24{stroke:#2f6270;}.cls-25{fill:#363844;}.cls-26{fill:#353744;}.cls-27{stroke:#488593;}.cls-28{clip-path:url(#clip-path);}.cls-29{fill:#1e1f28;}.cls-30{fill:#1c1c1c;}.cls-31{clip-path:url(#clip-path-2);}.cls-32{fill:#ef9426;}.cls-34{clip-path:url(#clip-path-3);}.cls-35{fill:#c95b59;}.cls-36{stroke:#506d75;}.cls-37{fill:#442c1b;}.cls-38{fill:#edb08e;}</style><clipPath id="clip-path"><path class="cls-1" d="M353.61,237.26c-1.89,12.6-1.15,28.9-.65,41.59,0,.06-39.75-3.65-44.36-4.32l-.82-.13c-4-.64-7.85-1.54-11.78-2.3-.05,0,4.3-18.92,4.43-20.18,1.14-11.14,2.12-22.26,2.32-33.46.09-5.46,0-10.91-.14-16.36-.11-4.82,0-10.22,2.19-14.62,1.47-2.9,3.94-3.18,7-3.1,13.63.33,27.14,2.14,40.68,3.64a14.57,14.57,0,0,1,4.45,1c4.16,1.84,3.67,6.53,3.28,10.29C358.87,212.05,355.53,224.56,353.61,237.26Z"/></clipPath><clipPath id="clip-path-2"><polygon class="cls-2" points="454.9 116.42 433.86 162.61 462.34 166.38 454.9 116.42"/></clipPath><clipPath id="clip-path-3"><path class="cls-3" d="M398.8,386.33l30.12,4.55L424.35,422a5.19,5.19,0,0,1-5.88,4.37l-20.81-3.05a5.18,5.18,0,0,1-4.35-6Z"/></clipPath></defs><title>allSet</title><g id="Layer_2" data-name="Layer 2"><g id="OBJECTS"><path class="cls-4" d="M2.76,344.65c7-20.39,30.89-32.62,29.36-56.26-.71-10.88-6.8-19.53-10.92-29.31-9.67-23-17.84-59.2-3-81.76,19-28.91,63.49-25.66,91.56-38.84,15.22-7.16,27.58-19.2,39.07-31.55,8.34-9,16.51-18.35,26.73-25.08,21-13.81,49.8-14.37,71.29-1.39,21.83,13.19,35.88,36.52,64.3,31.45,11.79-2.11,23.79-6.67,35.71-3.4a49.48,49.48,0,0,1,28.76,22.2c17.26,29.12-10.88,59.91.89,90,8.77,22.43,34.06,30.82,48.16,48.94,11.35,14.59,14,33.14,10.56,51-7,36-12.63,74.27-26,108.48-14.7,37.57-58.54,37.92-92.79,38-52,.06-106,4.12-157.57-2.18C118.58,460,71.68,448.35,38.24,424.13,14.1,406.66-7.9,375.81,2.76,344.65Z"/><path class="cls-5" d="M375.68,352.3a27.45,27.45,0,0,0-54.77-.3h0a.28.28,0,0,0,0,.09,28,28,0,0,0,0,3.78,27.45,27.45,0,1,0,54.79-3.57Zm-29.06-23.8a25.81,25.81,0,0,1,7.43.61c0,.1-.07.19-.1.29a38.53,38.53,0,0,0-12.23.56v0l-1.51-.22A25.84,25.84,0,0,1,346.62,328.5ZM342,331c.07,0,7.51-1.6,13-.33,1.64.76,4.26,2.12,5.31,3.53-1.12,1.85-2.62,4.28-3.65,5.78-2-.3-8.36-.16-10.44.61a47.73,47.73,0,0,0-7.35-5.72A43.8,43.8,0,0,1,342,331Zm3.35,41.82c-3.42-.71-10-5.59-11.07-6.43,0,.42,0,.72.06.84l-.22-1,.16.12c-.15-2-.49-7-.34-8.84,1.44-.65,6.61-3,9.8-4.59a43.56,43.56,0,0,0,9.68,4.72c0,1.66.08,7.36.09,11C352.65,369.37,350.24,371.19,345.3,372.85Zm8.71-2.57c.49.2,3.88,1.46,4.23,1.59a22,22,0,0,0-4.36-.73c-.77.13-4.25,1.34-4.9,1.56C349.68,372.36,353.5,370.08,354,370.28Zm.54-1.33c0-3.87-.08-10.53-.09-11.61a78.78,78.78,0,0,0,7.11-5.83,76,76,0,0,1,8.66,3.23,21.58,21.58,0,0,1,.29,7.62c-2.35,4.75-7.89,8.06-9.66,9A18.38,18.38,0,0,1,354.55,369Zm1.33-26.72c-2.86-.19-7.81,0-8.31.89-2,3.57-1.68,3.92-2.27,4.67.07-.35,1.39-6,2.17-6.18,1.79-.35,8.14-.52,8.85,0s2.93,5.15,3.22,5.77C359.15,346.75,356.25,342.25,355.88,342.23Zm-26.05-1.86c1.65-1.25,5.49-4,8.26-4.63a47.5,47.5,0,0,1,7.39,5.76c-.44,2-1.87,8.48-2.16,10.45-3.19,1.59-8.56,4-9.94,4.66a33.88,33.88,0,0,1-5.36-4A31.75,31.75,0,0,1,329.83,340.37Zm3.24,20.15a23.69,23.69,0,0,0-1.29-3.17,24.26,24.26,0,0,0-4.75-3,21.33,21.33,0,0,0-1.9,2c.17-.35,1.66-3.25,2-3s5.24,3.48,5.36,3.93S333,360.21,333.07,360.52ZM327.6,339l1,1.48a32.24,32.24,0,0,0-1.74,11.72,17.8,17.8,0,0,0-2.88,4.61,6.48,6.48,0,0,1-1.36-2A25.45,25.45,0,0,1,327.6,339Zm-4.77,18.13a7.48,7.48,0,0,0,1,1c.29,1.52,1.37,6.31,3.79,9.06.07.57.19,1.58.38,2.63A25.56,25.56,0,0,1,322.83,357.1Zm18.62,21.68a25.62,25.62,0,0,1-11.93-7.26,32.72,32.72,0,0,1-.69-3.75,16.58,16.58,0,0,0,4.87-.28l-.11-.09.71-.08-.6.17c.95.7,7.07,5.24,10.87,6.29.41,1.07,1.27,3.21,1.79,4.3A12.32,12.32,0,0,1,341.45,378.78Zm8.51.88a26.42,26.42,0,0,1-4.63-.11,9.16,9.16,0,0,0,2.28-.87,65.65,65.65,0,0,0,8.08-.75,2.54,2.54,0,0,0,1.12.32A25.75,25.75,0,0,1,350,379.66Zm11.21-3.42a9.93,9.93,0,0,1-4.18.92,50.61,50.61,0,0,0,3.93-4.57c1-.5,6.86-3.62,9.93-8.58l1,.12A25.91,25.91,0,0,1,361.17,376.24Zm9.21-22.64a85.84,85.84,0,0,0-8.36-3.09c-.56-1.3-3.48-8-4.55-9.87,1.19-1.74,2.83-4.41,3.64-5.76,1.44.61,6,2.95,6,2.95a36.75,36.75,0,0,1,5.29,12.36S371,352.85,370.38,353.6Zm3.06-4a37.82,37.82,0,0,0-3.41-9.12,25.37,25.37,0,0,1,3.52,9.22Z"/><path class="cls-6" d="M112.2,152.66a43,43,0,0,0-85.74-.46h0c0,.06,0,.1,0,.15a41.61,41.61,0,0,0,0,5.91,43,43,0,1,0,85.78-5.6ZM66.7,115.41a40.08,40.08,0,0,1,11.63,1c0,.15-.1.3-.16.46-8.58-1.38-18.69.77-19.15.87v0l-2.38-.35A40.07,40.07,0,0,1,66.7,115.41Zm-7.32,4c.12,0,11.77-2.5,20.32-.51,2.55,1.19,6.66,3.32,8.3,5.52-1.75,2.92-4.1,6.7-5.69,9.06-3.11-.46-13.11-.27-16.36,1a73.88,73.88,0,0,0-11.5-9A66.06,66.06,0,0,1,59.38,119.36Zm19.74,59.39c0-6.07-.13-16.49-.15-18.17,2.4-1.8,8.8-6.69,11.13-9.14a127.33,127.33,0,0,1,13.58,5,33.78,33.78,0,0,1,.44,12C100.43,175.85,91.76,181,89,182.55A29.11,29.11,0,0,1,79.12,178.75Zm5.82,4.59s-5.56-1.41-6.87-1.16-7.2,2.27-7.79,2.47c.82-.33,7.18-4.13,8-3.83S84.94,183.34,84.94,183.34ZM81.2,136.91c-4.47-.3-12.22,0-13,1.4-3.17,5.59-2.62,6.12-3.56,7.31.13-.56,2.17-9.46,3.42-9.69,2.79-.54,12.73-.8,13.85,0S86.75,144.53,87,145C86.66,144.54,81.8,137,81.2,136.91ZM40.42,134c2.58-2,8.58-6.22,12.92-7.24a74.5,74.5,0,0,1,11.58,9c-.7,3.13-2.93,13.26-3.38,16.36-5,2.49-13.41,6.31-15.56,7.29-2-1.22-6.43-4.12-8.4-6.24A49.15,49.15,0,0,1,40.42,134Zm5.07,31.55a39.28,39.28,0,0,0-2-4.95c-.86-.92-7-4.85-7.45-4.69a34.11,34.11,0,0,0-3,3.1c.28-.55,2.6-5.08,3.17-4.72s8.19,5.47,8.38,6.16S45.41,165,45.49,165.54ZM36.93,131.8l1.62,2.31a51,51,0,0,0-2.73,18.36,28.66,28.66,0,0,0-4.5,7.22,10.36,10.36,0,0,1-2.12-3.06A39.81,39.81,0,0,1,36.93,131.8Zm-7.48,28.39a12.31,12.31,0,0,0,1.61,1.54c.45,2.36,2.15,9.88,5.93,14.17.11.91.31,2.48.59,4.14A40,40,0,0,1,29.45,160.19Zm29.14,34a40.48,40.48,0,0,1-18.67-11.37,52.3,52.3,0,0,1-1.08-5.87,25.58,25.58,0,0,0,7.62-.47.91.91,0,0,0-.17-.12l1.12-.14L47,174.59a1.47,1.47,0,0,0,.27.2A137.12,137.12,0,0,1,46.76,161c2.26-1,10.36-4.72,15.35-7.19,2.61,2.12,12.08,6.56,15.15,7.38,0,2.62.14,11.53.15,17.14-1.27,1.11-5.06,4-12.79,6.57-5.32-1.11-15.55-8.72-17.31-10.06.06.87.1,1.39.1,1.39a7.38,7.38,0,0,1-.95.26c1.45,1.08,11.06,8.21,17,9.88.66,1.66,2,5,2.81,6.72A19.24,19.24,0,0,1,58.59,194.15Zm13.34,1.36a41.62,41.62,0,0,1-7.25-.17A14.5,14.5,0,0,0,68.25,194a103.51,103.51,0,0,0,12.65-1.17,4.3,4.3,0,0,0,1.77.51A40.2,40.2,0,0,1,71.93,195.51Zm17.54-5.35c-3.37,1.31-5.37,1.54-6.52,1.44a79.15,79.15,0,0,0,6.12-7.15c1.55-.79,10.77-5.67,15.56-13.43l1.59.19A40.51,40.51,0,0,1,89.47,190.16Zm14.42-35.45a129.59,129.59,0,0,0-13.08-4.85c-.87-2-5.44-12.49-7.13-15.44,1.87-2.72,4.43-6.92,5.71-9,2.24,1,9.46,4.63,9.46,4.63a58.21,58.21,0,0,1,8.28,19.35A58.89,58.89,0,0,1,103.89,154.71Zm4.79-6.21a58.21,58.21,0,0,0-5.34-14.28,39.84,39.84,0,0,1,5.53,14.44Z"/><ellipse class="cls-7" cx="264.83" cy="427.22" rx="213.98" ry="10.77"/><path class="cls-8" d="M65.36,83.38,93.41,404.73a20.71,20.71,0,0,0,21.65,18.88L332.58,413a20.71,20.71,0,0,0,19.67-21.89L333.38,67.27A20.71,20.71,0,0,0,311.51,47.8L84.8,60.91A20.7,20.7,0,0,0,65.36,83.38Z"/><path class="cls-9" d="M69.39,86.31,97.44,407.65a20.72,20.72,0,0,0,21.65,18.89l217.52-10.66A20.71,20.71,0,0,0,356.27,394L337.41,70.19a20.72,20.72,0,0,0-21.87-19.47L88.82,63.83A20.71,20.71,0,0,0,69.39,86.31Z"/><polygon class="cls-10" points="91.12 80.02 115 395.58 328.08 387.2 307.01 74.48 91.12 80.02"/><polygon class="cls-11" points="91.12 80.02 123.34 401.05 334.48 390.12 313.19 74.27 91.12 80.02"/><path class="cls-12" d="M129.14,55.65l3.32,32.42L267,80.6l-1.74-36.86c-.22-4.75-3.27-8.36-6.81-8.07L135.11,45.86C131.38,46.17,128.63,50.67,129.14,55.65Z"/><polygon class="cls-10" points="132.46 88.07 270.55 80.59 269.26 53.39 125.12 61.72 132.46 88.07"/><path class="cls-12" d="M218.24,7.31c-7.86-8-21-8.7-31.23-5.64C176.29,4.88,170,15,169.57,25.15c-.42,8.83,3.53,17.69,12.7,22,12.78,6.06,31,1.16,38.26-11.18C225.7,27.22,225.67,14.85,218.24,7.31Zm-14.19,26.1c-4.18,3.22-10.2,2.18-14.33-.9a12.85,12.85,0,0,1-2.87-2.93C178.76,18,199.54,6.15,207,17.42,210.2,22.36,208.66,29.86,204.05,33.41Z"/><path class="cls-13" d="M132.67,55.65,136,88.07,270.55,80.6l-1.74-36.86c-.23-4.75-3.27-8.36-6.81-8.07L138.65,45.86C134.91,46.17,132.16,50.67,132.67,55.65Z"/><path class="cls-13" d="M223,7.31c-7.86-8-21-8.7-31.23-5.64C181,4.88,174.79,15,174.31,25.15c-.41,8.83,3.54,17.69,12.7,22,12.78,6.06,31,1.16,38.26-11.18C230.45,27.22,230.42,14.85,223,7.31ZM208.8,33.41c-4.18,3.22-10.21,2.18-14.34-.9a13.06,13.06,0,0,1-2.87-2.93C183.51,18,204.29,6.15,211.7,17.42,215,22.36,213.41,29.86,208.8,33.41Z"/><polygon class="cls-14" points="134.58 74.27 269.96 68.24 270.55 80.59 136 88.07 134.58 74.27"/><path class="cls-15" d="M130,155.71l24.76-1.8a3.44,3.44,0,0,1,3.69,3.18l1.5,19.61a3.45,3.45,0,0,1-3.16,3.7l-24.76,2a3.46,3.46,0,0,1-3.73-3.18l-1.49-19.84A3.46,3.46,0,0,1,130,155.71Z"/><path class="cls-16" d="M176.86,158.11l9.56-.69,23-1.66,27.78-2,24-1.73c3.9-.28,7.8-.49,11.69-.85H273a2.56,2.56,0,0,0,2.5-2.5,2.51,2.51,0,0,0-2.5-2.5l-9.55.69-23,1.66-27.78,2-24,1.74c-3.89.28-7.8.49-11.69.84h-.16a2.56,2.56,0,0,0-2.5,2.5,2.51,2.51,0,0,0,2.5,2.5Z"/><path class="cls-16" d="M180.2,176.88l9.56-.69,23-1.66,27.78-2,24-1.73c3.89-.29,7.8-.49,11.68-.85h.17a2.56,2.56,0,0,0,2.5-2.5,2.52,2.52,0,0,0-2.5-2.5l-9.56.69-23,1.66-27.78,2-24,1.74c-3.89.28-7.79.49-11.68.84h-.17a2.57,2.57,0,0,0-2.5,2.5,2.52,2.52,0,0,0,2.5,2.5Z"/><path class="cls-17" d="M124.59,168.25l13.52,10.5c1.22.95,3.06,1,3.93-.51L160,146.17l2.49-4.46c1.57-2.82-2.75-5.34-4.32-2.53l-17.93,32.07-2.49,4.47,3.92-.51-13.51-10.5a2.58,2.58,0,0,0-3.54,0,2.53,2.53,0,0,0,0,3.54Z"/><path class="cls-15" d="M137.52,221.18,161,219a3.45,3.45,0,0,1,3.73,2.88l3.14,19.38a3.45,3.45,0,0,1-3.13,4l-24.57,2a3.44,3.44,0,0,1-3.71-3.07L134.41,225A3.45,3.45,0,0,1,137.52,221.18Z"/><path class="cls-16" d="M185.18,222.91l9.56-.69,23-1.66,27.78-2,24-1.74c3.89-.28,7.8-.49,11.69-.84h.16a2.56,2.56,0,0,0,2.5-2.5,2.51,2.51,0,0,0-2.5-2.5l-9.56.69-23,1.66-27.77,2-24,1.74c-3.9.28-7.8.49-11.69.85h-.17a2.56,2.56,0,0,0-2.5,2.5,2.52,2.52,0,0,0,2.5,2.5Z"/><path class="cls-16" d="M188.53,241.68l9.56-.69,23-1.66,27.78-2,24-1.74c3.89-.28,7.79-.49,11.68-.84l.17,0a2.56,2.56,0,0,0,2.5-2.5,2.53,2.53,0,0,0-2.5-2.5l-9.56.7-23,1.66-27.78,2-24,1.74c-3.89.28-7.8.49-11.68.84l-.17,0a2.5,2.5,0,0,0,0,5Z"/><path class="cls-17" d="M132.92,233l13.52,10.5c1.22,1,3.06,1,3.92-.51L168.29,211l2.5-4.46c1.57-2.81-2.75-5.33-4.32-2.52l-17.93,32.07-2.49,4.46L150,240l-13.52-10.5a2.59,2.59,0,0,0-3.53,0,2.51,2.51,0,0,0,0,3.54Z"/><path class="cls-15" d="M145.68,292.88l24.79-1.81a3.46,3.46,0,0,1,3.67,3l2.71,19.51a3.46,3.46,0,0,1-3.13,3.92l-25,2a3.45,3.45,0,0,1-3.71-3l-2.48-19.75A3.44,3.44,0,0,1,145.68,292.88Z"/><path class="cls-16" d="M192.41,295.29l9.56-.69,23-1.66,27.78-2,24-1.73c3.89-.29,7.79-.5,11.68-.85h.17a2.57,2.57,0,0,0,2.5-2.5,2.52,2.52,0,0,0-2.5-2.5L279,284l-23,1.66-27.78,2-24,1.73c-3.89.29-7.8.5-11.68.85h-.17a2.56,2.56,0,0,0-2.5,2.5,2.52,2.52,0,0,0,2.5,2.5Z"/><path class="cls-16" d="M195.76,314.06l9.55-.69,23-1.66,27.78-2,24-1.74c3.89-.28,7.8-.49,11.69-.84h.16a2.56,2.56,0,0,0,2.5-2.5,2.51,2.51,0,0,0-2.5-2.5l-9.56.69-22.95,1.66-27.78,2-24,1.73c-3.9.28-7.8.49-11.69.85h-.16a2.56,2.56,0,0,0-2.5,2.5,2.51,2.51,0,0,0,2.5,2.5Z"/><path class="cls-17" d="M140.14,305.42l13.52,10.5c1.23.95,3.06,1,3.93-.5l17.93-32.07,2.49-4.47c1.57-2.81-2.74-5.33-4.32-2.52l-17.93,32.07-2.49,4.46,3.93-.5-13.52-10.5a2.58,2.58,0,0,0-3.54,0,2.51,2.51,0,0,0,0,3.53Z"/><text class="cls-18" transform="translate(155.29 119.91)">ALL SET</text><path class="cls-10" d="M341.81,403.16c-.61,2.18-1.19,4.37-1.61,6.6-.09.46-.17.93-.26,1.41a10.93,10.93,0,0,1-1.43,4.12,5.54,5.54,0,0,1-.37.45A20.7,20.7,0,0,0,356.43,394l-.3-5.11-.09-.07a27.62,27.62,0,0,0-2.21-1.7c.15-.17.23-.28.23-.28s-6.94-11.33-7.24-11.8c-5.95-9.27-6.3-9.34-13.67-17.51q-2.14-2.37-4.32-4.73c.41-2.55.87-5.1,1.3-7.68,2.39-11.19,5.56-22.18,8.24-33.3,1.35-5.63,2.69-11.4,3.6-17.21h0l0,0a91.25,91.25,0,0,0,1.14-12l2.34.2h0c0-.09,0-.19,0-.29h0c-.49-12.65-1.22-28.8.67-41.31.31-2.06.67-4.12,1-6.18l-2.51-43.09-3.47-.39a4.56,4.56,0,0,0-.44-2.11,10.7,10.7,0,0,0-5.95-5.21,47.44,47.44,0,0,1,1.15-5,35.78,35.78,0,0,0,6.44-5.33.66.66,0,0,0,0,.14,9.6,9.6,0,0,0,1.2-.31l-3-51.17c-8.67-2.82-18.91-2.84-26.62-1.33-3,.59-6.47,1.65-8.73,3.9l-.09.08h0a6.31,6.31,0,0,0-1.72,3.8,8.12,8.12,0,0,0,.29,3.17,8.47,8.47,0,0,0,.46,1.31,10.73,10.73,0,0,0,2.55,3.49l0,.07a40.09,40.09,0,0,0-1,14.92,15.64,15.64,0,0,0,.73,3.47c0,.18-.05.36-.06.55-.12,1.57-.17,3.15-.14,4.73a60.47,60.47,0,0,0,1.42,11.75h0c.11.52.25,1,.39,1.55.05.19.11.38.17.56s.21.64.32.95.16.44.25.66.23.51.34.76a14.34,14.34,0,0,0,.7,1.28c.1.17.2.35.31.51a8,8,0,0,0,.55.72,4.87,4.87,0,0,0,.35.42,8.08,8.08,0,0,0,.65.66c.12.12.26.23.39.34a9.78,9.78,0,0,0,3.86,2,24,24,0,0,0,2.45.47c0,.14,0,.25,0,.3l-.12.69a17.63,17.63,0,0,0-3,1.35,7,7,0,0,0-2.8,3c-2.42-.15-4.84-.27-7.26-.34l-.93,0h-1.1a6.93,6.93,0,0,0-4.3,1.19A7.84,7.84,0,0,0,296.4,191l0,0a45.41,45.41,0,0,0-5.63,6.51l-1.46,1.95c-.64.86-1.29,1.72-2,2.55-.42.53-.85,1.05-1.29,1.55-3.27,3.74-6.73,7.31-10.26,10.81-1.17,1.16-2.36,2.32-3.54,3.47-3,2.87-6.49,5.66-9.29,8.86a22.44,22.44,0,0,0-1.58,2,10.38,10.38,0,0,0-2.07,5.67,9.8,9.8,0,0,0,0,1.32,29.15,29.15,0,0,0,1.23,5.71c.15.48.31.95.48,1.43a64.6,64.6,0,0,0,3.53,7.9l.48.93c.5.94,1,1.86,1.51,2.77.21.4.43.79.64,1.17l1.14,2.06c.1.19.3.54.53,1,.33.62.77,1.44,1.3,2.45l2.38,4.46c.58,1.09,1.19,2.23,1.81,3.37.31.57.62,1.14.92,1.71,1.59,2.91,3.13,5.69,4.26,7.6a7.47,7.47,0,0,0,.24,2.94,5.56,5.56,0,0,0,3.08,3.53,12.3,12.3,0,0,0,2,.76c-.19.48-.37,1-.56,1.42-3.93,9.74-6.15,20-9.54,29.9a42.82,42.82,0,0,0-2.23,9.38c-.54,5.24.45,10.36,4.7,14.47.4.39.81.75,1.23,1.09,2.53,2.07,5.44,3.52,8.12,5.34.44.31.88.62,1.31.95,2.82,2.16,5.58,4.35,8.25,6.67.89.77,1.77,1.55,2.64,2.36,3.21,2.95,6.28,6,9.3,9.19,0,2.3,0,4.6,0,6.91-.35,13.62-2.26,28-4.16,41.45l-13,.73h0l-.91.05a22.18,22.18,0,0,1-3-.11h0l-.8-.05h-1l-.78,0h-.06q-.36,0-.69.09l-.22,0a5.47,5.47,0,0,0-.58.15l-.16,0a5.15,5.15,0,0,0-.68.29l-.16.1a3.92,3.92,0,0,0-.5.33l-.18.14a4.53,4.53,0,0,0-.59.57h0a5.72,5.72,0,0,0-.95,1.64l42-2.06c0-.16,0-.32,0-.48.4,0,.81,0,1.21-.06.57,0,1.89-7.12,2.06-7.94q.83-3.83,1.3-7.71a124.17,124.17,0,0,0,.79-13.34c1,1.2,2,2.4,3,3.59,1.78,2.07,3.58,4.11,5.44,6a64.36,64.36,0,0,0,5.79,5.35h0s.06,0,.13-.09l0,0c.15-.13.41-.41.76-.8a.43.43,0,0,1,0,.11,4.47,4.47,0,0,1-.1,1Q341.95,402.7,341.81,403.16ZM295.25,222.37c-.2,11.21-1.17,22.33-2.32,33.47-.05.48-.72,3.56-1.52,7.17l-6.34-12.75c-1.1-2.21-2.12-4.42-3-6.72-.74-1.95-2.08-3.84-2.08-6a7.45,7.45,0,0,1,2.7-5.26c4.18-4.08,8.43-8.08,12.59-12.18C295.26,220.85,295.26,221.61,295.25,222.37Zm14.22,102.51q-.21,4.67-.4,9.35c-2.66-2-5.38-4-8.17-5.82-1.32-.87,2.68-10,3.14-11.3,1.89-5.17,4.25-10.21,6.57-15.27Q310,313.36,309.47,324.88Z"/><path class="cls-19" d="M270.44,222.84c-2.3,2.62-4,5.38-3.61,9,.77,7.57,5.4,15.42,9,22,1,1.84,8.67,16.49,11.74,21.47l9.4-6.34a7.83,7.83,0,0,0,3.23-3.27c.81-2-.18-4.3-1.15-6.26q-3.26-6.52-6.49-13.06c-1.1-2.21-2.13-4.41-3-6.72-.75-2-2.08-3.83-2.08-6s1.22-3.82,2.7-5.26c6.4-6.24,13-12.29,19.11-18.82,5.16-5.51,11.86-13.3,5.77-20.76a11.49,11.49,0,0,0-3.39-2.68,6.24,6.24,0,0,0-7.77,1c-3.95,3.56-6.87,8.58-10.37,12.6-4.36,5-9.06,9.66-13.81,14.28C276.78,216.85,273.24,219.64,270.44,222.84Z"/><path class="cls-10" d="M279.22,254.72c-3.6-6.54-8.23-14.4-9-22-.37-3.62,1.31-6.37,3.6-9,2.8-3.2,6.35-6,9.29-8.86,4.75-4.61,9.45-9.29,13.8-14.28,3.51-4,6.43-9,10.37-12.6a6.77,6.77,0,0,1,4.41-1.91l0,0a6.24,6.24,0,0,0-7.77,1c-3.95,3.56-6.87,8.58-10.37,12.6-4.36,5-9.06,9.66-13.81,14.28-2.94,2.87-6.48,5.66-9.28,8.86-2.3,2.62-4,5.38-3.61,9,.77,7.57,5.4,15.42,9,22,1,1.84,8.67,16.49,11.74,21.47l2-1.37C286.08,267.73,280.11,256.33,279.22,254.72Z"/><path class="cls-20" d="M287.76,420.63c1.05,1.36,2.9,1.5,4.54,1.53l33.84.65a2,2,0,0,0,1.25-.25,2.28,2.28,0,0,0,.69-1.35,35.61,35.61,0,0,0,1-9.43c-1.83-1.82-4.61-1.79-7.09-1.64l-24.47,1.38c-3.13.18-7.07-1.22-9.47,1.6A6.19,6.19,0,0,0,287.76,420.63Z"/><path class="cls-20" d="M367.12,396.45c.61-1.83,1.34-4,.95-5.92-.46-2.32-2.83-4.18-4.54-5.64a35.09,35.09,0,0,0-4.54-3.21,3.47,3.47,0,0,0-2-.71,3.34,3.34,0,0,0-1.78.9c-2.67,2.2-5.12,4.42-6.62,7.77a10.1,10.1,0,0,0-.76,2.27,3.89,3.89,0,0,0,.55,3c.58.76,1.24,1.3,1.25,2.41a6.7,6.7,0,0,1-.34,1.88c-.62,2.18-1.19,4.38-1.61,6.6-.35,1.84-.62,4-1.7,5.54a8.91,8.91,0,0,1-2.9,2.4c-2.59,1.57-5,6.65-1.31,8.4a7,7,0,0,0,3.39.49c3-.15,6,.1,9-.12,2.32-.17,3.58-2,4.53-3.91C362.16,411.52,364.62,403.92,367.12,396.45Z"/><g class="cls-21"><path class="cls-12" d="M300.63,411.52l24.43-1.38a20.7,20.7,0,0,0-3.05,0l-23.55,1.33A17.69,17.69,0,0,0,300.63,411.52Z"/><path class="cls-12" d="M295.39,422.16c-1.64,0-3.49-.17-4.53-1.53a6.18,6.18,0,0,1,.3-7.51,5,5,0,0,1,3.36-1.71c-2.37-.17-4.78-.25-6.45,1.71a6.19,6.19,0,0,0-.31,7.51c1.05,1.36,2.9,1.5,4.54,1.53l33.84.65a2.75,2.75,0,0,0,.7-.05Z"/></g><g class="cls-21"><path class="cls-12" d="M344.88,422.18c-3.69-1.75-1.28-6.83,1.31-8.4a8.8,8.8,0,0,0,2.9-2.4c1.08-1.59,1.35-3.7,1.7-5.54.42-2.22,1-4.42,1.61-6.6a6.7,6.7,0,0,0,.34-1.88c0-1.11-.67-1.65-1.25-2.41a3.89,3.89,0,0,1-.55-3,10.1,10.1,0,0,1,.76-2.27c1.5-3.35,3.95-5.57,6.63-7.77a3.39,3.39,0,0,1,.42-.33A3.16,3.16,0,0,0,357,381a3.34,3.34,0,0,0-1.78.9c-2.67,2.2-5.12,4.42-6.62,7.77a10.1,10.1,0,0,0-.76,2.27,3.89,3.89,0,0,0,.55,3c.58.76,1.24,1.3,1.25,2.41a6.7,6.7,0,0,1-.34,1.88c-.62,2.18-1.19,4.38-1.61,6.6-.35,1.84-.62,4-1.7,5.54a8.91,8.91,0,0,1-2.9,2.4c-2.59,1.57-5,6.65-1.31,8.4a7,7,0,0,0,3.39.49c.47,0,.95,0,1.42,0A5.35,5.35,0,0,1,344.88,422.18Z"/><path class="cls-12" d="M349.72,422.64c.82,0,1.64,0,2.46,0C351.36,422.62,350.54,422.63,349.72,422.64Z"/></g><path d="M318.91,155.42a2.46,2.46,0,0,0,1.78-1.76,29.84,29.84,0,0,0,1.45-6.81c.51-4.57,1.91-11.31-.82-15.33-2.16-3.19-6.13-1.75-7.1,1.59a39.87,39.87,0,0,0-1,14.92,11.61,11.61,0,0,0,1.49,5.1C315.65,154.56,317.46,155.72,318.91,155.42Z"/><path class="cls-22" d="M290.36,280.85a13.27,13.27,0,0,0,2.07.77c3.11.91,5.41,0,7.92-2a12.62,12.62,0,0,0,4.38-6.57,8.74,8.74,0,0,0-1.53-7.6,6.71,6.71,0,0,0-7.22-2.16,11.55,11.55,0,0,0-3,1.86,16,16,0,0,0-5.07,6.37,8.09,8.09,0,0,0-.6,5.81A5.52,5.52,0,0,0,290.36,280.85Z"/><path class="cls-22" d="M341.76,193.48a36.9,36.9,0,0,1-10.11.73c-1.8-.08-7.37.45-8.1-1.62a4.27,4.27,0,0,1-.15-1.67c.12-1.84.92-3.42,1.27-5.18.41-2,.92-4,1.22-6.07.07-.43.43-4.72.9-4.79l17.55-2.47A49.44,49.44,0,0,0,341.76,193.48Z"/><path class="cls-1" d="M379.07,195.46l1.28.32q16.81,4.18,33.95,7c5.11.83,10.21,1.5,15.36,2,3.95.41,8.4,1,11,4.37a10,10,0,0,1,1,1.55,6.66,6.66,0,0,1,.31.73c1,2.64.18,6-2.23,7.47a9.87,9.87,0,0,1-4.69,1,137.71,137.71,0,0,1-19.16-.39c-20-1.8-39.56-6.91-59.18-10.91-2.58-.52-5.38-1.18-7-3.24-2.54-3.21-1.09-7.5.16-10.92a16.41,16.41,0,0,1,1.42-3.17c2.67-4.25,8.73-1.1,12.35,0Q371.3,193.5,379.07,195.46Z"/><path class="cls-10" d="M439.73,216.43a10,10,0,0,1-4.69,1,137.71,137.71,0,0,1-19.16-.38c-20-1.8-39.56-6.91-59.18-10.91-2.58-.53-5.38-1.18-7-3.25a6.3,6.3,0,0,1-1.3-3.18,7.23,7.23,0,0,0,1.3,5.63c1.63,2.06,4.43,2.72,7,3.24,19.62,4,39.2,9.11,59.18,10.91a137.71,137.71,0,0,0,19.16.39,9.87,9.87,0,0,0,4.69-1,6.15,6.15,0,0,0,2.52-6.41A5.66,5.66,0,0,1,439.73,216.43Z"/><path class="cls-23" d="M298.28,265.25c-1.87,6-4.09,11.94-6.44,17.78-3.93,9.74-6.16,20-9.55,29.9-2.77,8.1-4.33,17.27,2.48,23.85,3.17,3.06,7.23,4.74,10.66,7.37,3.75,2.88,7.41,5.82,10.89,9,7.3,6.74,14,14.12,20.71,21.4,7,7.54,13.66,17.1,21.69,23.58.26.2,12.84-15.24,12.84-15.24s-6.94-11.33-7.25-11.8c-5.94-9.28-6.3-9.35-13.67-17.51-7-7.77-14.11-15.48-22.33-22-3.2-2.53-6.51-4.9-9.91-7.14-1.32-.87,2.67-10,3.14-11.29,4.67-12.82,12.29-24.83,14.78-38.37.92-5,2.27-9.6-3.24-10.77a116.83,116.83,0,0,0-22.67-2.49,1.42,1.42,0,0,0-.84.17,1.61,1.61,0,0,0-.51.94C298.81,263.54,298.55,264.39,298.28,265.25Z"/><path class="cls-24" d="M305.83,267.93c-.75,4.84-3.08,9.42-6.22,12a11.74,11.74,0,0,1-7.48,2.72"/><path class="cls-25" d="M330.41,374.58c-6.75-7.28-13.41-14.66-20.71-21.4-3.48-3.21-7.14-6.15-10.89-9-3.44-2.63-7.49-4.31-10.66-7.37-6.81-6.58-5.25-15.75-2.48-23.85,3.39-9.9,5.61-20.16,9.54-29.9,2.36-5.84,4.58-11.74,6.45-17.78.27-.86.52-1.71.77-2.57a1.68,1.68,0,0,1,.52-.94.73.73,0,0,1,.19-.07c-.91,0-1.82-.09-2.73-.1a1.42,1.42,0,0,0-.84.17,1.61,1.61,0,0,0-.51.94c-.25.86-.51,1.71-.78,2.57-1.87,6-4.09,11.94-6.44,17.78-3.93,9.74-6.16,20-9.55,29.9-2.77,8.1-4.33,17.27,2.48,23.85,3.17,3.06,7.23,4.74,10.66,7.37,3.75,2.88,7.41,5.82,10.89,9,7.3,6.74,14,14.12,20.71,21.4,7,7.54,13.66,17.1,21.69,23.58a10.93,10.93,0,0,0,1.52-1.62C343,390.16,336.87,381.53,330.41,374.58Z"/><path class="cls-26" d="M317,321q-.41,8.63-.75,17.26c-.4,10.36-.64,20.69-.64,31.06-.35,13.63-2.26,28-4.17,41.45,5.8,1.72,12.89,1.81,18.9,1.44.57,0,1.89-7.13,2.06-7.94.54-2.55,1-5.13,1.3-7.72.88-7,.74-14,.94-21.11q.24-8.88.71-17.76a147.09,147.09,0,0,1,2.31-16.44C340,330,343.19,319,345.87,307.89c3.17-13.21,6.27-27.18,4-40.79a7.88,7.88,0,0,0-1.09-3.25,6.84,6.84,0,0,0-2.21-1.9,30.79,30.79,0,0,0-15.83-4.64c-4.05-.05-8.74,1.23-10.38,5.21a14.59,14.59,0,0,0-.78,4.85C318.78,285.24,317.8,303.09,317,321Z"/><path class="cls-10" d="M315.15,411c1.91-13.48,3.82-27.83,4.17-41.46,0-10.37.24-20.7.64-31.06q.35-8.64.75-17.26c.83-17.86,1.81-35.72,2.61-53.59a14.49,14.49,0,0,1,.78-4.84c1.4-3.39,5-4.81,8.53-5.14-.6,0-1.21-.08-1.82-.08-4.05,0-8.74,1.23-10.38,5.22a14.24,14.24,0,0,0-.78,4.84c-.8,17.87-1.78,35.73-2.61,53.59q-.41,8.63-.75,17.26c-.41,10.36-.65,20.69-.65,31.06-.34,13.63-2.25,28-4.16,41.46a51.54,51.54,0,0,0,15.19,1.58A45.77,45.77,0,0,1,315.15,411Z"/><path class="cls-22" d="M342.6,123.56c-4.79-.85-10.32-.94-14.57,1.78-8.31,5.31-12.65,14.83-13.88,24.35a55.25,55.25,0,0,0,1,18.83c1.05,4.81,3.17,9.09,8.28,10.38,19,4.82,35.55-14.7,37.61-32,.62-5.18.12-10.72-3-15.1C354.61,126.85,348.36,124.58,342.6,123.56Z"/><path class="cls-27" d="M338.44,273.93c-.07,4.9,1.47,9.8,4.14,12.83a11.73,11.73,0,0,0,6.92,3.93"/><path class="cls-10" d="M317.66,170.9a55.29,55.29,0,0,1-1-18.84c1.23-9.52,5.57-19,13.87-24.34,4.26-2.72,9.79-2.63,14.58-1.78,4.23.75,8.72,2.18,12.2,4.86-3.6-4.25-9.33-6.29-14.67-7.24-4.79-.85-10.32-.94-14.57,1.78-8.31,5.31-12.65,14.83-13.88,24.35a55.25,55.25,0,0,0,1,18.83c.81,3.69,2.26,7,5.19,9A17.62,17.62,0,0,1,317.66,170.9Z"/><path class="cls-1" d="M353.61,237.26c-1.89,12.6-1.15,28.9-.65,41.59,0,.06-39.75-3.65-44.36-4.32l-.82-.13c-4-.64-7.85-1.54-11.78-2.3-.05,0,4.3-18.92,4.43-20.18,1.14-11.14,2.12-22.26,2.32-33.46.09-5.46,0-10.91-.14-16.36-.11-4.82,0-10.22,2.19-14.62,1.47-2.9,3.94-3.18,7-3.1,13.63.33,27.14,2.14,40.68,3.64a14.57,14.57,0,0,1,4.45,1c4.16,1.84,3.67,6.53,3.28,10.29C358.87,212.05,355.53,224.56,353.61,237.26Z"/><g class="cls-28"><path class="cls-29" d="M344.52,194.46c2.38-2.06,5.31-5.63,3.71-9-4-8.32-18.64-7.71-25.48-3.77-4.29,2.47-4.63,8.71-2.21,12.58,4.58,7.29,15.9,5.65,22.07,1.62A17.2,17.2,0,0,0,344.52,194.46Z"/><path class="cls-22" d="M341.29,192.32c1.75-1.52,3.9-4.14,2.72-6.6-2.91-6.11-13.68-5.66-18.71-2.77-3.15,1.82-3.4,6.4-1.62,9.23,3.36,5.36,11.68,4.16,16.21,1.19A13.8,13.8,0,0,0,341.29,192.32Z"/></g><path class="cls-10" d="M311.91,274.53l-.82-.13c-4-.64-7.85-1.54-11.78-2.3-.05,0,4.3-18.92,4.43-20.18,1.14-11.14,2.12-22.26,2.31-33.46.1-5.46,0-10.91-.13-16.36-.11-4.82,0-10.22,2.19-14.62a5.38,5.38,0,0,1,4.85-3.06l-1.2,0c-3-.08-5.49.2-7,3.1-2.23,4.4-2.3,9.8-2.19,14.62.12,5.45.23,10.9.14,16.36-.2,11.2-1.17,22.32-2.32,33.46-.13,1.26-4.48,20.17-4.43,20.18,3.93.76,7.82,1.66,11.78,2.3l.82.13c4.61.67,44.36,4.38,44.36,4.32v-.28C343.32,277.69,315.71,275.08,311.91,274.53Z"/><path class="cls-30" d="M362.38,158.15c-2.34,5.53-6.58,10.88-12.5,11.95-.48-4.18,1-8.26,1.73-12.31.8-4.45,1.91-13.15-1.59-16.81-1.31-1.38-3.65-1.3-5.39-1.62-2.38-.43-4.77-.82-7.18-1.15-8.22-1.14-21.55.52-25.75-8.67-1.23-2.68-1.17-6.09,1-8.28s5.74-3.38,8.82-4c15.24-3,40.45,0,43.7,18.87A40.18,40.18,0,0,1,362.38,158.15Z"/><path class="cls-10" d="M351.6,167.44c-.48-4.18,1-8.25,1.73-12.31.8-4.44,1.91-13.15-1.59-16.81-1.32-1.37-3.65-1.3-5.39-1.62q-3.59-.64-7.18-1.15c-8.22-1.14-21.56.53-25.76-8.67A8.26,8.26,0,0,1,313,121c-.1.1-.22.18-.31.28-2.14,2.19-2.2,5.6-1,8.28,4.2,9.19,17.53,7.53,25.75,8.67,2.41.33,4.8.72,7.18,1.15,1.74.32,4.08.24,5.39,1.62,3.5,3.66,2.39,12.36,1.59,16.81-.73,4.05-2.21,8.13-1.73,12.31,4.88-.88,8.62-4.68,11.09-9.08C358.6,164.22,355.46,166.74,351.6,167.44Z"/><polygon class="cls-2" points="454.9 116.42 433.86 162.61 462.34 166.38 454.9 116.42"/><g class="cls-31"><path class="cls-12" d="M455.87,136.83a12.17,12.17,0,0,0,5-.81c5.3-2.15,4.74-11,4.08-15.54a14.4,14.4,0,0,0-9-11.78,7.42,7.42,0,0,0-4.36-.43c-3.2.78-4.88,4.48-6.32,7.11a21.51,21.51,0,0,0-2.86,10.47C442.44,132.3,449.48,136.62,455.87,136.83Z"/></g><polygon class="cls-32" points="433.43 163.86 398.8 386.33 427.94 397.52 462.34 167.44 433.43 163.86"/><polygon class="cls-33" points="407.3 393.85 443.33 165.08 433.43 163.86 398.8 386.33 407.3 393.85"/><polygon class="cls-10" points="418.48 395.84 453.81 166.38 462.34 167.44 427.94 397.52 418.48 395.84"/><path class="cls-3" d="M398.8,386.33l30.12,4.55L424.35,422a5.19,5.19,0,0,1-5.88,4.37l-20.81-3.05a5.18,5.18,0,0,1-4.35-6Z"/><g class="cls-34"><polygon class="cls-35" points="391.36 408.62 427.72 414.01 424.37 429.76 390.5 425.45 391.36 408.62"/><polyline class="cls-36" points="392.76 401.66 429.76 407.14 431.34 399.42 394.24 394.19"/></g><path class="cls-2" d="M454.18,165.55a5.57,5.57,0,1,1-5.56-5.14A5.36,5.36,0,0,1,454.18,165.55Z"/><path class="cls-2" d="M462.34,166.86a4.39,4.39,0,1,1-4.38-4.67A4.53,4.53,0,0,1,462.34,166.86Z"/><path class="cls-2" d="M443.51,164.49a5.05,5.05,0,1,1-5-4.67A4.86,4.86,0,0,1,443.51,164.49Z"/><path class="cls-22" d="M355.73,152.86c3.5.08,4.75,3.75,3.75,6.68-1.42,4.21-8.26,6.07-12.19,5.9a1.82,1.82,0,0,1-1.1-.31,1.71,1.71,0,0,1-.47-1.5A9.52,9.52,0,0,1,348,158.7c1-1.27,1.67-3,3-4a8.24,8.24,0,0,1,4.58-1.86Z"/><path class="cls-22" d="M451.1,225a7,7,0,0,0,1.51.57c2.24.62,3.69-.47,5.11-2.74a13.9,13.9,0,0,0,2.09-6.92,12,12,0,0,0-2.07-7.38c-1.45-1.89-3.62-2.61-5.21-1.47a8.1,8.1,0,0,0-1.81,2.13,16.56,16.56,0,0,0-2.58,6.78,11.54,11.54,0,0,0,.38,5.82A5.36,5.36,0,0,0,451.1,225Z"/><path class="cls-37" d="M339.68,153.63c0,2.08-1,3.75-2.2,3.75s-2.2-1.67-2.2-3.75,1-3.75,2.2-3.75S339.68,151.56,339.68,153.63Z"/><path class="cls-37" d="M323.69,153.1c0,2.07-1,3.75-2.2,3.75s-2.2-1.68-2.2-3.75,1-3.75,2.2-3.75S323.69,151,323.69,153.1Z"/><path class="cls-11" d="M320.32,164.87a24.8,24.8,0,0,0,6.15,1.35c5.19.45,11.82-1.86,11.82-1.86s-1.49,8-6.05,9.55-8.89,1-10.73-1.17S320.32,164.87,320.32,164.87Z"/><path class="cls-20" d="M336.36,143.53a15.34,15.34,0,0,1,6.8,2.57.77.77,0,0,0,1-.27.78.78,0,0,0-.27-1,17,17,0,0,0-7.56-2.77c-.4-.06-.75.38-.75.75a.78.78,0,0,0,.75.75Z"/><path class="cls-20" d="M317.62,143.86a13,13,0,0,1,6.58-.47.76.76,0,0,0,.92-.52.75.75,0,0,0-.52-.92,14.56,14.56,0,0,0-7.38.46c-.91.3-.52,1.75.4,1.45Z"/><ellipse class="cls-38" cx="326.99" cy="161.27" rx="2.59" ry="1.22"/><polygon class="cls-29" points="339.37 210.78 351.34 212.62 349.19 224.91 338.83 222.81 339.37 210.78"/></g></g></svg>