<svg xmlns="http://www.w3.org/2000/svg" xmlns:xlink="http://www.w3.org/1999/xlink" viewBox="0 0 826.05 671.25"><defs><style>.cls-1{fill:none;}.cls-2{fill:#191919;opacity:0.13;}.cls-3{clip-path:url(#clip-path);}.cls-4{fill:#b2b2b2;}</style><clipPath id="clip-path" transform="translate(75.14)"><path class="cls-1" d="M28.9,307.85C64.71,268,107.76,294.09,184,255.19c99.91-51,90.87-129,163.85-168.72C449.64,31,654.75,80.77,713.54,225c58.64,143.79-65.74,289.6-146.29,350.12C409.32,693.74,152.87,685.17,52.31,554.6-2.88,482.93-20.27,362.62,28.9,307.85Z"/></clipPath></defs><title>matches</title><g id="Layer_2" data-name="Layer 2"><g id="Layer_1-2" data-name="Layer 1"><path class="cls-2" d="M330.68,406.87c-93.63,55.41-47.06,222.82-102.29,242.79C166.4,672.07-11,504.08,6.52,351.86,36.08,94.28,618.91-78.42,708,36c59.48,76.41-63.68,329.13-213.39,362.46C425.68,413.78,384,375.35,330.68,406.87Z" transform="translate(75.14)"/><g class="cls-3"><image width="800" height="600" transform="translate(0 51.71) scale(1.03)" xlink:href="../../../../Desktop/messi_2x.jpg"/></g><path class="cls-4" d="M625.57,522.34A464.86,464.86,0,0,1,567.25,575C409.32,693.7,152.88,685.13,52.3,554.56c-55.19-71.67-72.56-192-23.4-246.74A72.53,72.53,0,0,1,43.63,295.1C3.73,353.25,22.1,464.69,74.35,532.52,174.9,663.09,431.37,671.67,589.29,553A438.85,438.85,0,0,0,625.57,522.34Z" transform="translate(75.14)"/></g></g></svg>