<svg xmlns="http://www.w3.org/2000/svg" viewBox="0 0 567.41 636.09"><defs><style>.cls-1{fill:#191919;opacity:0.13;}.cls-2,.cls-3{fill:#fff;}.cls-2{opacity:0.49;}.cls-4{fill:#f3f5f2;}.cls-5{fill:#045633;}.cls-6{fill:#fedc58;}.cls-7{fill:#ff9f92;}.cls-8{fill:#ff0029;}.cls-9{fill:#2d2442;}.cls-10{fill:#ef7f70;}.cls-11{fill:#f3511d;}.cls-12{fill:#2cdb83;}.cls-13{fill:#004cba;}.cls-14{fill:#0eaf5b;}.cls-15{fill:#433caa;}.cls-16{fill:#ff698d;}.cls-17{fill:#e5a739;}.cls-18{fill:#f2e436;}.cls-19{fill:#6a6ad8;}</style></defs><title>teamsAndPlayers</title><g id="Layer_2" data-name="Layer 2"><g id="Layer_1-2" data-name="Layer 1"><path class="cls-1" d="M212.06,281.84c-48-81.11-193-40.77-210.31-88.61C-17.66,139.54,127.85-14.09,259.71,1c223.12,25.62,372.71,530.47,273.6,607.62-66.18,51.52-285.09-55.16-313.95-184.85C206.07,364.13,239.37,328,212.06,281.84Z"/><path class="cls-2" d="M567.38,523.23c-2.66,61.95-175.73,144.9-314,100.13C65.05,562.4-34.9,272.22,20.41,124-10.78,278.69,87.9,533.12,262.84,589.75c119.47,38.68,264.89-18,304-74A31.69,31.69,0,0,1,567.38,523.23Z"/><path class="cls-3" d="M566.81,515.7c-39.08,56.08-184.5,112.73-304,74C87.9,533.12-10.78,278.69,20.41,124c7.5-20.14,17.88-37.65,31.29-51.61,50.47-52.54,147.76-58.77,214.48-44,28.6,6.3,112.07,24.72,143.15,89.4,11.2,23.31,11.85,44.82,7.85,65.91s-12.55,41.54-19.89,63C387,276.91,379.08,309,389.75,346.59,419.69,452.18,556.75,464.18,566.81,515.7Z"/><path class="cls-4" d="M566.81,515.7c-39.08,56.08-184.5,112.73-304,74C87.9,533.12-10.78,278.69,20.41,124c7.5-20.14,17.88-37.65,31.29-51.61,50.47-52.54,147.76-58.77,214.48-44,28.6,6.3,112.07,24.72,143.15,89.4,11.2,23.31,11.85,44.82,7.85,65.91-7,20.31-15.43,40.9-19.89,63C387,276.91,379.08,309,389.75,346.59,419.69,452.18,556.75,464.18,566.81,515.7Z"/><rect class="cls-5" x="297.35" y="314.61" width="57.19" height="8.1"/><rect class="cls-6" x="297.39" y="317.64" width="57.72" height="2.04"/><path class="cls-7" d="M314,346a25.19,25.19,0,0,0-5.75-5.71c-.54-1.55-1.76-7.72-4.9-11.22-2.52-2.8-2.68-3.78-2.59-4.48s.54-1.14,1-2.77c.13-.45.31-1.36-.56-1.25-.68.09-1.37,2.13-1.88,2.13h-2v-5.2c-1.2,1-2,4.56-1.31,6.24s4.12,10.74,5,13.1c1,2.6,7.46,14.68,8.86,16.76,2,3,7.44-2,7.44-2A32.08,32.08,0,0,0,314,346Z"/><path class="cls-7" d="M337.85,346a24.79,24.79,0,0,1,5.75-5.71c.54-1.55,1.75-7.72,4.89-11.22,2.52-2.8,2.68-3.78,2.6-4.48s-.54-1.14-1-2.77c-.12-.45-.3-1.36.56-1.25.69.09,1.38,2.13,1.88,2.13h2v-5.2c1.2,1,2,4.56,1.31,6.24s-4.12,10.74-5,13.1c-1,2.6-7.45,14.68-8.86,16.76-2,3-7.44-2-7.44-2A32.5,32.5,0,0,1,337.85,346Z"/><path class="cls-7" d="M310.37,390.25s-6.07,7.56-6.88,10.72c-.44,1.74-.25,4.59-.84,14.09a114.23,114.23,0,0,0,0,12.29l2.75,1.16A65.49,65.49,0,0,0,309,420a86.91,86.91,0,0,0,2.27-10.6c.29-2,.06-3.6.38-4.32,1.32-3,8.44-11.34,8.44-11.34Z"/><path class="cls-7" d="M341.6,390.25s6.06,7.56,6.87,10.72c.44,1.74.26,4.59.84,14.09a114.23,114.23,0,0,1,0,12.29l-2.75,1.16a65.49,65.49,0,0,1-3.63-8.53,86.91,86.91,0,0,1-2.27-10.6c-.29-2-.06-3.6-.38-4.32-1.31-3-8.44-11.34-8.44-11.34Z"/><path class="cls-8" d="M349.44,422.49s-2.59-1.71-3.11,2c-.07.49-1.6,1.15-1.6,1.15s-1.08,2.59-.18,3.42a35.1,35.1,0,0,0,4.15,3c1.57,1,1.72,3.73,5.49,2.23,1.76-.7,1.76-2.7.12-4.14C351.92,428,349.44,422.49,349.44,422.49Z"/><path class="cls-9" d="M355.45,432.62s-.43-.46-1.36.22-.38,1.71-2.29,1.23-1.89-1.18-3.15-2.26a29.68,29.68,0,0,0-4.34-3.09l.31,1.08s2.41,1.83,3.54,2.83,1.7,2.1,3.49,2.22a3.38,3.38,0,0,0,3.4-1.14A1.23,1.23,0,0,0,355.45,432.62Z"/><path class="cls-3" d="M350.93,425.44l.44.78a11.79,11.79,0,0,0-2,.56c-1.18.43-1.95,1.14-2.08.53s.73-1,1.41-1.34A12.43,12.43,0,0,1,350.93,425.44Z"/><path class="cls-3" d="M352.18,427.52s-1.24.24-2.14.5-1.38.89-1.17,1.28.87-.28,1.59-.58a10.76,10.76,0,0,1,2.22-.46Z"/><path class="cls-9" d="M350.85,432.71a27.27,27.27,0,0,0-3.18-3.71,6.25,6.25,0,0,0-2.7-1.11s1.76,1.27,2.62,2.05C348.27,430.54,350.4,432.66,350.85,432.71Z"/><path class="cls-9" d="M336.53,381.88a13.33,13.33,0,0,1-3,.65l-3.45,2-11.59-2a13.33,13.33,0,0,1-3-.65c-3.05,3.88-6.59,8.8-10,14,1.65,3.65,7.26,6.16,10.65,6.76,1.56-2.06,6.88-10.78,9.4-10.78s8.9,8.72,10.46,10.78c3.39-.6,9-3.11,10.65-6.76C343.12,390.68,339.58,385.76,336.53,381.88Z"/><path class="cls-5" d="M335.58,365.6a8.28,8.28,0,0,1,.27-1.68c1-3,5.41-7.51,7.22-10.06-1.25-.58-5.29-4.57-7.16-7.25-1.2,1.08-1.56,2.31-3.5,3.7a13.52,13.52,0,0,0-3.4.72s-.48,1.48-2.77,1.48a3.11,3.11,0,0,1-2.76-1.48,33.17,33.17,0,0,0-4.52-.66c-2-1.41-2.34-2.65-3.51-3.7-1.86,2.69-5.91,6.67-7.16,7.25,2.08,2.92,7.35,8.48,7.51,11.23a6.8,6.8,0,0,1,0,.78l-1.08,11.25-3.88,7.62a38.26,38.26,0,0,0,15.66,3.82c7.37,0,15.47-3.1,15.47-3.1l-4.46-8.16Z"/><path class="cls-10" d="M323.56,348.35s0,1.79-.08,2.68c.48,2.13,1,3,2.62,5.39,1.54-1.85,2.81-4.11,2.91-5.45-.07-1.39-.1-2.87-.1-2.87Z"/><path class="cls-7" d="M333,342.5c-.31-.94-1-.69-1-.69s-.06.15-.13.35c-.26-3.5-2.5-6.23-5.22-6.23s-4.79,2.53-5.18,5.84c-.23,0-.65,0-.95.57a1.81,1.81,0,0,0,1.08,2.32c.62,2.91,2.64,5,5.05,5s4.44-2.15,5-5.08A1.85,1.85,0,0,0,333,342.5Z"/><path class="cls-8" d="M331.62,336.14c-1.76-2.89-7.9-3.07-9.68-.21-.92,1.47-.8,5.82-.8,5.82l.8,1.06a18.92,18.92,0,0,1,1-3.6,2.68,2.68,0,0,0,3.72-.17,2.53,2.53,0,0,0,3.75.25,12.66,12.66,0,0,1,1,3.52l.8-1.06S332.21,337.12,331.62,336.14Z"/><path class="cls-8" d="M302.52,422.49s2.59-1.71,3.11,2c.07.49,1.6,1.15,1.6,1.15s1.08,2.59.18,3.42a34.28,34.28,0,0,1-4.15,3c-1.57,1-1.71,3.73-5.49,2.23-1.76-.7-1.76-2.7-.12-4.14C300,428,302.52,422.49,302.52,422.49Z"/><path class="cls-9" d="M296.51,432.62s.44-.46,1.36.22.38,1.71,2.3,1.23,1.88-1.18,3.14-2.26a29.68,29.68,0,0,1,4.34-3.09l-.31,1.08s-2.41,1.83-3.54,2.83-1.7,2.1-3.48,2.22a3.39,3.39,0,0,1-3.41-1.14A1.27,1.27,0,0,1,296.51,432.62Z"/><path class="cls-3" d="M301,425.44l-.44.78a11.79,11.79,0,0,1,2,.56c1.18.43,1.95,1.14,2.08.53s-.73-1-1.41-1.34A12.43,12.43,0,0,0,301,425.44Z"/><path class="cls-3" d="M299.79,427.52s1.23.24,2.13.5,1.38.89,1.17,1.28-.86-.28-1.58-.58a10.94,10.94,0,0,0-2.23-.46Z"/><path class="cls-9" d="M301.12,432.71a27,27,0,0,1,3.17-3.71,6.25,6.25,0,0,1,2.7-1.11s-1.76,1.27-2.62,2.05C303.69,430.54,301.56,432.66,301.12,432.71Z"/><path class="cls-11" d="M323.5,350.78a3.49,3.49,0,0,1-1.33,0s.08,3.7,1.66,5.64,2.42,2.77,2.42,2.77A14.07,14.07,0,0,0,329,355.9a18.12,18.12,0,0,0,1.14-5.21l-1.14.09a21,21,0,0,1-1.47,3.25c-.75,1.21-1.44,2.39-1.44,2.39a15.71,15.71,0,0,1-1.89-3.27A22.64,22.64,0,0,1,323.5,350.78Z"/><path class="cls-5" d="M321.14,341.75l-2-7.87a2.19,2.19,0,0,1-2.9-1.23c-.75-1.75,1.18-2.19,1.18-2.19a1.81,1.81,0,0,1,.39-3,1.6,1.6,0,0,1,2,.32s-.45-4.14,2.74-2.2c.94-2.44,2.69-.26,2.69-.26s1.41-2.3,2.72.14c2.2-1.12,2.64.86,2.64.86s2.46-1.36,2.46,1.51c1-.62,3.05-1.06,2.68,2,2.51,1,1.31,2.5.43,2.75,2.07,3.35-2.12,2-2.12,2l-1.88,7.17-.8,1.06-1.21-5.06-8-.79Z"/><path class="cls-11" d="M321.14,341.75a13,13,0,0,1,5.47-1.46,9.39,9.39,0,0,1,5.55,1.46l.71-2.74s-1.67-1.93-6.71-1.66a17.38,17.38,0,0,0-5.82,1.29Z"/><path class="cls-5" d="M296.13,314.61s-1.72,0-1.72,8.11c0,5.74-.25,21.74-.25,21.74h6V320Z"/><path class="cls-5" d="M355.56,314.61s1.73-.41,1.73,8.11c0,5.74.25,21.74.25,21.74h-6V320Z"/><rect class="cls-6" x="339.63" y="328.49" width="29.81" height="2.04" transform="translate(684.05 -25.02) rotate(90)"/><rect class="cls-6" x="282.25" y="328.5" width="29.81" height="2.04" transform="translate(626.67 32.36) rotate(90)"/><path class="cls-6" d="M332.78,368.74a6.84,6.84,0,1,1-6.84-6.84A6.84,6.84,0,0,1,332.78,368.74Z"/><polygon class="cls-11" points="326.16 363.12 322.17 366.26 323.48 368.05 325.68 365.52 323.48 373.9 326.72 374.27 328.72 363.54 326.16 363.12"/><path class="cls-11" d="M317.58,377.76l-.19,2a61.2,61.2,0,0,0,8.77.95,53.64,53.64,0,0,0,9.42-.84l-.45-2.07s-6,.76-8.64.79S317.58,377.76,317.58,377.76Z"/><path class="cls-7" d="M166.69,398.48s-.6,2.52-1.6,6.23c-.55,2,.38,6.76.68,17.54.22,7.79.32,15.8.32,15.8l4.85,2.9s.51-4.2,1.36-8.8c.92-4.92,2.44-11.32,2.47-14.21.07-5.6-1-7.38-.29-10a41.64,41.64,0,0,0,1.6-9.07Z"/><path class="cls-7" d="M189.68,398.48s.6,2.52,1.6,6.23c.55,2-.38,6.76-.68,17.54-.22,7.79-.32,15.8-.32,15.8l-3.54,2.9a67.31,67.31,0,0,1-2.89-9.94c-.91-4.92-2.22-10.18-2.25-13.07-.07-5.6,1-7.38.29-10a41.64,41.64,0,0,1-1.6-9.07Z"/><path class="cls-6" d="M134.13,298.51l-2.07,17s23.29,7.29,45.79,7.29a161.47,161.47,0,0,0,45.61-6.86l-2-17a164,164,0,0,1-43.62,6.25C159.34,305.19,140.3,300.26,134.13,298.51Z"/><path class="cls-5" d="M177.85,284c-16.47,0-33.34-3.9-41.22-6l-2.5,20.49c6.17,1.75,25.21,6.68,43.72,6.68a164,164,0,0,0,43.62-6.25l-2.41-20.5A164.27,164.27,0,0,1,177.85,284Z"/><path class="cls-6" d="M205.54,263c-6.22,3.84-20.56,5.74-27.79,5.74-6.82,0-22.12-6.35-29.74-7.32-8.95-1.13-9.72,3.09-9.72,3.09L136.63,278c7.88,2.1,24.75,6,41.22,6a164.27,164.27,0,0,0,41.21-5.58l-1.64-13.94S214.94,257.19,205.54,263Z"/><path class="cls-10" d="M183.78,295s-2.89-1-2.81-2.7,0-5,0-5h-6.16s-.07,3.34,0,5S172,295,172,295a7.53,7.53,0,0,0,4.38,3,1.85,1.85,0,0,0,1,.25,4.58,4.58,0,0,0,.53,0,4.45,4.45,0,0,0,.53,0,1.85,1.85,0,0,0,1-.25A7.53,7.53,0,0,0,183.78,295Z"/><path class="cls-7" d="M172.75,282.5s-.77-.41-1.27.59a2,2,0,0,0,1.29,2.64C173.63,285.78,172.75,282.5,172.75,282.5Z"/><path class="cls-7" d="M183.22,282.49s.82-.29,1.17.78a2.05,2.05,0,0,1-1.66,2.42C181.87,285.61,183.22,282.49,183.22,282.49Z"/><path class="cls-7" d="M183.45,283.62c0,4.31-3.66,7.8-5.6,7.8s-5.61-3.49-5.61-7.8,2.51-7.79,5.61-7.79S183.45,279.32,183.45,283.62Z"/><path class="cls-12" d="M188.35,321.66s-1.5-6.11-1.21-9c.25-2.41.54-4.55.77-6.08.14-.81.27-1.62.39-2.42v0h0a82.8,82.8,0,0,0,1-10.87,55.18,55.18,0,0,0-6.71,1.16s-4.47,5.15-9.48,0a37.36,37.36,0,0,1-3.72-.76,5,5,0,0,0-3.28,0,29.32,29.32,0,0,0,.49,3.9c.36,2,.84,4.52,1.31,6.92.16,2.41,1.22,5.93,1.84,9.38a13.91,13.91,0,0,1,0,3,.34.34,0,0,1,0,.1,11,11,0,0,1-.19,1.15c-.14.63-.32,1.41-.51,2.29h0a54.68,54.68,0,0,0-1.43,9.63h21.72a32.38,32.38,0,0,0-1-8.43Z"/><path class="cls-9" d="M183.37,281.73c.24-1.61.29-5.33-3.89-6.61-5.72-1.75-7.51,4-7.2,6.61Z"/><path class="cls-13" d="M189.34,330.07s2,11.55-3.23,15.26c-6.78,4.82-15.82,3.64-18.32-3.11-.72-1.93-.17-12.15-.17-12.15Z"/><path class="cls-9" d="M192.4,405.43c-.78-5.87-1.85-13.51-3.16-19.63a15.44,15.44,0,0,1-3.35-1.08H169.18a15.18,15.18,0,0,1-3.47,1.1c-.86,5.74-1.59,12.82-2.11,20.1,3.82,2.77,8.74,2.21,12.55.85.83-6.36,1.7-15.31,1.7-15.31A132.24,132.24,0,0,0,180,406.63C183.09,409,190.71,407.37,192.4,405.43Z"/><path class="cls-12" d="M178.89,372.4a110.84,110.84,0,0,1-15-1.12l-1.33,13.8s5.43,2.3,15.2,2.3A77.46,77.46,0,0,0,193,385.9l-2.35-14.41A97.12,97.12,0,0,1,178.89,372.4Z"/><path class="cls-12" d="M188.41,357.64l-.12-.71.25.64c.18-3.57,1.9-10.91,2.79-14.29A30.41,30.41,0,0,0,184,341c-1.88-.38-3.29-.56-3.29-.56s-.57,1.74-3.26,1.74a3.64,3.64,0,0,1-3.24-1.74l-2.61.52c-2.62.51-6.52,1.28-8.35,1.58.12.85-1.06,4.85-1,5.51.4,3.41,2.74,5.76,2.91,9a73.16,73.16,0,0,0,13.09,1.27C180,358.34,185,357.94,188.41,357.64Z"/><path class="cls-14" d="M190.67,371.49l-2.26-13.85c-3.44.3-8.38.7-10.17.7a73.16,73.16,0,0,1-13.09-1.27,6.41,6.41,0,0,1,0,1l-1.27,13.23a110.84,110.84,0,0,0,15,1.12A97.12,97.12,0,0,0,190.67,371.49Z"/><path class="cls-14" d="M167.43,340.51s.07,5.26.38,7.3a33.53,33.53,0,0,0,3,8.93s.43-12.88,1.8-16c.64-.13,1.24-.22,1.61-.3a16.18,16.18,0,0,0,.12-2.08,10.44,10.44,0,0,0-2.88.05A8.78,8.78,0,0,0,167.43,340.51Z"/><path class="cls-14" d="M187.85,340.51s-.49,5.64-.8,7.68a26.52,26.52,0,0,1-3.13,8.55s-.25-12.88-1.62-16c-.63-.13-1.23-.22-1.61-.3a17.64,17.64,0,0,1-.11-2.08,10.44,10.44,0,0,1,2.88.05A10,10,0,0,1,187.85,340.51Z"/><path class="cls-6" d="M163.3,363c1.1-1.06,2.34-1.42,3.47,0s1.38,1.29,2.69,0a12.73,12.73,0,0,1,1.3-1.11c0-1.08,0-2.71,0-2.71h-7.06s-2,2.75-2.08,3.82a2.84,2.84,0,0,0,0,.42A1.82,1.82,0,0,0,163.3,363Z"/><path class="cls-9" d="M164.4,365.35c1.72,0,2.83,0,4.37,0s1.89-1.46,2-3.07c0-.11,0-.24,0-.37a12.73,12.73,0,0,0-1.3,1.11c-1.31,1.29-1.57,1.42-2.69,0s-2.37-1.06-3.47,0a1.82,1.82,0,0,1-1.68.42C161.69,365,162.82,365.31,164.4,365.35Z"/><path class="cls-6" d="M191.41,363c-1.09-1.06-2.33-1.42-3.46,0s-1.38,1.29-2.69,0a15.33,15.33,0,0,0-1.3-1.11c0-1.08,0-2.71,0-2.71H191s2,2.75,2.09,3.82a2.84,2.84,0,0,1,0,.42A1.84,1.84,0,0,1,191.41,363Z"/><path class="cls-9" d="M190.32,365.35c-1.72,0-2.84,0-4.38,0s-1.88-1.46-2-3.07c0-.11,0-.24,0-.37a15.33,15.33,0,0,1,1.3,1.11c1.31,1.29,1.56,1.42,2.69,0s2.37-1.06,3.46,0a1.84,1.84,0,0,0,1.69.42C193,365,191.9,365.31,190.32,365.35Z"/><path class="cls-15" d="M168.38,325.4c-5,0-5.67,9.32-5.89,13.72-.14,2.82,0,21.39,0,21.39l8.92.49s.84-17.82,1.63-24.43C173.39,333.57,173.28,325.4,168.38,325.4Z"/><path class="cls-15" d="M186.44,325.4c5,0,5.66,9.32,5.88,13.72.14,2.82,0,21.39,0,21.39l-8.92.49s-.84-17.82-1.63-24.43C181.42,333.57,181.53,325.4,186.44,325.4Z"/><path class="cls-10" d="M174.28,337.38s0,2-.09,3.08a3.41,3.41,0,0,0,3,1.79c.92.12,3.4-.21,3.51-1.79-.08-1.64-.11-3.37-.11-3.37Z"/><path class="cls-7" d="M185.37,330.5c-.36-1.11-1.22-.8-1.22-.8l-.16.4c-.3-4.11-2.93-7.32-6.14-7.32s-5.63,3-6.08,6.86c-.27-.06-.77,0-1.13.68a2.16,2.16,0,0,0,1.28,2.73c.72,3.41,3.1,5.92,5.93,5.92s5.23-2.53,5.94-6A2.17,2.17,0,0,0,185.37,330.5Z"/><path class="cls-6" d="M183.76,323c-2.07-3.41-9.29-3.61-11.38-.25-1.09,1.73-.94,6.84-.94,6.84l.94,1.25a22.5,22.5,0,0,1,1.16-4.23c.42-.78,2.27-.3,4.37-.21,1.86.09,4-.31,4.41.31.68,1,1.13,4.13,1.13,4.13l.94-1.25S184.46,324.18,183.76,323Z"/><path class="cls-7" d="M184.52,294s5.58-5,7.62-6.71,7.37-9.08,8.74-10.62a77.79,77.79,0,0,0,6.47-7.83c.65-1.17.57-5.27,1.22-5.74,1.14-.81.9,3.25.9,3.25s3.49-3.71,5.44-3.33,4,1.27.12,5c-2.9,2.74-4,3-7,7.55-2.63,4-.7,3.85-9.74,12.7-2.32,2.27-5.5,9-9.62,13.23A16,16,0,0,0,184.52,294Z"/><path class="cls-7" d="M170.21,293.74c-1.23-2.13-4.22-4.74-6.27-6.45s-6.61-7.5-8-9a74.14,74.14,0,0,1-6.58-8.25c-.65-1.17-1.22-6.44-1.87-6.91-1.14-.81-.89,3.25-.89,3.25s-3.5-3.71-5.45-3.33-4.39,2.68-.24,5.72c3.22,2.36,4.61,2.95,6.12,6.05,2.29,4.71,7.21,9.83,9,12.5,4.1,6,11.3,14.17,11.3,14.17A31.1,31.1,0,0,1,170.21,293.74Z"/><path class="cls-6" d="M204.62,266.52s3.25-6.46,9.53-4.62a5,5,0,0,1,3.27,2.6S208.06,267.4,204.62,266.52Z"/><path class="cls-6" d="M151.09,266.52s-3.25-6.46-9.53-4.62a4.92,4.92,0,0,0-3.27,2.6S147.65,267.4,151.09,266.52Z"/><path class="cls-9" d="M169.31,281a.28.28,0,0,0-.14.52c-.83.21-1.66.68-1.6,1.66a1,1,0,0,0,1,1c-.29.92-.44,1.7.4,2.28.64.44,1.71.57,2,0a1.45,1.45,0,0,0,1.42.52,3.29,3.29,0,0,0,2.39-2.6C175.52,281.31,171.34,281,169.31,281Z"/><path class="cls-9" d="M185.91,281a.29.29,0,0,1,.13.53c.83.21,1.66.68,1.6,1.65a1,1,0,0,1-1,1c.29.92.44,1.69-.39,2.27-.64.45-1.72.58-2,0a1.5,1.5,0,0,1-1.43.52,3.3,3.3,0,0,1-2.39-2.6C179.69,281.33,183.87,281.05,185.91,281Z"/><path class="cls-8" d="M171.2,272.66a33.11,33.11,0,0,1-.38,8.68,24.9,24.9,0,0,0,6.56,1.27v-8.67A15.53,15.53,0,0,1,171.2,272.66Z"/><path class="cls-16" d="M177.38,264.5c-1.22.17-2.15-.33-4.17-.76-2.48-.54-3.32,2.41-2.39,6.55a19.16,19.16,0,0,1,.38,2.37,15.53,15.53,0,0,0,6.18,1.28Z"/><path class="cls-16" d="M184.52,281.34a70.29,70.29,0,0,1-1-8.42,22.21,22.21,0,0,1-6,1h-.1v8.67C182.06,282.84,184.52,281.34,184.52,281.34Z"/><path class="cls-8" d="M177.48,274a22.21,22.21,0,0,0,6-1c0-.18,0-.37,0-.54,0-3.27,1.29-7.78-.36-8.64s-3.07-.12-4.85.53a4.58,4.58,0,0,1-.92.23v9.44Z"/><path class="cls-8" d="M168.72,279.5l-.74,1.84s5.33,2.28,9.94,2.28a21.72,21.72,0,0,0,9.2-2.6l-.9-1.49a23.2,23.2,0,0,1-8.41,1.81A29.14,29.14,0,0,1,168.72,279.5Z"/><path class="cls-12" d="M190.87,435.26s-2.9-1.92-3.48,2.22c-.08.55-1.79,1.29-1.79,1.29s-1.21,2.89-.2,3.82A38,38,0,0,0,190,446c1.76,1.12,1.92,4.16,6.15,2.49,2-.78,2-3,.13-4.63C193.63,441.46,190.87,435.26,190.87,435.26Z"/><path class="cls-9" d="M197.59,446.59s-.49-.52-1.53.23-.42,1.92-2.56,1.39-2.11-1.33-3.52-2.53a33,33,0,0,0-4.85-3.46l.35,1.21s2.69,2.05,4,3.16,1.9,2.35,3.9,2.49c1.31.08,2.44.25,3.81-1.28A1.39,1.39,0,0,0,197.59,446.59Z"/><path class="cls-3" d="M192.53,438.55l.49.87a13.57,13.57,0,0,0-2.27.63c-1.32.48-2.18,1.28-2.32.59s.81-1.16,1.57-1.49A13.91,13.91,0,0,1,192.53,438.55Z"/><path class="cls-3" d="M193.92,440.88s-1.38.27-2.39.55-1.54,1-1.3,1.44,1-.31,1.77-.65a12.66,12.66,0,0,1,2.48-.52Z"/><path class="cls-9" d="M192.43,446.68a30.13,30.13,0,0,0-3.55-4.15,7,7,0,0,0-3-1.24s2,1.43,2.93,2.29C189.55,444.25,191.93,446.63,192.43,446.68Z"/><path class="cls-12" d="M166.05,435.26s2.89-1.92,3.48,2.22c.08.55,1.78,1.29,1.78,1.29s1.21,2.89.21,3.82a39,39,0,0,1-4.64,3.37c-1.76,1.12-1.92,4.16-6.14,2.49-2-.78-2-3-.13-4.63C163.28,441.46,166.05,435.26,166.05,435.26Z"/><path class="cls-9" d="M159.33,446.59s.49-.52,1.53.23.41,1.92,2.56,1.39,2.11-1.33,3.52-2.53a33,33,0,0,1,4.85-3.46l-.35,1.21s-2.7,2.05-4,3.16-1.9,2.35-3.89,2.49c-1.32.08-2.45.25-3.81-1.28A1.39,1.39,0,0,1,159.33,446.59Z"/><path class="cls-3" d="M164.39,438.55l-.5.87a13.57,13.57,0,0,1,2.27.63c1.32.48,2.18,1.28,2.33.59s-.82-1.16-1.58-1.49A13.68,13.68,0,0,0,164.39,438.55Z"/><path class="cls-3" d="M163,440.88s1.38.27,2.39.55,1.54,1,1.31,1.44-1-.31-1.77-.65a12.85,12.85,0,0,0-2.49-.52Z"/><path class="cls-9" d="M164.48,446.68a30.88,30.88,0,0,1,3.55-4.15,7.11,7.11,0,0,1,3-1.24s-2,1.43-2.93,2.29C167.36,444.25,165,446.63,164.48,446.68Z"/><path class="cls-7" d="M188,337.09c2.53.58,3.43,2,5.93,6.07s3.77,5.81,5.13,9.58.58,6.41-1.18,7.44-3.75-.8-5.29-2.25-1.34-12-3.32-13.18-3.15-2.65-4.47-2.94-3.76,1.47-3.2-1.05C181.87,339.69,181.62,335.6,188,337.09Z"/><path class="cls-7" d="M166.78,337.09c-2.52.58-3.43,2-5.93,6.07s-3.77,5.81-5.13,9.58-.58,6.41,1.18,7.44,3.75-.8,5.29-2.25,1.35-12,3.32-13.18,3.15-2.65,4.47-2.94,3.76,1.47,3.2-1.05C172.94,339.69,173.19,335.6,166.78,337.09Z"/><path class="cls-17" d="M301.41,251.88l-1.11-8.69c.29,0,30.44-4.32,48.75-32.31,15.62-23.9,20.39-65.87,21.58-79.77H324.24v-8.76H380l-.24,4.61c-.12,2.35-3.21,57.92-23.34,88.71C335.8,247.15,302.81,251.7,301.41,251.88Z"/><path class="cls-17" d="M190.22,251.88c-1.39-.18-34.38-4.73-55-36.21C115.13,184.88,112,129.31,111.92,127l-.24-4.61h55.71v8.76H121C122.19,145,127,187,142.59,210.88c18.3,28,48.45,32.27,48.76,32.32Z"/><path class="cls-18" d="M269.67,342.29c-9.71-19-8.91-43.47-8.91-43.47h-30s.8,24.44-8.91,43.47-16.14,32.46-16.14,32.46h80.06S279.38,361.32,269.67,342.29Z"/><path class="cls-18" d="M159.9,85.2s0,104.1,20.76,154c16.89,40.55,51.73,57.49,64.2,62.43v.76l1-.38c.33.13.71.28,1,.38v-.76c12.47-4.94,47.31-21.88,64.19-62.43,20.77-49.88,20.77-154,20.77-154Z"/><circle class="cls-3" cx="246.32" cy="153.36" r="51.19" transform="translate(-40.03 106.49) rotate(-22.61)"/><path class="cls-17" d="M245.86,194.43a42.31,42.31,0,1,1,42.3-42.31A42.35,42.35,0,0,1,245.86,194.43Zm0-79.51a37.21,37.21,0,1,0,37.2,37.2A37.24,37.24,0,0,0,245.86,114.92Z"/><path class="cls-17" d="M243.67,167.26,217.4,149.82l9.92-34.4,41.94,5.31,4.89,29.35Zm-20.33-19.62,20.55,13.65,24.65-13.9-3.68-22.08L231,121Z"/><rect class="cls-17" x="228.76" y="175.38" width="27.42" height="5.1" transform="translate(42.13 402.23) rotate(-84.5)"/><rect class="cls-17" x="205.52" y="149.52" width="15.6" height="5.1" transform="translate(-44.54 105.8) rotate(-25.31)"/><rect class="cls-17" x="275.55" y="145.56" width="5.1" height="17.51" transform="translate(-18 270.39) rotate(-50.43)"/><rect class="cls-17" x="213.47" y="214.56" width="64.78" height="4.56"/><rect class="cls-17" x="213.47" y="226.23" width="64.78" height="4.55"/><rect class="cls-17" x="219.7" y="290.28" width="50.02" height="6.48" rx="0.46"/><rect class="cls-17" x="219.7" y="296.73" width="50.02" height="6.48" rx="0.46"/><rect class="cls-17" x="198.48" y="374.75" width="95.67" height="6.72" rx="0.48"/><path class="cls-17" d="M297.61,381.47H194a3.25,3.25,0,0,0-3.24,3.24V385a3.25,3.25,0,0,0,3.24,3.24H297.61a3.25,3.25,0,0,0,3.24-3.24v-.24A3.25,3.25,0,0,0,297.61,381.47Z"/><rect class="cls-19" x="175.69" y="400.38" width="140.9" height="82.37"/><rect class="cls-15" x="184.96" y="388.19" width="122.34" height="12.2"/><rect class="cls-15" x="160.36" y="479.8" width="171.92" height="13.8"/><rect class="cls-3" x="206.86" y="420.78" width="75.71" height="33.28"/><path class="cls-7" d="M236.33,414.79c1.58-15.32,3.32-33,3.32-33l-18.18-3.19s-5.48,16.65-6.09,24.31c-.18,2.29-.3,6.15-.42,10.74C220.81,415.07,229.12,416.32,236.33,414.79Z"/><path class="cls-9" d="M210.16,469.09l11,5.82s11.88-29.73,13.5-44.14c.47-4.11,1.08-9.86,1.71-16-7.21,1.53-15.52.28-21.37-1.11C214,427.94,210.16,469.09,210.16,469.09Z"/><path class="cls-7" d="M261.5,414.79c-1.59-15.32-3.32-33-3.32-33l18.18-3.19s5.48,16.65,6.09,24.31c.18,2.29.3,6.15.41,10.74C277,415.07,268.71,416.32,261.5,414.79Z"/><path class="cls-9" d="M287.67,469.09s-5.17,4.74-10,3.81l-4.83-.93s-8-26.79-9.64-41.2c-.46-4.11-1.07-9.86-1.7-16,7.21,1.53,15.52.28,21.36-1.11.27,10.78.52,25.65,1.49,34C285.73,459.59,287.67,469.09,287.67,469.09Z"/><path class="cls-10" d="M239.88,227.34s.08,6.27-.14,10.8a73.66,73.66,0,0,0,0,7.61s16.81,2.4,18-3.69-.81-14.72-.81-14.72Z"/><path class="cls-7" d="M266.19,215.4c-.82-2.48-2.74-1.8-2.74-1.8s.22-15-14.13-15.53c-6.91-.23-12.63,6.69-13.65,15.4-.61-.13-1.71-.1-2.52,1.52-1.14,2.28.89,5.86,2.86,6.12,1.63,7.66,7,13.28,13.31,13.28s11.73-5.67,13.33-13.38C264.61,220.84,267,217.74,266.19,215.4Z"/><path class="cls-7" d="M211.83,262.68a57,57,0,0,0-5,11.72c-3.24,12.79-13.83,24.67-16.8,37-2.75,11.35-2.34,17.29-1.53,21.93S194,343,198.9,346.86s11.33,1.85,14.42,0c2.05-1.23,4.28-3.53-6.69-6.86-4.81-1.46-11.18-11.4-10.77-13.42a69,69,0,0,1,8.61-20.7c1.75-2.71,3.71-7.66,6.25-12a146.46,146.46,0,0,0,10.62-22.15Z"/><path class="cls-9" d="M248.91,246.22c7-.29,12.67-3.88,16-6.55l-6.69-1.53c-2.21,4.77-16.23,4.77-18.44,0,0,0-2.44.81-5.39,1.75A17.75,17.75,0,0,0,248.91,246.22Z"/><path class="cls-9" d="M267.23,328.64H232.34a97.34,97.34,0,0,0-7.54,20.67c-2.33,9.14-3.09,33-3.34,46.1a19.46,19.46,0,0,0,6.65,1.41c9.75,0,14.44-1.42,14.44-1.42l6.79-31.84,6.79,31.84s7.56,2.93,15.09,1.42a41.71,41.71,0,0,0,6.88-2.11c-.26-13.19-1-36.42-3.33-45.4A97.34,97.34,0,0,0,267.23,328.64Z"/><path class="cls-12" d="M232.34,328.64H222.7s-5,20.39-5.66,34.82S215,392.2,215,392.2a37.73,37.73,0,0,0,6.49,3.21c.25-13.06,1-37,3.34-46.1A97.34,97.34,0,0,1,232.34,328.64Z"/><path class="cls-12" d="M283.7,371c-.61-14.43-7.07-42.34-7.07-42.34h-9.4a97.34,97.34,0,0,1,7.54,20.67c2.29,9,3.07,32.21,3.33,45.4,3.2-1.25,5.6-2.51,5.6-2.51S284.32,385.4,283.7,371Z"/><path class="cls-9" d="M205.39,271a45.21,45.21,0,0,1-2.66,5.31s5.18,4.87,9.12,6c4.75,1.35,7.27.43,7.27.43l2.35-3.78a54.85,54.85,0,0,1-9-2.28A15.64,15.64,0,0,1,205.39,271Z"/><path class="cls-12" d="M298,268.82c-2-3.77-4.94-9.15-7.57-13.4-4.92-7.93-9.64-11.82-13.69-12.9-2.21-.59-7.52-1.83-11.91-2.85-3.29,2.67-9,6.26-16,6.55a17.75,17.75,0,0,1-14.56-6.33c-3,1-6.59,2.08-8.65,2.63-4,1.08-6.61,2.26-11.95,10.39-2.77,4.24-6.37,13-8.36,18.11a15.64,15.64,0,0,0,7.09,5.67,54.85,54.85,0,0,0,9,2.28l5.25-10.67s0,18.26.51,26.31,1.52,23.15-1,25.63-2.53,4.3-1,5.62-2.54,2.43-1.52,5.22,8.69,3.52,12.46,3.71c3.08.15,27.12.15,30.2,0,3.77-.19,11.45-.93,12.47-3.71s-3.05-3.91-1.53-5.22,1.53-3.14-1-5.62-1.52-17.59-1-25.63.51-26.31.51-26.31l3.85,9.7a19.68,19.68,0,0,0,10.07-2.88A74.08,74.08,0,0,0,298,268.82Z"/><path class="cls-9" d="M289.1,281.09c4-1,11.35-7.65,11.35-7.65s-1-1.9-2.41-4.62a74.08,74.08,0,0,1-8.36,6.3A19.68,19.68,0,0,1,279.61,278l1.39,3.51A19.36,19.36,0,0,0,289.1,281.09Z"/><path class="cls-17" d="M215.71,305.88a16.74,16.74,0,1,1-26.06,15.82,19.81,19.81,0,0,0-.13,2.19,19.3,19.3,0,1,0,26.19-18Z"/><path class="cls-18" d="M206.26,336.44a16.74,16.74,0,0,0,9.45-30.56,19.25,19.25,0,0,0-26.06,15.82A16.75,16.75,0,0,0,206.26,336.44Z"/><path class="cls-15" d="M191.09,316.27a14.29,14.29,0,0,0-1.09,3.42l4.11-2L202,328.94l-2.85,11.7,2.85,1.28,3.13-11.55,12.8-2.75,5.83,8.52a10.1,10.1,0,0,0,1.34-1.85c.74-1.25-4.87-9.68-4.87-9.68V313.46l4.94.15L223,310.83h-4.81l-13.77-5.71-9.74,9.2A39.18,39.18,0,0,0,191.09,316.27Z"/><polygon class="cls-18" points="205.04 308.32 197.61 316.46 204.97 326.97 217.04 324.49 217.04 314.1 205.04 308.32"/><path class="cls-7" d="M306.54,288.86c-.66-1.33-5-7.23-8.34-13.74-3.81,3.39-8.63,6.27-13.7,6.62l7.41,8.79S282.8,306.64,280.57,310s-4.64,10.1-9.84,12.38-7.43,4.55-8.92,9.35c-1.23,4-.24,8.1,4.53,6.84s4.78-3.64,9.22-5.91,4.46-4.35,6.31-7.24,12.23-13.64,16.73-19.74a69.28,69.28,0,0,0,7-12.1C306.48,291.44,306.94,289.66,306.54,288.86Z"/><path class="cls-9" d="M234.7,213.51a26.89,26.89,0,0,1-1.88-6.58,10.41,10.41,0,0,1,.47-5.2s-1.77-2.23-.47-4.46a2.54,2.54,0,0,1,3.54-.93s.82-3.72,3.29-4.83a2.91,2.91,0,0,1,3.77.93s1.48-2.6,3.71-2.6a3.75,3.75,0,0,1,3.2,1.72s1.32-2,3.31-1.72a4.32,4.32,0,0,1,3.82,3s1.1-1.85,3.7-.36a3.09,3.09,0,0,1,1.59,3.88s2.22-2.3,4.17-.44c2.25,2.13-.2,5.29-.2,5.29v6a16.77,16.77,0,0,1-1.64,6.51l-2,.69s.26-7.41-3.32-10.45c-4.93-4.18-17.2-3.44-20.12.09s-2.55,10.36-2.55,10.36Z"/><polygon class="cls-9" points="234.35 268.56 267.99 268.36 267.99 274 234.35 274 234.35 268.56"/><rect class="cls-9" x="259.4" y="263.95" width="8.59" height="2.04"/><path class="cls-12" d="M210.28,459.65s7.33-4.84,8.8,5.63c.2,1.38,4.52,3.25,4.52,3.25s3.06,7.33.52,9.66a96.78,96.78,0,0,1-11.73,8.53c-4.45,2.83-4.86,10.53-15.54,6.29-5-2-5-7.61-.33-11.7C203.28,475.33,210.28,459.65,210.28,459.65Z"/><path class="cls-9" d="M193.28,488.3s1.24-1.31,3.86.61c2.91,2.12,1.07,4.84,6.49,3.49s5.33-3.35,8.89-6.4a84.51,84.51,0,0,1,12.28-8.73l-.89,3s-6.81,5.19-10,8-4.81,5.95-9.86,6.29c-3.33.23-6.18.64-9.64-3.23A3.57,3.57,0,0,1,193.28,488.3Z"/><path class="cls-3" d="M206.08,468l-1.25,2.21a35.36,35.36,0,0,1,5.74,1.6c3.34,1.2,5.51,3.23,5.88,1.49s-2.06-2.94-4-3.79A36.34,36.34,0,0,0,206.08,468Z"/><path class="cls-3" d="M202.55,473.86s3.5.69,6,1.41,3.91,2.54,3.3,3.62-2.44-.78-4.47-1.62a30.9,30.9,0,0,0-6.29-1.31Z"/><path class="cls-9" d="M206.31,488.54s5.79-8,9-10.49a17.93,17.93,0,0,1,7.63-3.14s-5,3.61-7.42,5.79C213.6,482.41,207.58,488.42,206.31,488.54Z"/><path class="cls-12" d="M285.45,459.65s-7.32-4.84-8.8,5.63c-.19,1.38-4.52,3.25-4.52,3.25s-3.06,7.33-.52,9.66a97.59,97.59,0,0,0,11.73,8.53c4.45,2.83,4.86,10.53,15.54,6.29,5-2,5-7.61.34-11.7C292.46,475.33,285.45,459.65,285.45,459.65Z"/><path class="cls-9" d="M302.45,488.3s-1.23-1.31-3.86.61c-2.91,2.12-1.06,4.84-6.49,3.49s-5.33-3.35-8.89-6.4a84.51,84.51,0,0,0-12.28-8.73l.89,3s6.81,5.19,10,8,4.81,5.95,9.86,6.29c3.33.23,6.18.64,9.64-3.23A3.53,3.53,0,0,0,302.45,488.3Z"/><path class="cls-3" d="M289.65,468l1.26,2.21a35.3,35.3,0,0,0-5.75,1.6c-3.34,1.2-5.51,3.23-5.87,1.49s2-2.94,4-3.79A36.34,36.34,0,0,1,289.65,468Z"/><path class="cls-3" d="M293.18,473.86s-3.49.69-6,1.41-3.9,2.54-3.3,3.62,2.44-.78,4.47-1.62a31.08,31.08,0,0,1,6.3-1.31Z"/><path class="cls-9" d="M289.42,488.54s-5.79-8-9-10.49a17.88,17.88,0,0,0-7.63-3.14s5,3.61,7.42,5.79C282.13,482.41,288.15,488.42,289.42,488.54Z"/></g></g></svg>