<svg id="Group_198" data-name="Group 198" xmlns="http://www.w3.org/2000/svg" width="820.363" height="556.306" viewBox="0 0 820.363 556.306">
  <g id="Group_84" data-name="Group 84">
    <path id="Path_47" data-name="Path 47" d="M423.1,163.657l-66.6,162.388h0l-66.6-163.023h0L133.209,544.888H0L222.649,0H355.858L423.1,163.657Z" fill="#272727"/>
    <path id="Path_48" data-name="Path 48" d="M567,1.8H324.688L168.643,384.3h0l-66.6-163.022h0L34.8,383.666h0l66.6,163.022H234.614L403.345,134.375H568.271a65.946,65.946,0,0,0,60.9-40.6v-.634a56.233,56.233,0,0,0,4.44-17.761C639.95,35.419,608.233,1.8,567,1.8ZM318.979,58.89a7.158,7.158,0,0,1-1.9-6.978c.634-3.806,4.44-6.343,8.246-6.343h96.418a7.749,7.749,0,0,1,5.709,2.537,7.158,7.158,0,0,1,1.9,6.978c-.634,3.806-4.44,6.343-8.246,6.343H324.688C322.151,60.793,320.248,60.158,318.979,58.89Zm246.754,64.067H447.114a7.749,7.749,0,0,1-5.709-2.537c-1.269-1.269-1.9-3.172-2.537-5.075-.634-4.44,3.806-8.246,8.246-8.246h62.164c4.44,0,8.246-3.172,8.246-7.612,0-2.537-.634-4.44-2.537-5.709a8.04,8.04,0,0,0-5.709-2.537H376.7a7.749,7.749,0,0,1-5.709-2.537,7.158,7.158,0,0,1-1.9-6.978c.634-3.806,4.44-6.343,8.246-6.343H492.151c3.806,0,7.612-2.537,8.246-6.343.634-2.537-.634-5.075-1.9-6.978a8.041,8.041,0,0,0-5.709-2.537H447.114a7.749,7.749,0,0,1-5.709-2.537,8.04,8.04,0,0,1-2.537-5.709,7.329,7.329,0,0,1,7.612-7.612h12.687c4.44,0,8.881-3.806,8.246-8.246a7.83,7.83,0,0,0-2.537-5.075,8.04,8.04,0,0,0-5.709-2.537H389.39a7.749,7.749,0,0,1-5.709-2.537c-1.269-1.269-1.9-3.172-2.537-5.075-.634-4.44,3.806-8.246,8.246-8.246H565.733c29.813.634,53.918,24.739,53.918,54.552C620.286,98.852,595.547,122.957,565.733,122.957Z" transform="translate(185.946 9.618)" fill="#272727"/>
  </g>
</svg>
