<svg xmlns="http://www.w3.org/2000/svg" viewBox="0 0 423.06 362.13"><defs><style>.cls-1{isolation:isolate;}.cls-2{fill:#f2f2f2;opacity:0.24;}.cls-3{fill:#fff;}.cls-4,.cls-5{fill:#cc8a79;}.cls-12,.cls-16,.cls-18,.cls-35,.cls-37,.cls-39,.cls-5,.cls-9{opacity:0.5;}.cls-10,.cls-12,.cls-16,.cls-18,.cls-25,.cls-27,.cls-29,.cls-35,.cls-37,.cls-39,.cls-5{mix-blend-mode:multiply;}.cls-6{fill:#fab29a;}.cls-7{fill:#e29d8a;}.cls-8{fill:#4aadff;}.cls-10,.cls-8{opacity:0.4;}.cls-9{mix-blend-mode:screen;}.cls-10{fill:#386a8c;}.cls-11,.cls-12{fill:#a67c52;}.cls-13{fill:#e8e8e8;}.cls-14{fill:#ddd;}.cls-15{fill:#1e1f28;}.cls-17,.cls-18{fill:#432065;}.cls-19{fill:#00e1fd;}.cls-20{fill:#29abe2;}.cls-21,.cls-29,.cls-35{fill:#b3b3b3;}.cls-22{fill:#f7f7f7;}.cls-23{fill:#e3ffd7;}.cls-24,.cls-25{fill:#73a86a;}.cls-26,.cls-28{fill:#ed1e79;}.cls-28{font-size:25.52px;font-family:Objectivity-ThinSlanted, Objectivity;font-weight:200;font-style:oblique;}.cls-30{fill:#ccc;}.cls-31{fill:#532f7c;}.cls-32{fill:#39b54a;}.cls-33{fill:gray;}.cls-34{fill:#e6e6e6;}.cls-36,.cls-37{fill:#7c1613;}.cls-38{fill:#601613;}.cls-39{fill:#490e0e;}.cls-40{fill:#ff9f92;}.cls-41{fill:#2d2442;}.cls-42{fill:#ef7f70;}.cls-43{fill:#2cdb83;}.cls-44{fill:#e5a739;}.cls-45{fill:#f2e436;}.cls-46{fill:#433caa;}</style></defs><title>manager</title><g class="cls-1"><g id="Layer_2" data-name="Layer 2"><g id="OBJECTS"><path class="cls-2" d="M136.61,327.1c-14.51-8-63-35.78-81.4-89.61-.7-2-16.77-50.23.68-62.93,13.77-10,35.62,11.32,48.57,4.11C130.32,164.26,59.29,43.89,83.94,24.08c19.57-15.73,75.77,48.42,121.76,28C234.57,39.33,229.23,6.6,251.52.82,297.12-11,393,106.91,369.18,185.51c-5.77,19.07-14,20.79-26.68,54-21.76,57.22-6.75,77-23.26,97.81C288.43,376.18,194.8,359.35,136.61,327.1Z"/><path class="cls-3" d="M111.8,329.42c-14.51-8.05-62.95-35.79-81.39-89.61-.7-2-16.78-50.24.68-62.93,13.76-10,35.62,11.32,48.57,4.1C105.52,166.57,34.48,46.2,59.13,26.39,78.71,10.67,134.9,74.81,180.89,54.44c28.87-12.79,23.54-45.53,45.83-51.3C272.31-8.67,368.16,109.23,344.37,187.82c-5.77,19.07-14,20.8-26.68,54-21.76,57.23-6.74,77-23.25,97.82C263.63,378.49,170,361.67,111.8,329.42Z"/><polygon class="cls-4" points="55.18 181.39 54.34 186.41 53.5 197.35 51.67 201.75 52.27 202.7 57.44 211.05 46.43 216.3 46.38 216.26 41.09 211.55 39.3 209.96 33.39 204.72 40.22 197.5 45.82 189.26 46.8 181.87 48.67 179.77 49.33 179.04 50.36 177.87 53.52 177.85 55.18 181.39"/><path class="cls-5" d="M51.42,183.76c.9,3,1.15,11.77-2.91,17.26A53.22,53.22,0,0,1,39.3,210l-5.91-5.24,6.82-7.22,5.61-8.24,1-7.39,1.86-2.1.66-.73A24.22,24.22,0,0,1,51.42,183.76Z"/><path class="cls-6" d="M48.75,214.64l-2.37,1.62-2.84,1.92L40,214.85l-1.89-.72-7.56-2.84c-2.41-.9-4.6-1.72-5.67-2.1a2.35,2.35,0,0,0-.37-.14l16.19-5.58.23.65.88,2.48.65.75L44,209.14Z"/><path class="cls-5" d="M42.43,207.35a38.89,38.89,0,0,1-11.91,3.94c-2.41-.9-4.6-1.72-5.67-2.1a2.35,2.35,0,0,0-.37-.14l16.19-5.58.23.65.88,2.48Z"/><path class="cls-5" d="M57.43,211.05l-11,5.25,0,0-2.85,1.92L40,214.85l-1.89-.71c.82-.71,1.83-1.59,3-2.59C42,210.8,43,210,44,209.14c2.52-2.06,5.4-4.34,8.28-6.44Z"/><polygon class="cls-4" points="60.28 305 55.52 311.94 49.11 311.57 41.76 305.83 41.19 305.7 34.88 304.25 31.37 300.73 31.6 297.94 35.07 296.8 39.75 298.01 50.01 299.81 52.55 301.1 60.28 305"/><path class="cls-5" d="M60.28,305l-4.76,6.93-6.41-.36-7.35-5.74-.57-.13c1.17-.14,2.41-.28,2.86-.28.74,0,5-2.93,8.5-4.33Z"/><path class="cls-7" d="M58.5,315.92,31.44,317l-6.07.25-2-1.2-.56.37-11.56-5.63L3.73,299.76l-1.81-2.67.44-3.47,2.58-1.48L8.5,294l9.18,10.45,1.73.87,7,3.49,1.62-.26c5.33-.93,14.92-2.88,20.22-1.48C55.33,308.92,58.5,315.92,58.5,315.92Z"/><path class="cls-5" d="M41,310.17l-9.12,6.69-.44.18-6.07.25-2-1.2-.56.37-11.56-5.63L3.73,299.76l.4-.47.28-2.19,4.16-.05,8.31,7.12,2.53,1.13,7,3.49,1.62-.26Z"/><polygon class="cls-6" points="31.6 313.1 25.98 318.31 13.49 314.57 5.35 305.81 4.2 304.56 2.27 302.48 2.14 298.98 4.41 297.11 8.17 298.37 19.12 307.24 24.16 309.61 31.6 313.1"/><polygon class="cls-5" points="31.6 313.1 25.98 318.31 13.49 314.57 5.35 305.81 6.2 304.81 11.32 303.62 19.55 308.5 24.16 309.61 31.6 313.1"/><path class="cls-3" d="M38.46,278.84a11,11,0,0,0,8-10.56v-3.92c-7.53-1.82-9.76,2.53-14.26-1a12,12,0,0,0-7.72-2.6v7.51a11,11,0,0,0,8,10.56,3.1,3.1,0,0,1,2.25,2.85v16.73a9.87,9.87,0,0,0-5.41-.5,10.92,10.92,0,0,0-4.85,2v8.29h22V296.79c-4.52-.1-3.87,2.59-6.66,3.2-1.35.3-2.36-.26-3.6-.9v-17.4A3.11,3.11,0,0,1,38.46,278.84Z"/><path class="cls-8" d="M47.79,254.07v14.21a12.33,12.33,0,0,1-9,11.85,1.76,1.76,0,0,0-1.3,1.69,1.79,1.79,0,0,0,1.3,1.7,12.3,12.3,0,0,1,9,11.84v14.21H23.15V295.36a12.3,12.3,0,0,1,9-11.84,1.78,1.78,0,0,0,1.29-1.7,1.76,1.76,0,0,0-1.29-1.69,12.33,12.33,0,0,1-9-11.85V254.07Z"/><g class="cls-9"><path class="cls-3" d="M38.82,280.12a12.31,12.31,0,0,0,9-11.84V254.07H41.88v12.76c0,6.25-2.69,11.5-6.36,13.11a2.4,2.4,0,0,0,0,3.76c3.67,1.61,6.36,6.86,6.36,13.11v12.76h5.91V295.36a12.3,12.3,0,0,0-9-11.84,1.76,1.76,0,0,1,0-3.4Z"/><path class="cls-3" d="M28.76,278.59c-2.58-2.37-4.32-6.74-4.32-11.76V254.07H23.15v14.21A12.3,12.3,0,0,0,28.76,278.59Z"/><path class="cls-3" d="M24.44,296.81c0-5,1.74-9.4,4.32-11.76a12.3,12.3,0,0,0-5.61,10.31v14.21h1.29Z"/></g><path class="cls-10" d="M47.79,254.07v2.35c-7-.13-19.71-1-24.64-1.38v-1Z"/><rect class="cls-11" x="21.18" y="251.17" width="28.58" height="3.03"/><rect class="cls-12" x="21.18" y="252.63" width="28.58" height="1.57"/><rect class="cls-11" x="21.18" y="309.44" width="28.58" height="3.03"/><rect class="cls-12" x="21.18" y="310.89" width="28.58" height="1.57"/><polygon class="cls-6" points="62.23 304.09 65.34 319.15 33.3 324.91 14.01 315.8 4.63 308.68 4.5 306.55 6.25 304.43 10.57 305.01 17.1 309.24 27.88 312.43 38.95 309.87 46.05 306.18 54.58 303.63 62.23 304.09"/><polygon class="cls-13" points="75.7 318.54 73.8 318.94 69.87 319.79 64.22 321 59.59 299.25 63.76 298.27 72.01 296.37 73.3 304.14 75.7 318.54"/><polygon class="cls-14" points="73.8 318.94 69.87 319.79 63.76 298.27 72.01 296.37 73.3 304.14 73.8 318.94"/><polygon class="cls-4" points="111.96 114.41 109.53 118.89 105.17 128.94 102.01 132.51 102.26 133.6 104.43 143.19 92.31 144.56 92.28 144.5 88.81 138.34 87.64 136.25 83.76 129.37 92.56 124.77 100.54 118.8 103.88 112.14 106.33 110.75 107.19 110.28 108.55 109.5 111.54 110.52 111.96 114.41"/><path class="cls-5" d="M107.63,115.42c-.13,3.13-2.75,11.5-8.37,15.37a53.19,53.19,0,0,1-11.62,5.45l-3.88-6.88,8.8-4.6,8-6,3.34-6.66,2.45-1.38.86-.48A24.35,24.35,0,0,1,107.63,115.42Z"/><path class="cls-6" d="M95.05,143.75l-2.77.75-3.31.89-2.29-4.31-1.55-1.29-6.23-5.15c-2-1.63-3.79-3.12-4.67-3.83a3.88,3.88,0,0,0-.31-.26H91.05v.69l0,2.63.37.92.88,2.2Z"/><path class="cls-5" d="M91.45,134.79a38.84,38.84,0,0,1-12.55-.15c-2-1.63-3.79-3.12-4.67-3.83a3.88,3.88,0,0,0-.31-.26H91.05v.69l0,2.63Z"/><path class="cls-5" d="M104.43,143.18l-12.12,1.38,0-.05L89,145.4l-2.28-4.31s-.6-.51-1.55-1.29c1-.4,2.25-.91,3.68-1.47,1.08-.42,2.27-.87,3.52-1.33,3.06-1.13,6.52-2.35,9.93-3.4Z"/><polygon class="cls-13" points="109.23 149.28 87.34 154.34 85.72 148.56 84.16 143.03 105.59 137.06 106.61 140.49 109.23 149.28"/><polygon class="cls-14" points="109.23 149.28 87.34 154.34 85.72 148.56 106.61 140.49 109.23 149.28"/><polygon class="cls-13" points="66.51 213.38 46.83 226.18 42.83 221.44 39.29 217.26 57.74 204.84 60.48 207.5 66.51 213.38"/><polygon class="cls-14" points="66.51 213.38 46.83 226.18 42.83 221.44 60.48 207.5 66.51 213.38"/><polygon class="cls-15" points="190.67 237.56 178.43 251.68 175.63 254.91 170.27 261.08 160.55 254.78 125.8 232.28 101.87 216.76 89.28 167.51 88.33 163.81 87.33 159.91 86.39 156.22 84.86 150.24 108.84 143.65 125.47 199.19 153.19 211.6 180.98 224.04 189.37 227.81 190.67 237.56"/><g class="cls-16"><path class="cls-17" d="M89.23,160.3a2.75,2.75,0,0,1-1.9-.4l-.94-3.69a2.77,2.77,0,1,1,2.84,4.09Z"/><path class="cls-17" d="M91.16,167.9a2.76,2.76,0,0,1-1.88-.39l-1-3.71a2.77,2.77,0,1,1,2.83,4.1Z"/></g><path class="cls-18" d="M178.43,251.67,181,224,153.19,211.6,125.8,232.27l34.75,22.51,15.08.12Z"/><polygon class="cls-15" points="191.12 244.41 167.26 276.33 155.11 292.57 143.48 308.14 89.72 317.71 84.69 318.62 82.01 319.1 76.96 320 71.65 320.94 66.99 296.11 126.15 281.93 131.15 272.25 139.29 256.51 156.37 223.49 160.51 215.49 165.6 215.09 170.99 214.69 191.12 244.41"/><g class="cls-16"><path class="cls-17" d="M81.76,319.18l-5.05.9a2.75,2.75,0,0,1-.43-1.27,2.77,2.77,0,0,1,5.53-.44A3.1,3.1,0,0,1,81.76,319.18Z"/><path class="cls-17" d="M89.53,317a2.79,2.79,0,0,1-.06.82l-5,.9A2.77,2.77,0,1,1,89.53,317Z"/></g><polygon class="cls-18" points="173.88 239.93 171.63 257.93 131.15 272.25 139.29 256.51 173.88 239.93"/><polygon class="cls-18" points="167.26 276.33 155.11 292.57 156.37 223.49 160.51 215.49 165.6 215.09 167.26 276.33"/><polygon class="cls-15" points="172.99 252.06 166.91 254.38 155.58 258.7 94.35 282.06 54.31 236.16 51.69 233.15 48.98 230.04 46.72 227.46 42.72 222.87 63.74 208.75 105.3 249.38 156.18 215.53 159.01 213.66 166.13 216.56 168.44 217.51 172.99 252.06"/><g class="cls-16"><path class="cls-17" d="M51,229.62a2.75,2.75,0,0,1-2,.42l-2.26-2.59A2.73,2.73,0,0,1,47.94,225,2.77,2.77,0,0,1,51,229.62Z"/><path class="cls-17" d="M56,235.7a2.65,2.65,0,0,1-1.66.45l-2.62-3A2.77,2.77,0,1,1,56,235.7Z"/></g><polygon class="cls-18" points="166.91 254.38 155.58 258.7 156.18 215.53 159.01 213.66 166.13 216.56 166.91 254.38"/><circle class="cls-19" cx="88.31" cy="156.56" r="2.77" transform="matrix(0.18, -0.98, 0.98, 0.18, -81.7, 214.95)"/><path class="cls-19" d="M93,163.75a2.77,2.77,0,1,1-3.15-2.32A2.77,2.77,0,0,1,93,163.75Z"/><path class="cls-19" d="M77.82,315.66a2.77,2.77,0,1,1-2.54,3A2.78,2.78,0,0,1,77.82,315.66Z"/><path class="cls-19" d="M85.55,314.27a2.77,2.77,0,1,1-2.54,3A2.77,2.77,0,0,1,85.55,314.27Z"/><path class="cls-19" d="M50.78,224.79a2.77,2.77,0,1,1-3.84-.77A2.77,2.77,0,0,1,50.78,224.79Z"/><path class="cls-19" d="M55.74,230.87a2.77,2.77,0,1,1-3.84-.78A2.76,2.76,0,0,1,55.74,230.87Z"/><rect class="cls-3" x="16.1" y="118.03" width="58.79" height="81.12" transform="translate(-71.86 42.62) rotate(-29.33)"/><rect class="cls-20" x="0.14" y="122.21" width="58.79" height="15.97" transform="translate(-59.99 31.16) rotate(-29.33)"/><rect class="cls-21" x="16.99" y="150.54" width="16.75" height="1.13" transform="translate(-70.77 31.79) rotate(-29.33)"/><rect class="cls-22" x="13.53" y="125.99" width="37.6" height="2.47" transform="translate(-58.17 32.15) rotate(-29.33)"/><rect class="cls-22" x="15.81" y="132.37" width="25.55" height="0.98" transform="translate(-61.42 31.03) rotate(-29.33)"/><rect class="cls-22" x="16.77" y="134.07" width="25.55" height="0.98" transform="translate(-62.13 31.72) rotate(-29.33)"/><rect class="cls-21" x="65.43" y="180.06" width="16.75" height="1.13" transform="translate(-79.02 59.31) rotate(-29.33)"/><rect class="cls-21" x="49.07" y="134.88" width="8.34" height="1.13" transform="translate(-59.53 43.45) rotate(-29.33)"/><rect class="cls-21" x="34.11" y="177.38" width="44.52" height="1.13" transform="translate(-79.94 50.42) rotate(-29.33)"/><rect class="cls-21" x="32.17" y="173.93" width="44.52" height="1.13" transform="translate(-78.5 49.03) rotate(-29.33)"/><rect class="cls-21" x="30.23" y="170.48" width="44.52" height="1.13" transform="translate(-77.06 47.64) rotate(-29.33)"/><rect class="cls-21" x="28.29" y="167.03" width="44.52" height="1.13" transform="translate(-75.61 46.25) rotate(-29.33)"/><rect class="cls-21" x="26.35" y="163.58" width="44.52" height="1.13" transform="translate(-74.17 44.85) rotate(-29.33)"/><rect class="cls-21" x="24.41" y="160.13" width="44.52" height="1.13" transform="matrix(0.87, -0.49, 0.49, 0.87, -72.73, 43.46)"/><rect class="cls-21" x="22.48" y="156.68" width="44.52" height="1.13" transform="translate(-71.29 42.07) rotate(-29.33)"/><rect class="cls-21" x="20.54" y="153.23" width="44.52" height="1.13" transform="matrix(0.87, -0.49, 0.49, 0.87, -69.85, 40.68)"/><rect class="cls-21" x="18.6" y="149.78" width="44.52" height="1.13" transform="translate(-68.41 39.29) rotate(-29.33)"/><polygon class="cls-23" points="112.45 66.81 109.29 104.92 108.28 117.17 87 115.41 84.87 115.22 85.32 109.78 89.04 64.86 108.64 66.48 112.45 66.81"/><path class="cls-24" d="M99.82,76.94A14,14,0,0,1,109,81.39l1-12.51L91.11,67.31l-1,12.51A14,14,0,0,1,99.82,76.94Z"/><path class="cls-24" d="M107.24,102.2a14,14,0,0,1-18.89-1.56l-1,12.51,18.89,1.56Z"/><path class="cls-24" d="M105.34,90.91c-.09-2.06-1.16-3.89-3.44-4.08-2.11-.17-3.21,1.14-4.17,3.45L94,90a2.2,2.2,0,0,1,2.09-1.6l.21-2.51c-2.39,0-3.77,1.52-4.18,4l-1.45-.12-.12,1.52,1.45.12c0,2.34,1.18,4.17,3.32,4.35s3.32-.88,4.47-3.7l3.58.29a2,2,0,0,1-2,1.31l-.21,2.5a4.08,4.08,0,0,0,4.13-3.65l1.45.12.12-1.52Zm-10,2.23a1.55,1.55,0,0,1-1.51-1.66l3.47.29C96.75,92.91,96.11,93.21,95.31,93.14Zm4.87-2.66A1.67,1.67,0,0,1,102,89.29a1.55,1.55,0,0,1,1.48,1.46Z"/><path class="cls-24" d="M99.25,83.91a1.84,1.84,0,1,1,2-1.69A1.85,1.85,0,0,1,99.25,83.91Z"/><path class="cls-24" d="M97.77,101.79a1.84,1.84,0,1,1,2-1.68A1.84,1.84,0,0,1,97.77,101.79Z"/><polygon class="cls-25" points="109.29 104.92 108.28 117.17 87 115.41 85.32 109.78 89.04 64.86 108.64 66.48 108.68 68.77 108.89 81.31 109.29 104.92"/><polygon class="cls-23" points="108.99 115.72 108.92 115.72 85.51 116.38 84.08 65.86 103.54 65.31 107.56 65.2 108.99 115.72"/><path class="cls-24" d="M96.14,76.67a14.07,14.07,0,0,1,9.57,3.41l-.35-12.55-19,.54.36,12.55A14.05,14.05,0,0,1,96.14,76.67Z"/><path class="cls-24" d="M106.31,101a14.07,14.07,0,0,1-19,.54l.35,12.55,19-.54Z"/><path class="cls-24" d="M104.61,89.9l-1.45,0c-.32-2-1.58-3.73-3.86-3.67-2.13.06-3.07,1.49-3.77,3.89l-3.78.11a2.23,2.23,0,0,1,1.91-1.83l-.07-2.51c-2.38.26-3.58,1.93-3.71,4.39l-1.46,0,0,1.53,1.45,0c.29,2.32,1.64,4,3.78,4s3.2-1.25,4-4.17l3.6-.11a2,2,0,0,1-1.9,1.53l.07,2.51a4.09,4.09,0,0,0,3.7-4.09l1.46,0ZM93.44,93.27a1.55,1.55,0,0,1-1.68-1.48l3.48-.09C94.85,92.88,94.24,93.25,93.44,93.27ZM98,90.09c.31-.9.74-1.36,1.67-1.39A1.56,1.56,0,0,1,101.3,90Z"/><path class="cls-24" d="M96.33,83.66a1.84,1.84,0,1,1,1.79-1.89A1.84,1.84,0,0,1,96.33,83.66Z"/><path class="cls-24" d="M96.84,101.6a1.84,1.84,0,1,1,1.79-1.89A1.84,1.84,0,0,1,96.84,101.6Z"/><polygon class="cls-25" points="108.92 115.72 85.51 116.38 84.08 65.86 103.54 65.31 103.78 67.58 105.06 79.55 108.92 115.72"/><polygon class="cls-23" points="107.26 114.86 83.89 117.28 78.66 67.03 95.58 65.27 102.03 64.59 107.1 113.28 107.26 114.86"/><path class="cls-24" d="M91.5,76.9a14,14,0,0,1,9.81,2.67L100,67.08l-18.86,2,1.3,12.48A14,14,0,0,1,91.5,76.9Z"/><path class="cls-24" d="M103.47,100.35a14.08,14.08,0,0,1-18.86,2l1.3,12.48,18.86-2Z"/><path class="cls-24" d="M101,89.45l-1.45.15c-.47-2-1.85-3.61-4.13-3.37-2.11.22-3,1.71-3.46,4.16l-3.76.39a2.23,2.23,0,0,1,1.76-2l-.26-2.5c-2.35.43-3.42,2.19-3.37,4.65l-1.44.15L85,92.64l1.44-.15c.46,2.29,1.94,3.88,4.07,3.66s3.1-1.48,3.71-4.47l3.57-.37A2,2,0,0,1,96,93l.26,2.5a4.08,4.08,0,0,0,3.38-4.35l1.45-.15Zm-10.89,4.2a1.55,1.55,0,0,1-1.79-1.35l3.47-.36C91.43,93.15,90.86,93.57,90.06,93.65Zm4.3-3.52c.24-.92.63-1.41,1.56-1.51a1.56,1.56,0,0,1,1.73,1.17Z"/><path class="cls-24" d="M92.22,83.85a1.84,1.84,0,1,1,1.64-2A1.84,1.84,0,0,1,92.22,83.85Z"/><path class="cls-24" d="M94.08,101.7a1.84,1.84,0,1,1,1.64-2A1.84,1.84,0,0,1,94.08,101.7Z"/><polygon class="cls-25" points="107.26 114.86 83.89 117.28 78.66 67.03 95.58 65.27 96.12 67.48 98.64 78.03 107.1 113.28 107.26 114.86"/><rect class="cls-23" x="77.16" y="66.98" width="23.49" height="50.53" transform="translate(198.09 159.28) rotate(165.49)"/><path class="cls-24" d="M85.37,78.58a14,14,0,0,1,10.1,1.18L92.32,67.61,74,72.35l3.15,12.16A14,14,0,0,1,85.37,78.58Z"/><path class="cls-24" d="M100.7,100a14,14,0,0,1-18.35,4.75l3.14,12.15,18.35-4.74Z"/><path class="cls-24" d="M82.69,94.76l-1.4.36-.39-1.48,1.41-.36c-.42-2.43.38-4.33,2.64-5.11l.63,2.44a2.22,2.22,0,0,0-1.45,2.2l3.66-1c.14-2.5.75-4.09,2.8-4.63,2.22-.57,3.82.8,4.59,2.72l1.4-.36L97,91.06l-1.41.37a4.08,4.08,0,0,1-2.7,4.81l-.63-2.43a2,2,0,0,0,1.51-1.91l-3.48.9c-.15,3-1,4.45-3,5S83.49,97,82.69,94.76Zm7.48-3.51,3.21-.83a1.56,1.56,0,0,0-1.89-.9C90.59,89.75,90.27,90.3,90.17,91.25Zm-5.69,3a1.54,1.54,0,0,0,2,1.06c.77-.2,1.28-.69,1.4-1.94Z"/><path class="cls-24" d="M87.12,85.34a1.84,1.84,0,1,1,1.32-2.24A1.83,1.83,0,0,1,87.12,85.34Z"/><path class="cls-24" d="M91.62,102.72a1.84,1.84,0,1,1,1.32-2.25A1.85,1.85,0,0,1,91.62,102.72Z"/><path class="cls-6" d="M47,177.86l.79-2.87-2-4.22-3-1.08-9.55,1.38-12,6.54-8.24,10.47,5.48,17.25a27.59,27.59,0,0,0,6.45,3.86l.35.12,6.11-2.57,4.8-.65,4.79-2L48,201.19,49.12,199l.33-3.1-.73-1.28-.07-.12,1.75-3.27-.5-3-1.37-1.72,1.23-2.74-1.09-3.92v-.05l-.85-.93Z"/><polygon class="cls-4" points="47.81 178.79 36.47 180.71 24.78 186.58 36.12 179.61 46.95 177.87 47.81 178.79"/><polygon class="cls-4" points="49.91 188.16 38.3 189.16 30.12 192.54 38.28 187.84 48.53 186.44 49.91 188.16"/><polygon class="cls-4" points="48.72 194.59 48.45 194.58 39.4 195.49 34.07 198.35 39.43 196.63 49.45 195.87 48.72 194.59"/><path class="cls-4" d="M48.61,200c-2.2.57-8.35,2.27-8.35,2.27L36,205.44l-4.69,1.3,4.61.1,3.86-2.11s5.53-2.09,8.06-3.1Z"/><path class="cls-6" d="M105.33,108.39l1.68-2.46-.54-4.64-2.5-2-9.47-1.8L81,99.75,69.82,107l-.44,18.09a27.52,27.52,0,0,0,4.85,5.75l.29.23,6.62-.44,4.74,1,5.17-.3,7.7-.45,1.75-1.74,1.32-2.83-.27-1.45,0-.14,2.71-2.52.52-3L104,117l2-2.19.25-4.07v0l-.5-1.16Z"/><polygon class="cls-4" points="105.84 109.55 94.48 107.67 81.52 109.42 94.52 106.52 105.33 108.39 105.84 109.55"/><polygon class="cls-4" points="104.77 119.08 93.46 116.25 84.63 116.78 93.88 115 104.03 117.01 104.77 119.08"/><polygon class="cls-4" points="101.55 124.78 101.3 124.68 92.45 122.6 86.48 123.57 92.1 123.69 101.82 126.23 101.55 124.78"/><path class="cls-4" d="M99.67,129.9c-2.26-.17-8.64-.57-8.64-.57l-5,1.57-4.85-.3,4.32,1.59,4.33-.73s5.92-.17,8.63-.31Z"/><polygon class="cls-4" points="367.44 181.39 368.27 186.41 369.12 197.35 370.95 201.75 370.36 202.7 365.18 211.05 376.19 216.3 376.24 216.26 381.53 211.55 383.32 209.96 389.23 204.72 382.4 197.5 376.8 189.26 375.81 181.87 373.95 179.77 373.29 179.04 372.26 177.87 369.1 177.85 367.44 181.39"/><path class="cls-5" d="M371.2,183.76c-.9,3-1.15,11.77,2.91,17.26a52.87,52.87,0,0,0,9.21,8.94l5.91-5.24-6.83-7.22-5.6-8.24-1-7.39-1.86-2.1-.66-.73A24.22,24.22,0,0,0,371.2,183.76Z"/><path class="cls-6" d="M373.87,214.64l2.37,1.62,2.84,1.92,3.57-3.33,1.89-.72,7.56-2.84c2.41-.9,4.6-1.72,5.67-2.1a2.35,2.35,0,0,1,.37-.14L382,203.47l-.23.65-.88,2.48-.65.75-1.55,1.79Z"/><path class="cls-5" d="M380.19,207.35a38.89,38.89,0,0,0,11.91,3.94c2.41-.9,4.6-1.72,5.67-2.1a2.35,2.35,0,0,1,.37-.14L382,203.47l-.23.65-.88,2.48Z"/><path class="cls-5" d="M365.19,211.05l11,5.25,0,0,2.85,1.92,3.56-3.33,1.89-.71c-.82-.71-1.83-1.59-3-2.59-.88-.75-1.86-1.56-2.89-2.41-2.52-2.06-5.41-4.34-8.28-6.44Z"/><polygon class="cls-4" points="362.34 305 367.1 311.94 373.51 311.57 380.86 305.83 381.43 305.7 387.74 304.25 391.25 300.73 391.02 297.94 387.55 296.8 382.87 298.01 372.61 299.81 370.07 301.1 362.34 305"/><path class="cls-5" d="M362.34,305l4.76,6.93,6.41-.36,7.35-5.74.57-.13c-1.17-.14-2.41-.28-2.86-.28-.74,0-5-2.93-8.5-4.33Z"/><path class="cls-7" d="M364.12,315.92,391.18,317l6.07.25,2-1.2.56.37,11.56-5.63,7.48-11.07,1.81-2.67-.44-3.47-2.58-1.48L414.12,294l-9.18,10.45-1.73.87-7,3.49-1.62-.26c-5.33-.93-14.92-2.88-20.22-1.48C367.29,308.92,364.12,315.92,364.12,315.92Z"/><path class="cls-5" d="M381.62,310.17l9.12,6.69.44.18,6.07.25,2-1.2.56.37,11.56-5.63,7.48-11.07-.4-.47-.28-2.19-4.16-.05-8.31,7.12-2.53,1.13-7,3.49-1.62-.26Z"/><polygon class="cls-6" points="391.02 313.1 396.64 318.31 409.13 314.57 417.27 305.81 418.42 304.56 420.35 302.48 420.48 298.98 418.21 297.11 414.45 298.37 403.5 307.24 398.46 309.61 391.02 313.1"/><polygon class="cls-5" points="391.02 313.1 396.64 318.31 409.13 314.57 417.27 305.81 416.42 304.81 411.3 303.62 403.07 308.5 398.46 309.61 391.02 313.1"/><path class="cls-3" d="M415.93,262.75v44a2.8,2.8,0,0,1-2.81,2.8h-46.9a2.81,2.81,0,0,1-2.82-2.8v-44a2.81,2.81,0,0,1,2.82-2.8h46.9A2.8,2.8,0,0,1,415.93,262.75Z"/><path class="cls-26" d="M366,259.94h47.41a2.55,2.55,0,0,1,2.55,2.55v9.58a0,0,0,0,1,0,0H363.41a0,0,0,0,1,0,0V262.5A2.55,2.55,0,0,1,366,259.94Z"/><g class="cls-27"><rect class="cls-21" x="369.32" y="268.75" width="1.58" height="6.26" rx="0.51"/><rect class="cls-21" x="377.36" y="268.75" width="1.58" height="6.26" rx="0.51"/><rect class="cls-21" x="385.41" y="268.75" width="1.58" height="6.26" rx="0.51"/><rect class="cls-21" x="393.45" y="268.75" width="1.58" height="6.26" rx="0.51"/><rect class="cls-21" x="401.5" y="268.75" width="1.58" height="6.26" rx="0.51"/><rect class="cls-21" x="409.54" y="268.75" width="1.58" height="6.26" rx="0.51"/></g><text class="cls-28" transform="translate(375.97 300.4)">27</text><path class="cls-21" d="M415.93,298.73v8a2.8,2.8,0,0,1-2.81,2.8h-8l1.32-2.18,4.06-5.29Z"/><polygon class="cls-29" points="415.93 298.73 415.93 301.74 406.54 309.53 405.12 309.53 406.44 307.35 410.5 302.06 415.93 298.73"/><path class="cls-26" d="M415.93,298.73h-9.09a1.72,1.72,0,0,0-1.71,1.72v9.09Z"/><rect class="cls-30" x="368.77" y="268.75" width="1.58" height="6.26" rx="0.51"/><rect class="cls-30" x="376.81" y="268.75" width="1.58" height="6.26" rx="0.51"/><rect class="cls-30" x="384.86" y="268.75" width="1.58" height="6.26" rx="0.51"/><rect class="cls-30" x="392.9" y="268.75" width="1.58" height="6.26" rx="0.51"/><rect class="cls-30" x="400.95" y="268.75" width="1.58" height="6.26" rx="0.51"/><rect class="cls-30" x="408.99" y="268.75" width="1.58" height="6.26" rx="0.51"/><polygon class="cls-6" points="360.39 304.09 357.28 319.15 389.32 324.91 408.62 315.8 417.99 308.68 418.12 306.55 416.37 304.43 412.05 305.01 405.52 309.24 394.74 312.43 383.68 309.87 376.57 306.18 368.04 303.63 360.39 304.09"/><polygon class="cls-13" points="346.92 318.54 348.82 318.94 352.75 319.79 358.4 321 363.03 299.25 358.86 298.27 350.61 296.37 349.32 304.14 346.92 318.54"/><polygon class="cls-14" points="348.82 318.94 352.75 319.79 358.86 298.27 350.61 296.37 349.32 304.14 348.82 318.94"/><polygon class="cls-4" points="310.66 114.41 313.09 118.89 317.45 128.94 320.61 132.51 320.36 133.6 318.19 143.19 330.31 144.56 330.34 144.5 333.81 138.34 334.98 136.25 338.86 129.37 330.06 124.77 322.08 118.8 318.74 112.14 316.29 110.75 315.43 110.28 314.07 109.5 311.08 110.52 310.66 114.41"/><path class="cls-5" d="M315,115.42c.13,3.13,2.75,11.5,8.37,15.37A53.19,53.19,0,0,0,335,136.24l3.88-6.88-8.8-4.6-8-6-3.34-6.66-2.45-1.38-.86-.48A24.35,24.35,0,0,0,315,115.42Z"/><path class="cls-6" d="M327.57,143.75l2.77.75,3.31.89,2.29-4.31,1.55-1.29,6.23-5.15c2-1.63,3.79-3.12,4.67-3.83a3.88,3.88,0,0,1,.31-.26H331.57v.69l0,2.63-.37.92-.88,2.2Z"/><path class="cls-5" d="M331.17,134.79a38.84,38.84,0,0,0,12.55-.15c2-1.63,3.79-3.12,4.67-3.83a3.88,3.88,0,0,1,.31-.26H331.57v.69l0,2.63Z"/><path class="cls-5" d="M318.19,143.18l12.12,1.38,0-.05,3.31.89,2.29-4.31s.6-.51,1.55-1.29c-1-.4-2.25-.91-3.68-1.47-1.08-.42-2.27-.87-3.52-1.33-3.06-1.13-6.52-2.35-9.93-3.4Z"/><polygon class="cls-13" points="313.39 149.28 335.28 154.34 336.9 148.56 338.46 143.03 317.03 137.06 316.01 140.49 313.39 149.28"/><polygon class="cls-14" points="313.39 149.28 335.28 154.34 336.9 148.56 316.01 140.49 313.39 149.28"/><polygon class="cls-13" points="356.11 213.38 375.79 226.18 379.79 221.44 383.33 217.26 364.88 204.84 362.14 207.5 356.11 213.38"/><polygon class="cls-14" points="356.11 213.38 375.79 226.18 379.79 221.44 362.14 207.5 356.11 213.38"/><polygon class="cls-15" points="231.95 237.56 244.19 251.68 246.99 254.91 252.35 261.08 262.07 254.78 296.82 232.28 320.75 216.76 333.34 167.51 334.29 163.81 335.29 159.91 336.23 156.22 337.76 150.24 313.78 143.65 297.15 199.19 269.43 211.6 241.64 224.04 233.25 227.81 231.95 237.56"/><g class="cls-16"><path class="cls-17" d="M333.39,160.3a2.75,2.75,0,0,0,1.9-.4l.94-3.69a2.77,2.77,0,1,0-2.84,4.09Z"/><path class="cls-17" d="M331.46,167.9a2.76,2.76,0,0,0,1.88-.39l1-3.71a2.77,2.77,0,1,0-2.83,4.1Z"/></g><path class="cls-18" d="M247,254.9l15.08-.12,34.75-22.51L269.43,211.6,241.64,224l2.55,27.63Z"/><polygon class="cls-15" points="231.5 244.41 255.36 276.33 267.51 292.57 279.14 308.14 332.9 317.71 337.93 318.62 340.61 319.1 345.66 320 350.97 320.94 355.63 296.11 296.47 281.93 291.47 272.25 283.33 256.51 266.25 223.49 262.11 215.49 257.02 215.09 251.63 214.69 231.5 244.41"/><g class="cls-16"><path class="cls-17" d="M340.86,319.18l5.05.9a2.75,2.75,0,0,0,.43-1.27,2.77,2.77,0,0,0-5.53-.44A3.1,3.1,0,0,0,340.86,319.18Z"/><path class="cls-17" d="M333.09,317a2.79,2.79,0,0,0,.06.82l5,.9a2.77,2.77,0,1,0-5.09-1.72Z"/></g><polygon class="cls-18" points="248.74 239.93 250.99 257.93 291.47 272.25 283.33 256.51 248.74 239.93"/><polygon class="cls-18" points="255.36 276.33 267.51 292.57 266.25 223.49 262.11 215.49 257.02 215.09 255.36 276.33"/><polygon class="cls-15" points="249.63 252.06 255.71 254.38 267.04 258.7 328.27 282.06 368.31 236.16 370.93 233.15 373.64 230.04 375.9 227.46 379.9 222.87 358.88 208.75 317.32 249.38 266.44 215.53 263.61 213.66 256.49 216.56 254.18 217.51 249.63 252.06"/><g class="cls-16"><path class="cls-17" d="M371.61,229.62a2.75,2.75,0,0,0,2,.42l2.26-2.59a2.73,2.73,0,0,0-1.22-2.44,2.77,2.77,0,1,0-3.07,4.61Z"/><path class="cls-17" d="M366.65,235.7a2.65,2.65,0,0,0,1.66.45l2.62-3a2.77,2.77,0,1,0-4.28,2.56Z"/></g><polygon class="cls-18" points="255.71 254.38 267.04 258.7 266.44 215.53 263.61 213.66 256.49 216.56 255.71 254.38"/><circle class="cls-31" cx="334.31" cy="156.56" r="2.77" transform="translate(-22.87 63.28) rotate(-10.46)"/><circle class="cls-19" cx="332.38" cy="164.17" r="2.77" transform="translate(-17.25 40.93) rotate(-6.87)"/><path class="cls-19" d="M344.79,315.66a2.77,2.77,0,1,0,2.55,3A2.77,2.77,0,0,0,344.79,315.66Z"/><path class="cls-19" d="M337.07,314.27a2.77,2.77,0,1,0,2.54,3A2.77,2.77,0,0,0,337.07,314.27Z"/><path class="cls-19" d="M371.84,224.79a2.77,2.77,0,1,0,3.84-.77A2.77,2.77,0,0,0,371.84,224.79Z"/><path class="cls-19" d="M366.87,230.87a2.77,2.77,0,1,0,3.85-.78A2.77,2.77,0,0,0,366.87,230.87Z"/><rect class="cls-3" x="347.83" y="117.62" width="58.79" height="81.12" transform="translate(131.19 -168.6) rotate(30.27)"/><rect class="cls-21" x="338.29" y="186.18" width="44.52" height="1.13" transform="translate(143.31 -156.3) rotate(30.27)"/><rect class="cls-21" x="340.29" y="182.76" width="44.52" height="1.13" transform="translate(141.86 -157.77) rotate(30.27)"/><rect class="cls-21" x="342.28" y="179.34" width="44.52" height="1.13" transform="translate(140.41 -159.24) rotate(30.27)"/><rect class="cls-21" x="344.28" y="175.93" width="44.52" height="1.13" transform="translate(138.96 -160.71) rotate(30.27)"/><rect class="cls-21" x="346.27" y="172.51" width="44.52" height="1.13" transform="translate(137.51 -162.18) rotate(30.27)"/><rect class="cls-32" x="357.87" y="147.93" width="5.31" height="10.65" transform="translate(126.43 -160.85) rotate(30.27)"/><rect class="cls-32" x="367.27" y="144.43" width="5.31" height="18.98" transform="translate(128.04 -165.5) rotate(30.27)"/><rect class="cls-32" x="373.36" y="153.15" width="5.31" height="14.2" transform="translate(132.06 -167.71) rotate(30.27)"/><rect class="cls-32" x="383.03" y="148.63" width="5.31" height="23.62" transform="translate(133.48 -172.56) rotate(30.27)"/><rect class="cls-32" x="391.47" y="148.69" width="5.31" height="28.12" transform="translate(135.8 -176.49) rotate(30.27)"/><polygon class="cls-33" points="391.44 177.98 352.63 155.32 369.03 127.22 369.76 127.65 353.79 155.02 391.87 177.25 391.44 177.98"/><rect class="cls-26" x="376.94" y="133.78" width="26" height="5.23" transform="translate(121.94 -177.98) rotate(30.27)"/><rect class="cls-26" x="384.47" y="128.95" width="17.57" height="3.53" transform="translate(119.53 -180.42) rotate(30.27)"/><path class="cls-6" d="M375.67,177.86l-.79-2.87,2-4.22,3-1.08,9.55,1.38,12,6.54,8.24,10.47-5.48,17.25a27.59,27.59,0,0,1-6.45,3.86l-.35.12-6.11-2.57-4.8-.65-4.79-2-7.14-2.93L373.5,199l-.33-3.1.73-1.28.07-.12-1.75-3.27.5-3,1.37-1.72-1.23-2.74,1.09-3.92v-.05l.85-.93Z"/><polygon class="cls-4" points="374.81 178.79 386.15 180.71 397.84 186.58 386.5 179.61 375.67 177.87 374.81 178.79"/><polygon class="cls-4" points="372.71 188.16 384.32 189.16 392.5 192.54 384.33 187.84 374.08 186.44 372.71 188.16"/><polygon class="cls-4" points="373.9 194.59 374.17 194.58 383.22 195.49 388.55 198.35 383.19 196.63 373.17 195.87 373.9 194.59"/><path class="cls-4" d="M374,200c2.2.57,8.35,2.27,8.35,2.27l4.26,3.13,4.69,1.3-4.61.1-3.86-2.11s-5.54-2.09-8.06-3.1Z"/><path class="cls-34" d="M341.89,81V68l-6.33-3.64V76.73l-4.9,2.82-4.9-2.82V64.35L319.44,68V81l6.38,3.68v55.63L319.44,144v13l11.22,6.48,11.23-6.48V144l-6.38-3.68V84.64Zm-6.33,66.65v5.65l-4.9,2.83-4.9-2.83v-5.65l4.9-2.84Z"/><polygon class="cls-35" points="335.51 84.64 335.51 140.27 341.89 143.95 341.89 156.92 330.66 163.4 330.66 156.09 335.56 153.26 335.56 147.61 330.66 144.77 330.66 79.55 335.56 76.73 335.56 64.35 341.89 67.99 341.89 80.96 335.51 84.64"/><path class="cls-6" d="M317.29,108.39l-1.68-2.46.54-4.64,2.5-2,9.47-1.8,13.48,2.27L352.8,107l.44,18.09a27.52,27.52,0,0,1-4.85,5.75l-.29.23-6.62-.44-4.74,1-5.17-.3-7.71-.45-1.74-1.74-1.32-2.83.27-1.45,0-.14-2.71-2.52-.53-3,.74-2.07-2-2.19-.25-4.07v0l.5-1.16Z"/><polygon class="cls-4" points="316.78 109.55 328.14 107.67 341.1 109.42 328.1 106.52 317.3 108.39 316.78 109.55"/><polygon class="cls-4" points="317.86 119.08 329.16 116.25 337.99 116.78 328.74 115 318.59 117.01 317.86 119.08"/><polygon class="cls-4" points="321.07 124.78 321.32 124.68 330.17 122.6 336.14 123.57 330.52 123.69 320.8 126.23 321.07 124.78"/><path class="cls-4" d="M323,129.9c2.26-.17,8.64-.57,8.64-.57l5,1.57,4.85-.3-4.32,1.59-4.33-.73s-5.92-.17-8.63-.31Z"/><polygon class="cls-15" points="155.63 354.35 161.09 306.83 158.58 213.66 161.56 212.38 166.11 210.44 180.35 204.34 183.01 203.21 200.17 200.01 211.31 201.78 222.45 200.01 239.61 203.21 242.27 204.34 256.51 210.44 261.06 212.38 264.04 213.66 261.53 306.83 266.99 354.35 155.63 354.35"/><polygon class="cls-18" points="235.41 235.18 245.41 259.18 211.57 288.2 211.57 288.65 211.31 288.43 211.05 288.65 211.05 288.2 177.21 259.18 187.21 235.18 161.56 212.38 166.11 210.44 180.35 204.34 183.01 203.21 200.17 200.01 211.31 201.78 222.45 200.01 239.61 203.21 242.27 204.34 256.51 210.44 261.06 212.38 235.41 235.18"/><rect class="cls-18" x="210.35" y="273.66" width="1.92" height="80.69"/><polygon class="cls-19" points="211.25 220.93 211.25 288.65 179.32 252.97 186.14 233.66 166.11 210.44 180.35 204.34 194.09 204.56 211.25 220.93"/><polygon class="cls-19" points="236.48 233.66 243.3 252.97 211.37 288.65 211.37 220.93 228.53 204.56 242.27 204.34 256.51 210.44 236.48 233.66"/><polygon class="cls-13" points="242.27 204.34 231.04 234.93 219.86 265.37 211.31 288.65 202.76 265.37 185.3 217.84 180.35 204.34 183.01 203.21 200.17 200.01 211.31 201.78 222.45 200.01 239.61 203.21 242.27 204.34"/><path class="cls-14" d="M242.27,204.34,231,234.92a144.86,144.86,0,0,1-20.84-2.75c-9.06-1.86-18-8.14-24.9-14.34l-5-13.49L183,203.2,200.17,200l11.14,1.76L222.45,200l17.16,3.19Z"/><polygon class="cls-36" points="219.86 265.37 211.31 288.65 202.76 265.37 205.61 230.87 205.75 229.12 208.8 226.53 211.31 226.68 213.82 226.53 216.87 229.12 217.23 233.44 219.86 265.37"/><path class="cls-37" d="M217.23,233.44c-2.23-.35-4.58-.77-7-1.27a33.55,33.55,0,0,1-4.59-1.31l.14-1.75,3.05-2.59,2.51.15,2.51-.15,3.05,2.59Z"/><path class="cls-38" d="M244.14,121.32v32.39H178.47V121.32c0-12.75,9.92-23.1,22.13-23.1H222a21,21,0,0,1,9,2A23.1,23.1,0,0,1,244.14,121.32Z"/><path class="cls-6" d="M233.18,200s-9,10-17.11,10h-9.52c-8.11,0-17.11-10-17.11-10a52,52,0,0,0,2.3-10.28c1.42-9.66,2.1-21.43,2.1-21.43l15.71-.16v0h3.52v0l15.71.16s1.38,23.79,4.32,31.48A2.09,2.09,0,0,1,233.18,200Z"/><path class="cls-5" d="M233.1,199.76c-25.43.11-36.68-6-41.36-10,1.42-9.66,2.1-21.43,2.1-21.43l15.71-.16v0h3.52v0l15.71.16S230.16,192.07,233.1,199.76Z"/><path class="cls-4" d="M185.08,146.46s-2.57-6.4-6.83-6.35-5,9.47-1.53,14.71a15.15,15.15,0,0,0,8.11,6.4Z"/><path class="cls-4" d="M237.54,146.46s2.57-6.4,6.83-6.35,5,9.47,1.53,14.71a15.15,15.15,0,0,1-8.11,6.4Z"/><path class="cls-6" d="M239,129.64V168.1S223.67,191,218.1,191H204.52c-5.57,0-20.88-22.85-20.88-22.85V129.64c0-10.63,8.35-19.25,18.64-19.25h18.06C230.63,110.39,239,119,239,129.64Z"/><g class="cls-16"><rect class="cls-17" x="169.63" y="304.51" width="26.93" height="4.09"/><rect class="cls-17" x="226.05" y="304.51" width="26.93" height="4.09"/></g><g class="cls-16"><path class="cls-17" d="M220.86,300.56a2.77,2.77,0,1,1-2.77-2.77A2.77,2.77,0,0,1,220.86,300.56Z"/><path class="cls-17" d="M220.86,320.87a2.77,2.77,0,1,1-2.77-2.77A2.77,2.77,0,0,1,220.86,320.87Z"/><path class="cls-17" d="M220.86,341.18a2.77,2.77,0,1,1-2.77-2.77A2.77,2.77,0,0,1,220.86,341.18Z"/></g><path class="cls-5" d="M239,129.64v12.5a52.21,52.21,0,0,1-20.86-13.47c-8.44,9-26.78,13-34.48,14.29V129.64c0-10.63,8.35-19.25,18.64-19.25h18.06C230.63,110.39,239,119,239,129.64Z"/><polygon class="cls-38" points="182.38 132.12 182.38 149.93 185.3 149.93 187.24 148.7 187.24 132.32 182.38 132.12"/><polygon class="cls-38" points="235.38 132.12 235.38 149.93 238.3 149.93 240.24 148.7 240.24 132.32 235.38 132.12"/><path class="cls-38" d="M244.15,121.31v15.63a38.28,38.28,0,0,1-22-17.2,28.18,28.18,0,0,1-1.95-3.76l-3.3-8.69-3.46-9.08H222a21,21,0,0,1,9,2,22.72,22.72,0,0,1,13.12,21.08Z"/><path class="cls-39" d="M233.84,101.79c-2.86,7.89-9.07,15.12-11.68,17.95a28.18,28.18,0,0,1-1.95-3.76l-3.3-8.69,3.18-9.08H222a21,21,0,0,1,9,2A23.35,23.35,0,0,1,233.84,101.79Z"/><path class="cls-38" d="M230.6,100.13c.14-1.27,0-2.56-1-2.85a4.84,4.84,0,0,0-3.92.69s-2.54-3.18-4-2.57c-.88.36-.59,1.75-.22,2.82H200.6c-12.21,0-22.13,10.82-22.13,24.15v16.1h1.08c35.26-2.89,48-28.67,51.48-38.14Z"/><polygon class="cls-36" points="216.83 229.11 221.35 220.39 221.35 210.07 201.27 210.07 201.27 220.39 205.79 229.11 216.83 229.11"/><polygon class="cls-13" points="183.13 203.21 189.5 198.95 211.19 209.77 199.12 227.47 183.13 203.21"/><polygon class="cls-13" points="239.49 203.21 233.12 198.95 211.43 209.77 223.5 227.47 239.49 203.21"/><path class="cls-19" d="M219.36,299.56a2.77,2.77,0,1,1-2.77-2.77A2.77,2.77,0,0,1,219.36,299.56Z"/><path class="cls-19" d="M219.36,319.87a2.77,2.77,0,1,1-2.77-2.77A2.77,2.77,0,0,1,219.36,319.87Z"/><path class="cls-19" d="M219.36,340.18a2.77,2.77,0,1,1-2.77-2.77A2.77,2.77,0,0,1,219.36,340.18Z"/><path class="cls-40" d="M14,148.6c-.37-.91-.81-1.94-.81-1.94l-1.11.36a10.51,10.51,0,0,0,.39,1.54c.06.14.17.36.3.62A3.36,3.36,0,0,0,14,148.6Z"/><path class="cls-41" d="M14.15,152.41h.79a15.52,15.52,0,0,0-.58-2.87c-.09-.25-.23-.58-.38-.94a3.36,3.36,0,0,1-1.23.58C13.13,150,14.15,152.41,14.15,152.41Z"/><path class="cls-40" d="M15.38,147.84l-1.17-1.74.92-.73a10.65,10.65,0,0,1,1.07,1.18c.08.12.2.33.34.58A3.12,3.12,0,0,1,15.38,147.84Z"/><path class="cls-41" d="M18.48,150.08s-.15.42-.45.51l-.29.1a20.86,20.86,0,0,1-1.78-2l-.58-.84a3.12,3.12,0,0,0,1.16-.71c.34.6.8,1.42,1.11,1.86C18.08,149.61,18.48,150.08,18.48,150.08Z"/><path class="cls-42" d="M8.54,138s.19.34.31.6.23.43.23.43,1-.37.9-.75a2.78,2.78,0,0,0-.49-.8Z"/><path class="cls-40" d="M9.65,136.57c-.12-.12-.21,0-.21,0a.94.94,0,0,0-1.26-.44,1,1,0,0,0-.3,1.27s-.09,0-.09.16a.3.3,0,0,0,.34.25,1,1,0,0,0,1.15.35A1,1,0,0,0,9.62,137,.32.32,0,0,0,9.65,136.57Z"/><path class="cls-40" d="M8,140.84a3.58,3.58,0,0,0,.08.81c.2.81,0,1.79.18,2.56a3,3,0,0,0,.57,1.27,1.64,1.64,0,0,0,1,.45.83.83,0,0,0,.8-.43c.08-.13.13-.33-.58-.19a1.42,1.42,0,0,1-1-.42,4.37,4.37,0,0,1-.15-1.42c0-.2,0-.53,0-.85a9.87,9.87,0,0,0-.07-1.56Z"/><path class="cls-41" d="M9.61,138.81a1.76,1.76,0,0,0,.69-.85l-.42.12c0,.33-.76.75-1,.55l-.24.26A1.1,1.1,0,0,0,9.61,138.81Z"/><path class="cls-41" d="M13.11,142.86l-1.95,1a6.15,6.15,0,0,0,.21,1.38,18.59,18.59,0,0,0,1.2,2.67,1.14,1.14,0,0,0,.41-.12,3.5,3.5,0,0,0,.76-.51l-.58-2,1.34,1.58a2,2,0,0,0,.89-.38,3.22,3.22,0,0,0,.32-.32,20,20,0,0,0-1.56-2.44A6,6,0,0,0,13.11,142.86Z"/><path class="cls-43" d="M11.16,143.91l-.53.29a13.74,13.74,0,0,0,.73,2.11c.4.82.75,1.67.75,1.67a3.08,3.08,0,0,0,.46,0,18.59,18.59,0,0,1-1.2-2.67A6.15,6.15,0,0,1,11.16,143.91Z"/><path class="cls-43" d="M15.3,144.72a20.52,20.52,0,0,0-1.66-2.15l-.53.29a6,6,0,0,1,1,.92,20,20,0,0,1,1.56,2.44,3.65,3.65,0,0,0,.23-.31A11.35,11.35,0,0,0,15.3,144.72Z"/><path class="cls-41" d="M7.93,141.5a2.75,2.75,0,0,1,0,.38,2.06,2.06,0,0,0,.69.06.86.86,0,0,0,.42-.2v-.28a2.6,2.6,0,0,1-.57.14A.89.89,0,0,1,7.93,141.5Z"/><path class="cls-43" d="M13,138.59c-.22-.15-.55-.36-.82-.52a1.75,1.75,0,0,0-1.16-.31l-.75.2a1.76,1.76,0,0,1-.69.85,1.1,1.1,0,0,1-1,.08l-.41.41c-.19.18-.3.32-.35.94a6.78,6.78,0,0,0,.08,1.26.89.89,0,0,0,.56.1,2.6,2.6,0,0,0,.57-.14l0-.75s.55,1,.82,1.45.79,1.25.72,1.46,0,.32.11.35-.07.21.07.33.6-.06.81-.16l1.69-.91c.2-.13.61-.4.58-.59s-.29-.12-.24-.24,0-.22-.23-.28-.61-.94-.82-1.4-.77-1.49-.77-1.49l.51.43a1.23,1.23,0,0,0,.47-.47A3.81,3.81,0,0,0,13,138.59Z"/><path class="cls-41" d="M12.9,139.54a2.66,2.66,0,0,0,.4-.76l-.27-.19a3.81,3.81,0,0,1-.28.6,1.23,1.23,0,0,1-.47.47l.18.15A1.23,1.23,0,0,0,12.9,139.54Z"/><path class="cls-44" d="M9.55,143.14a1,1,0,0,1,.82.55,1.06,1.06,0,0,1-1.8,1.11l.06.13a1.22,1.22,0,1,0,2.15-1.16A1.2,1.2,0,0,0,9.55,143.14Z"/><path class="cls-45" d="M9.94,145.13a1.06,1.06,0,0,0,.43-1.44,1,1,0,0,0-.82-.55,1.28,1.28,0,0,0-.42.13,1.22,1.22,0,0,0-.56,1.53A1.06,1.06,0,0,0,9.94,145.13Z"/><path class="cls-46" d="M8.49,144.46a1,1,0,0,0,0,.22l.17-.24.78.4.19.74.2,0-.17-.74.63-.54.58.3s0-.05,0-.14-.57-.39-.57-.39l-.33-.63.28-.14-.2-.09-.27.15-.94.09-.27.81S8.54,144.37,8.49,144.46Z"/><polygon class="cls-45" points="9.03 143.59 8.86 144.27 9.59 144.64 10.19 144.13 9.87 143.56 9.03 143.59"/><path class="cls-40" d="M14.11,139.45c-.08,0-.5-.25-.88-.51a1.49,1.49,0,0,1-.57.78l.68.27s0,1.17,0,1.43,0,.7-.18,1a.86.86,0,0,0-.22.79c0,.26.23.46.46.25s.16-.35.34-.61a.8.8,0,0,0,.13-.59c0-.22.27-1.13.34-1.61a4.22,4.22,0,0,0,0-.88A.62.62,0,0,0,14.11,139.45Z"/><path class="cls-41" d="M7.83,137.41a1.62,1.62,0,0,1-.3-.31.61.61,0,0,1-.13-.31.26.26,0,0,1-.16-.23c0-.16.17-.16.17-.16a.47.47,0,0,1,0-.37.18.18,0,0,1,.23-.06.35.35,0,0,1,.13-.26.26.26,0,0,1,.23,0,.24.24,0,0,1,.14-.19.28.28,0,0,1,.3,0s0-.13.2-.13a.19.19,0,0,1,.2.17s.06-.19.22-.15.15.3.15.3l.18.34a1.06,1.06,0,0,1,.11.41l-.09.1s-.21-.42-.5-.48a1.17,1.17,0,0,0-1.12.61,1.1,1.1,0,0,0,.17.65Z"/><polygon class="cls-41" points="9.47 140.49 11.34 139.47 11.51 139.78 9.63 140.8 9.47 140.49"/><rect class="cls-41" x="10.73" y="139.34" width="0.54" height="0.13" transform="translate(-64.83 21.91) rotate(-28.33)"/><path class="cls-43" d="M13.87,151.88s.27-.49.67.05c.05.07.35,0,.35,0s.39.31.31.52a5.87,5.87,0,0,1-.39.83c-.17.29,0,.73-.68.82-.34,0-.51-.28-.37-.64A5.14,5.14,0,0,0,13.87,151.88Z"/><path class="cls-41" d="M13.79,154s0-.11.23-.08.21.24.47,0,.2-.35.3-.62a5.19,5.19,0,0,1,.42-.86l0,.2s-.23.49-.32.74-.09.48-.36.65a.63.63,0,0,1-.64.11A.22.22,0,0,1,13.79,154Z"/><path class="cls-3" d="M13.89,152.47v.16a2,2,0,0,1,.37-.08c.22,0,.4,0,.37-.09s-.2-.11-.34-.09A2.46,2.46,0,0,0,13.89,152.47Z"/><path class="cls-3" d="M13.87,152.91s.22-.07.38-.1.29,0,.29.1-.16,0-.3,0a2.74,2.74,0,0,0-.39.12Z"/><path class="cls-41" d="M14.52,153.61a5.33,5.33,0,0,1,.19-.85,1.13,1.13,0,0,1,.33-.41s-.17.36-.24.55A3.88,3.88,0,0,1,14.52,153.61Z"/><path class="cls-43" d="M18.07,149.62s-.55-.05-.32.58c0,.08-.16.32-.16.32s.05.5.27.55a5.81,5.81,0,0,0,.91.13c.33,0,.59.44,1.05-.12.22-.26.05-.58-.33-.66A5.16,5.16,0,0,1,18.07,149.62Z"/><path class="cls-41" d="M19.88,150.71s-.11,0-.2.15.09.3-.25.39-.4,0-.69-.09a5.77,5.77,0,0,0-.95-.12l.14.14s.54.09.8.15.45.19.74,0a.6.6,0,0,0,.44-.47A.22.22,0,0,0,19.88,150.71Z"/><path class="cls-3" d="M18.56,150l.13.08a2.76,2.76,0,0,0-.27.27c-.15.16-.21.34-.28.26s0-.23.1-.33A2.41,2.41,0,0,1,18.56,150Z"/><path class="cls-3" d="M18.93,150.18l-.3.26c-.12.12-.14.26-.07.3s.11-.11.2-.22a1.93,1.93,0,0,1,.31-.26Z"/><path class="cls-41" d="M19.16,151.11a4.48,4.48,0,0,0-.82-.31,1.1,1.1,0,0,0-.52,0l.59.1A3.27,3.27,0,0,0,19.16,151.11Z"/></g></g></g></svg>