<svg xmlns="http://www.w3.org/2000/svg" viewBox="0 0 365.23 363.94"><defs><style>.cls-1{fill:#f2f2f2;opacity:0.24;}.cls-16,.cls-18,.cls-2{fill:#fff;}.cls-3{fill:#cd5b51;}.cls-4{fill:#1a2e35;}.cls-16,.cls-5{opacity:0.2;}.cls-6{opacity:0.3;}.cls-7{fill:#1e1f28;}.cls-8{fill:#ce5b51;}.cls-9{fill:#eaeaea;}.cls-10{fill:#007cff;}.cls-11{fill:#ba221f;}.cls-12{fill:#0bbb72;}.cls-13{fill:#fafafa;}.cls-14{fill:#f3511d;}.cls-15{fill:#161616;}.cls-17{fill:#ffc522;}.cls-18{opacity:0.4;}.cls-19{fill:#87631b;}</style></defs><title>vendor</title><g id="Layer_2" data-name="Layer 2"><g id="OBJECTS"><path class="cls-1" d="M116.9,331.23c-14.51-8.05-62.95-35.79-81.39-89.61-.7-2-16.78-50.23.68-62.93,13.76-10,35.62,11.32,48.56,4.1C110.62,168.39,39.58,48,64.23,28.21,83.81,12.48,140,76.62,186,56.25,214.86,43.46,209.53,10.72,231.82,5,277.41-6.86,373.26,111,349.47,189.63c-5.77,19.07-14,20.8-26.68,54-21.76,57.23-6.74,77-23.25,97.82C268.73,380.3,175.09,363.48,116.9,331.23Z"/><path class="cls-2" d="M88.82,327.1c-14.51-8-62.95-35.78-81.4-89.61-.7-2-16.77-50.23.68-62.93,13.77-10,35.62,11.32,48.57,4.11C82.53,164.26,11.49,43.89,36.15,24.08c19.57-15.73,75.77,48.42,121.75,28C186.78,39.33,181.44,6.6,203.73.82,249.33-11,345.17,106.91,321.39,185.51c-5.78,19.07-14,20.79-26.68,54-21.76,57.22-6.75,77-23.26,97.81C240.64,376.18,147,359.35,88.82,327.1Z"/><polygon class="cls-3" points="178.94 346.23 185.99 343.94 181.61 327.31 174.56 329.6 178.94 346.23"/><path class="cls-4" d="M186.09,343l-7.92,2.57a.52.52,0,0,0-.36.65l1.65,6.4a1.31,1.31,0,0,0,1.64.85c2.74-.94,4-1.53,7.49-2.66,2.14-.7,11.33-3.43,14.29-4.39s1.92-3.86.58-3.72c-6,.64-13.51,1.26-16,.34A2.19,2.19,0,0,0,186.09,343Z"/><polygon class="cls-5" points="174.55 329.61 181.61 327.32 183.87 335.89 176.81 338.18 174.55 329.61"/><path class="cls-4" d="M157.37,161.27s10,60.35,13,81.4c3.25,23.05,16,90.47,16,90.47l-13.09,3.62s-18.69-65.33-24-87.74c-5.75-24.33-18.41-87.75-18.41-87.75Z"/><path class="cls-6" d="M141.3,186c5.12,12.79,5.7,34.53,3.62,43.44-3.14-14.63-6.74-32.13-9.51-45.74C136.4,180.23,138.19,178.24,141.3,186Z"/><polygon class="cls-7" points="172.94 337.02 186.96 333.16 186.69 327.45 170.91 332.9 172.94 337.02"/><path class="cls-7" d="M189,343.42a9.51,9.51,0,0,1-2,.36.17.17,0,0,1-.16-.09.17.17,0,0,1,0-.19c.17-.23,1.73-2.24,2.7-2.18a.64.64,0,0,1,.53.34,1,1,0,0,1,.09,1A2,2,0,0,1,189,343.42Zm-1.58,0c1.34-.16,2.26-.5,2.48-.93a.62.62,0,0,0-.08-.63.3.3,0,0,0-.25-.17C189,341.63,188.06,342.61,187.41,343.39Z"/><path class="cls-7" d="M187.07,343.77H187a.16.16,0,0,1-.13-.11c0-.08-.85-2.06-.36-3a.88.88,0,0,1,.62-.45.65.65,0,0,1,.75.3c.42.72-.16,2.53-.72,3.18Zm0-3.17a.5.5,0,0,0-.31.26,3.91,3.91,0,0,0,.26,2.39,3.48,3.48,0,0,0,.52-2.53.33.33,0,0,0-.4-.14Z"/><path class="cls-8" d="M160.3,101c.14.44.36,1.11.56,1.67l.65,1.79c.44,1.19.92,2.37,1.43,3.54a68.6,68.6,0,0,0,3.36,6.76c2.45,4.31,5.44,8.2,9,10.69l.62.43a.06.06,0,0,1,0,0s0,.06.15.08a4,4,0,0,0,1.93-.52,25.33,25.33,0,0,0,5.6-4.07,74.3,74.3,0,0,0,5.48-5.58c1.79-2,3.54-4.06,5.19-6.09l4.76,2.88a70.67,70.67,0,0,1-9.26,14.67,31.09,31.09,0,0,1-7.11,6.45,14,14,0,0,1-5.83,2.13,10.33,10.33,0,0,1-3.94-.36,10,10,0,0,1-1.9-.78l-1.15-.65a32.66,32.66,0,0,1-7.52-6.2,48,48,0,0,1-5.56-7.4,64.08,64.08,0,0,1-4.16-8c-.6-1.37-1.15-2.74-1.67-4.14-.25-.7-.51-1.4-.74-2.11s-.43-1.39-.68-2.28Z"/><path class="cls-9" d="M172,118.36l-11.72,8.74s-.45-.49-1.19-1.35c-.54-.63-1.24-1.47-2.05-2.45-4.55-5.54-11.21-15.67-11.26-20.62-.08-7.39,7.59-8.48,16.2-.92,3.72,3.26,5.66,8.67,7.55,12,.62,1.1,1.15,2.07,1.55,2.82C171.67,117.7,172,118.36,172,118.36Z"/><polygon class="cls-3" points="123.42 349.47 130.84 349.47 131.8 332.3 124.39 332.3 123.42 349.47"/><path class="cls-4" d="M131.23,348.61H122.9a.53.53,0,0,0-.55.51l-.41,6.59a1.32,1.32,0,0,0,1.3,1.32c2.9,0,4.29-.22,8-.22,2.25,0,11.83.23,14.94.23s3-3.08,1.71-3.36c-5.92-1.24-13.24-3-15.34-4.61A2.07,2.07,0,0,0,131.23,348.61Z"/><polygon class="cls-5" points="124.38 332.31 131.8 332.31 131.3 341.16 123.88 341.16 124.38 332.31"/><path class="cls-4" d="M142.89,160.89s.7,56.66-.5,77.88C141.07,262,134.48,339,134.48,339H120.9s.41-75.13-.41-98.14c-.89-25-3.19-80-3.19-80Z"/><polygon class="cls-7" points="120.36 339.02 135.03 339.02 135.84 333.87 119.65 334.67 120.36 339.02"/><path class="cls-10" d="M133.85,349.9a9.5,9.5,0,0,1-2-.26.17.17,0,0,1-.13-.14.15.15,0,0,1,.07-.17c.23-.17,2.33-1.6,3.24-1.24a.64.64,0,0,1,.4.48.93.93,0,0,1-.22.94A2,2,0,0,1,133.85,349.9Zm-1.5-.51c1.33.26,2.31.22,2.65-.12a.6.6,0,0,0,.12-.62.27.27,0,0,0-.19-.24C134.45,348.22,133.21,348.84,132.35,349.39Z"/><path class="cls-10" d="M131.92,349.64a.11.11,0,0,1-.08,0,.17.17,0,0,1-.1-.13c0-.1-.17-2.23.58-2.95a.89.89,0,0,1,.73-.24.67.67,0,0,1,.63.52c.17.81-.94,2.36-1.67,2.8A.15.15,0,0,1,131.92,349.64Zm1-3a.51.51,0,0,0-.37.15,3.83,3.83,0,0,0-.49,2.36c.65-.55,1.38-1.72,1.27-2.26,0-.1-.08-.22-.33-.25Z"/><path class="cls-6" d="M145.7,103.53c2.65-1.75,4.58,2.78,9.81,6.61,2.33,1.7,7.45,12.83,7,15.28l-2.26,1.68S145.64,110.9,145.7,103.53Z"/><path class="cls-3" d="M193.38,111l2.55-8.15,6.62,4.85s-3.61,7.27-6.06,6.61Z"/><polygon class="cls-3" points="202.91 99.71 206.64 102.19 202.55 107.68 195.93 102.83 202.91 99.71"/><path class="cls-9" d="M157.37,161.27H117.72c-.28-3.54.54-15.06-.07-29.73a188.37,188.37,0,0,0-3.94-32.34c-.18-.8-.36-1.59-.55-2.39,0,0,2-.41,4.89-.83,2.39-.35,5.39-.71,8.33-.85a147.89,147.89,0,0,1,16.85,0c2.59.24,5.12.67,7.14,1.06,2.58.52,4.1,1,4.1,1S164.24,119.58,157.37,161.27Z"/><path class="cls-6" d="M117.65,131.55a188.37,188.37,0,0,0-3.94-32.34c2.65-.23,7.18,0,7.93,4.31C122.45,108.12,121.43,118.94,117.65,131.55Z"/><path class="cls-4" d="M116,134.69s11.74-3.11,10.85-13.67-7-26.13-7-26.13,1.13-.75,3.72-.42c.88.79,6.5,12.2,7.28,19.1,4.36-.45,15.26-.73,17.18-.6.38-3.82-1.54-14.09-3.9-18a14.16,14.16,0,0,1,3.9.37,58.08,58.08,0,0,1,4.5,21.08c.11,11.44,8.09,16.33,8.09,16.33s-.33,19.94.28,28.47S164.48,195,164.48,195L117,197.69S113.38,148.18,116,134.69Z"/><path class="cls-8" d="M120.35,107.58l-1.76,3c-.6,1-1.18,2.1-1.74,3.16q-1.71,3.17-3.29,6.39c-1,2.15-2,4.31-2.88,6.48a62.65,62.65,0,0,0-2.25,6.5l-.12.4-.06.21c0,.07,0,0,0,0a.44.44,0,0,0-.06.18,4.16,4.16,0,0,0,0,.93,13.43,13.43,0,0,0,.58,2.78A47.9,47.9,0,0,0,111.3,144c2,4.3,4.43,8.67,6.85,12.9l-4.38,3.42a83.35,83.35,0,0,1-9.88-12.12,47,47,0,0,1-4-7.22,24,24,0,0,1-1.46-4.45,14.1,14.1,0,0,1-.3-2.82,11.19,11.19,0,0,1,.12-1.69l.07-.42.06-.26.1-.51a74,74,0,0,1,5-15.34c1.06-2.42,2.21-4.78,3.43-7.09.62-1.15,1.25-2.3,1.91-3.44s1.31-2.22,2.09-3.43Z"/><path class="cls-9" d="M123,110.31c-1.17,5.1-4.41,10.9-6.43,15-.53,1.1-1,2.08-1.42,2.87-.7,1.39-1.14,2.23-1.14,2.23l-15-8.32s.19-.63.53-1.69c.26-.8.6-1.85,1-3.06,2.5-7.13,7.61-19.85,12.62-20.58C120.65,95.72,124.39,104.22,123,110.31Z"/><path class="cls-3" d="M116.17,155.27l7.38-1.28-3.79,8.54s-6.74,0-6.43-3.51Z"/><polygon class="cls-3" points="129.06 158.28 125.59 165.19 119.76 162.53 123.55 153.99 129.06 158.28"/><path class="cls-3" d="M142.43,95.07c-4.9-1.16-5.76-4.19-5.43-7.52a19.92,19.92,0,0,1,.39-2.48L131.25,80l-4.51-3.74c1.25,5.43,2.66,15.32-1,18.94,0,0,3.31,5.11,12.15,4.54S142.43,95.07,142.43,95.07Z"/><path class="cls-5" d="M137.39,85.07a19.92,19.92,0,0,0-.39,2.48c-2.29-.46-5.35-2.9-5.67-5.24a10.66,10.66,0,0,1-.08-2.34Z"/><path class="cls-4" d="M142.81,58.75c3.43,1.6,2.41,9.78.25,10.53C140,70.34,138,56.48,142.81,58.75Z"/><path class="cls-3" d="M124.88,68.42c1.57,7.21,2.12,11.5,6.37,14.79a9.59,9.59,0,0,0,15.52-6.91c.56-6.71-2.1-17.37-9.68-19.41A9.7,9.7,0,0,0,124.88,68.42Z"/><path class="cls-4" d="M125.19,73.36c-1.48-1.18-10.43-5.89-5-11.78-1.72-2.56-2.33-7.44,4.44-8.44s15.34,2.66,16.62,0c4.61,0,5.22,7,1.61,8.22s-14.11.72-14.11.72S131.68,79,125.19,73.36Z"/><path class="cls-9" d="M144.56,56.25c-7.7,1-19.88,5-25.8,9a.47.47,0,0,1-.74-.32l-1.19-9.62a.5.5,0,0,1,.25-.48,62.76,62.76,0,0,1,22.34-7.42.48.48,0,0,1,.47.22l5,7.9A.46.46,0,0,1,144.56,56.25Z"/><path class="cls-3" d="M123.22,76a8,8,0,0,0,4.57,2.72c2.27.38,2.79-1.72,1.63-3.76-1-1.83-3.47-4.24-5.5-3.7S121.74,74.17,123.22,76Z"/><path class="cls-4" d="M135.4,69.14c.09.59.48,1,.86,1s.63-.56.54-1.15-.48-1-.87-1S135.31,68.55,135.4,69.14Z"/><path class="cls-4" d="M142.44,68.34c.09.59.48,1,.87,1s.63-.57.54-1.16-.48-1-.87-1S142.35,67.75,142.44,68.34Z"/><path class="cls-11" d="M141.21,68.89a22.09,22.09,0,0,0,3.62,4.72,3.42,3.42,0,0,1-2.76.87Z"/><path class="cls-4" d="M139.56,76.36a5.16,5.16,0,0,1-3.74-1.54.19.19,0,0,1,0-.25.18.18,0,0,1,.25,0A4.94,4.94,0,0,0,140.21,76a.17.17,0,1,1,0,.34A5.6,5.6,0,0,1,139.56,76.36Z"/><path class="cls-4" d="M133,66.39a.38.38,0,0,1-.17,0,.35.35,0,0,1-.13-.48,3.38,3.38,0,0,1,2.62-1.78.36.36,0,0,1,.37.34.35.35,0,0,1-.33.36,2.69,2.69,0,0,0-2.05,1.42A.33.33,0,0,1,133,66.39Z"/><path class="cls-4" d="M145.58,65.08a.35.35,0,0,1-.32-.07,2.89,2.89,0,0,0-2.5-.67.36.36,0,0,1-.44-.25.36.36,0,0,1,.24-.43h0a3.62,3.62,0,0,1,3.14.81.35.35,0,0,1,0,.49A.36.36,0,0,1,145.58,65.08Z"/><rect class="cls-4" x="225.49" y="29.63" width="7.54" height="271.94" transform="translate(70.47 -68.42) rotate(20)"/><path class="cls-4" d="M284.08,15h0a1.16,1.16,0,0,0-1.47.66L274,37.18l3.59,1.31,7.22-22A1.17,1.17,0,0,0,284.08,15Z"/><path class="cls-12" d="M277.2,33.87c-57.62-21-113.72-12.16-121.71,9.78l208.67,75.94C372.14,97.65,334.83,54.84,277.2,33.87Z"/><path class="cls-13" d="M277.2,33.87c-35.86-13-74.32,2.18-82.31,24.12l129.87,47.26C332.74,83.31,313.07,46.92,277.2,33.87Z"/><path class="cls-12" d="M277.2,33.87c-13.95-5.08-34.65,16.61-42.64,38.55l50.53,18.4C293.08,68.88,291.16,39,277.2,33.87Z"/><path class="cls-7" d="M75.09,286.87a36.84,36.84,0,1,0,36.84,36.84A36.84,36.84,0,0,0,75.09,286.87Zm26.72,34.34H81.12l14.62-14.62A26.74,26.74,0,0,1,101.81,321.21ZM77.59,297a26.72,26.72,0,0,1,14.62,6.06L77.59,317.67Zm-5,20.68L58,303.05A26.66,26.66,0,0,1,72.59,297Zm0,32.76A26.74,26.74,0,0,1,58,344.36l14.62-14.62Zm5-20.69,14.62,14.62a26.81,26.81,0,0,1-14.62,6.07ZM54.43,306.59l14.62,14.62H48.37A26.66,26.66,0,0,1,54.43,306.59Zm-6.06,19.62H69.05L54.43,340.83A26.72,26.72,0,0,1,48.37,326.21Zm47.37,14.62L81.12,326.21h20.69A26.81,26.81,0,0,1,95.74,340.83Z"/><path class="cls-5" d="M75.28,287.11A36.84,36.84,0,1,0,112.12,324,36.84,36.84,0,0,0,75.28,287.11ZM102,321.45H81.31l14.62-14.62A26.74,26.74,0,0,1,102,321.45ZM77.78,297.23a26.72,26.72,0,0,1,14.62,6.06L77.78,317.91Zm-5,20.68L58.15,303.29a26.72,26.72,0,0,1,14.63-6.06Zm0,32.76a26.81,26.81,0,0,1-14.63-6.07L72.78,330Zm5-20.69L92.4,344.6a26.81,26.81,0,0,1-14.62,6.07ZM54.62,306.83l14.62,14.62H48.55A26.74,26.74,0,0,1,54.62,306.83Zm-6.07,19.62H69.24L54.62,341.07A26.81,26.81,0,0,1,48.55,326.45Zm47.38,14.62L81.31,326.45H102A26.81,26.81,0,0,1,95.93,341.07Z"/><path class="cls-7" d="M195.53,286.87a36.84,36.84,0,1,0,36.84,36.84A36.84,36.84,0,0,0,195.53,286.87Zm26.72,34.34H201.57l14.62-14.62A26.66,26.66,0,0,1,222.25,321.21ZM198,297a26.69,26.69,0,0,1,14.62,6.06L198,317.67Zm-5,20.68-14.62-14.62A26.69,26.69,0,0,1,193,297Zm0,32.76a26.78,26.78,0,0,1-14.62-6.07L193,329.74Zm5-20.69,14.62,14.62A26.78,26.78,0,0,1,198,350.43Zm-23.15-23.15,14.62,14.62H168.81A26.67,26.67,0,0,1,174.88,306.59Zm-6.07,19.62H189.5l-14.62,14.62A26.73,26.73,0,0,1,168.81,326.21Zm47.38,14.62-14.62-14.62h20.68A26.72,26.72,0,0,1,216.19,340.83Z"/><path class="cls-5" d="M195.72,287.11A36.84,36.84,0,1,0,232.56,324,36.84,36.84,0,0,0,195.72,287.11Zm26.72,34.34H201.75l14.62-14.62A26.67,26.67,0,0,1,222.44,321.45Zm-24.22-24.22a26.69,26.69,0,0,1,14.62,6.06l-14.62,14.62Zm-5,20.68L178.6,303.29a26.69,26.69,0,0,1,14.62-6.06Zm0,32.76a26.78,26.78,0,0,1-14.62-6.07L193.22,330Zm5-20.69,14.62,14.62a26.78,26.78,0,0,1-14.62,6.07Zm-23.16-23.15,14.62,14.62H169A26.66,26.66,0,0,1,175.06,306.83ZM169,326.45h20.68l-14.62,14.62A26.72,26.72,0,0,1,169,326.45Zm47.37,14.62-14.62-14.62h20.69A26.73,26.73,0,0,1,216.37,341.07Z"/><rect class="cls-7" x="60.09" y="202.42" width="229.33" height="129.78"/><rect class="cls-14" x="60.09" y="193.53" width="231.46" height="8.89"/><polygon class="cls-5" points="289.42 332.2 289.42 202.42 291.55 202.42 291.55 193.53 260.63 193.53 223.29 332.2 289.42 332.2"/><rect class="cls-7" x="21.97" y="202.42" width="38.11" height="129.78" transform="translate(82.06 534.62) rotate(180)"/><rect class="cls-5" x="21.97" y="202.42" width="38.11" height="129.78" transform="translate(82.06 534.62) rotate(180)"/><rect class="cls-14" x="19.85" y="193.53" width="40.24" height="8.89" transform="translate(79.93 395.95) rotate(180)"/><rect class="cls-5" x="19.85" y="193.53" width="40.24" height="8.89" transform="translate(79.93 395.95) rotate(180)"/><path class="cls-15" d="M113.2,286.87A36.84,36.84,0,1,0,150,323.71,36.84,36.84,0,0,0,113.2,286.87Zm26.72,34.34H119.23l14.62-14.62A26.74,26.74,0,0,1,139.92,321.21ZM115.7,297a26.72,26.72,0,0,1,14.62,6.06L115.7,317.67Zm-5,20.68L96.08,303.05A26.66,26.66,0,0,1,110.7,297Zm0,32.76a26.74,26.74,0,0,1-14.62-6.07l14.62-14.62Zm5-20.69,14.62,14.62a26.81,26.81,0,0,1-14.62,6.07ZM92.54,306.59l14.62,14.62H86.48A26.66,26.66,0,0,1,92.54,306.59Zm-6.06,19.62h20.68L92.54,340.83A26.72,26.72,0,0,1,86.48,326.21Zm47.37,14.62-14.62-14.62h20.69A26.81,26.81,0,0,1,133.85,340.83Z"/><path class="cls-16" d="M113.2,287.11A36.84,36.84,0,1,0,150,324,36.84,36.84,0,0,0,113.2,287.11Zm26.72,34.34H119.23l14.62-14.62A26.74,26.74,0,0,1,139.92,321.45ZM115.7,297.23a26.72,26.72,0,0,1,14.62,6.06L115.7,317.91Zm-5,20.68L96.08,303.29a26.66,26.66,0,0,1,14.62-6.06Zm0,32.76a26.74,26.74,0,0,1-14.62-6.07L110.7,330Zm5-20.69,14.62,14.62a26.81,26.81,0,0,1-14.62,6.07ZM92.54,306.83l14.62,14.62H86.48A26.66,26.66,0,0,1,92.54,306.83Zm-6.06,19.62h20.68L92.54,341.07A26.72,26.72,0,0,1,86.48,326.45Zm47.37,14.62-14.62-14.62h20.69A26.81,26.81,0,0,1,133.85,341.07Z"/><path class="cls-15" d="M233.64,286.87a36.84,36.84,0,1,0,36.84,36.84A36.84,36.84,0,0,0,233.64,286.87Zm26.72,34.34H239.68l14.62-14.62A26.66,26.66,0,0,1,260.36,321.21ZM236.14,297a26.69,26.69,0,0,1,14.62,6.06l-14.62,14.62Zm-5,20.68-14.62-14.62A26.69,26.69,0,0,1,231.14,297Zm0,32.76a26.78,26.78,0,0,1-14.62-6.07l14.62-14.62Zm5-20.69,14.62,14.62a26.78,26.78,0,0,1-14.62,6.07ZM213,306.59l14.62,14.62H206.92A26.67,26.67,0,0,1,213,306.59Zm-6.07,19.62h20.69L213,340.83A26.73,26.73,0,0,1,206.92,326.21Zm47.38,14.62-14.62-14.62h20.68A26.72,26.72,0,0,1,254.3,340.83Z"/><path class="cls-16" d="M233.64,287.11A36.84,36.84,0,1,0,270.48,324,36.84,36.84,0,0,0,233.64,287.11Zm26.72,34.34H239.68l14.62-14.62A26.66,26.66,0,0,1,260.36,321.45Zm-24.22-24.22a26.69,26.69,0,0,1,14.62,6.06l-14.62,14.62Zm-5,20.68-14.62-14.62a26.69,26.69,0,0,1,14.62-6.06Zm0,32.76a26.78,26.78,0,0,1-14.62-6.07L231.14,330Zm5-20.69,14.62,14.62a26.78,26.78,0,0,1-14.62,6.07ZM213,306.83l14.62,14.62H206.92A26.67,26.67,0,0,1,213,306.83Zm-6.07,19.62h20.69L213,341.07A26.73,26.73,0,0,1,206.92,326.45Zm47.38,14.62-14.62-14.62h20.68A26.72,26.72,0,0,1,254.3,341.07Z"/><rect class="cls-5" x="21.97" y="202.42" width="267.44" height="3.78"/><polygon class="cls-17" points="65.31 158.42 65.31 151.2 63.36 151.2 62.66 140.42 61.04 140.42 60.33 151.2 58.38 151.2 58.38 158.42 54.64 158.42 54.64 193.53 69.05 193.53 69.05 158.42 65.31 158.42"/><polygon class="cls-18" points="65.31 158.42 65.31 151.2 63.36 151.2 62.66 140.42 61.04 140.42 60.33 151.2 58.38 151.2 58.38 158.42 54.64 158.42 54.64 193.53 69.05 193.53 69.05 158.42 65.31 158.42"/><polygon class="cls-14" points="83.64 158.42 83.64 151.2 81.7 151.2 80.99 140.42 79.37 140.42 78.66 151.2 76.72 151.2 76.72 158.42 72.97 158.42 72.97 193.53 87.39 193.53 87.39 158.42 83.64 158.42"/><polygon class="cls-5" points="83.64 158.42 83.64 151.2 81.7 151.2 80.99 140.42 79.37 140.42 78.66 151.2 76.72 151.2 76.72 158.42 72.97 158.42 72.97 193.53 87.39 193.53 87.39 158.42 83.64 158.42"/><path class="cls-19" d="M222.3,255.56a318.2,318.2,0,0,1-99.84,10.82c-10.86-.54-18.76-9.33-17.59-18.75h0c1.17-9.44,9.86-16.21,19.33-15.75a283.78,283.78,0,0,0,89-9.65c9.15-2.48,19.08,2.28,22.25,11.24h0C238.62,242.42,232.79,252.71,222.3,255.56Z"/><path class="cls-18" d="M222.3,255.56a318.2,318.2,0,0,1-99.84,10.82c-10.86-.54-18.76-9.33-17.59-18.75h0c1.17-9.44,9.86-16.21,19.33-15.75a283.78,283.78,0,0,0,89-9.65c9.15-2.48,19.08,2.28,22.25,11.24h0C238.62,242.42,232.79,252.71,222.3,255.56Z"/><path class="cls-14" d="M226.88,263.59A341.45,341.45,0,0,1,119.71,275.2c-11.65-.57-20.14-10-18.88-20.12h0c1.26-10.13,10.58-17.41,20.75-16.91a304.35,304.35,0,0,0,95.54-10.36c9.82-2.66,20.48,2.45,23.88,12.07h0C244.4,249.49,238.13,260.53,226.88,263.59Z"/><path class="cls-19" d="M223.79,269.26a318.23,318.23,0,0,1-99.85,10.82c-10.85-.54-18.75-9.33-17.58-18.75h0c1.17-9.44,9.86-16.21,19.32-15.75a283.74,283.74,0,0,0,89-9.65c9.15-2.48,19.09,2.28,22.25,11.25h0C240.11,256.12,234.27,266.41,223.79,269.26Z"/><path class="cls-18" d="M223.76,269.26a318.2,318.2,0,0,1-99.84,10.82c-10.86-.54-18.76-9.33-17.59-18.75h0c1.17-9.44,9.86-16.21,19.33-15.75a283.78,283.78,0,0,0,89-9.65c9.15-2.48,19.08,2.28,22.25,11.25h0C240.08,256.12,234.25,266.41,223.76,269.26Z"/><path class="cls-17" d="M139.4,252.8a8.13,8.13,0,0,1-2.08-.27,4,4,0,0,1-2.87-2.25,3.58,3.58,0,0,1,.64-3.35,11.34,11.34,0,0,1,2.11-1.9c1.67-1.26,2.67-2.12,2.27-3.61a2.18,2.18,0,0,0-1.1-1.44c-1.48-.79-4.17-.32-6.2.38a18.87,18.87,0,0,0-8.43,6.22,5.08,5.08,0,0,0-1.42,3.26.89.89,0,0,1-.82,1,.9.9,0,0,1-1-.82c-.12-1.37.47-2.85,1.79-4.53a20.34,20.34,0,0,1,9.26-6.81c1.49-.51,5.2-1.56,7.64-.27a3.93,3.93,0,0,1,2,2.56c.73,2.74-1.3,4.28-2.92,5.51a9.33,9.33,0,0,0-1.77,1.57,1.79,1.79,0,0,0-.38,1.61c.26.71,1.24,1,1.65,1.15a6.62,6.62,0,0,0,5.76-1.24,11.75,11.75,0,0,0,2.67-4c.34-.69.7-1.4,1.09-2.05a14.66,14.66,0,0,1,7.07-6.14c2.23-.88,7.24-1.75,8.5,1.17a3.69,3.69,0,0,1-.13,3,11.34,11.34,0,0,1-1.89,2.65c-1.06,1.24-2.16,2.53-2,3.77a1.77,1.77,0,0,0,1,1.4,3.35,3.35,0,0,0,2.6-.35c2.73-1.25,4.24-3.63,5.83-6.15l.25-.39c1.43-2.25,3-4.81,5.26-6.42,1.31-1,3.47-1.75,5.24-.84,2.2,1.14,2.08,4.07,1.3,6.23-.16.45-.35.9-.54,1.35a12.4,12.4,0,0,0-.74,2,3.38,3.38,0,0,0,.33,2.77c1.16,1.5,4.56-.53,5.57-1.19a18.44,18.44,0,0,0,5.84-6.52c.48-.86.92-1.77,1.34-2.66s1-2,1.56-3a13,13,0,0,1,4-4.65,3.66,3.66,0,0,1,4.52.51,4,4,0,0,1,.52,3.78c-.22.71-.47,1.41-.72,2.11s-.43,1.21-.62,1.82c-.62,2-.64,3.66-.06,4.49.39.55,1.08.8,2.26.84a12.81,12.81,0,0,0,8.38-3,16,16,0,0,0,5.42-8.92c.43-2.08.15-4.53-1.06-5a.9.9,0,1,1,.7-1.66c2.27,1,2.7,4.24,2.12,7.06a17.81,17.81,0,0,1-6,10,14.55,14.55,0,0,1-9.56,3.35,4.4,4.4,0,0,1-3.68-1.61c-1.18-1.67-.75-4.21-.19-6.05.2-.64.42-1.26.65-1.89s.48-1.35.68-2a2.33,2.33,0,0,0-.16-2.09,1.89,1.89,0,0,0-2.25-.11,10.9,10.9,0,0,0-3.37,4c-.54.94-1,1.95-1.49,2.92s-.89,1.85-1.4,2.76a20.21,20.21,0,0,1-6.43,7.15c-3.68,2.39-6.51,2.67-8,.79a5,5,0,0,1-.66-4.31,14.41,14.41,0,0,1,.83-2.29c.18-.42.35-.83.51-1.26.39-1.11.81-3.37-.43-4-1-.5-2.43,0-3.36.69-1.93,1.41-3.45,3.82-4.8,5.94l-.24.38c-1.67,2.63-3.39,5.35-6.6,6.83a5,5,0,0,1-4,.37,3.5,3.5,0,0,1-2.15-2.88c-.2-2,1.21-3.66,2.46-5.12a10.24,10.24,0,0,0,1.61-2.22,1.93,1.93,0,0,0,.12-1.54c-.63-1.46-4.42-.9-6.19-.2a12.87,12.87,0,0,0-6.19,5.39c-.35.59-.68,1.24-1,1.92a13,13,0,0,1-3.15,4.57A8.47,8.47,0,0,1,139.4,252.8Z"/><path class="cls-19" d="M210.85,100a60.09,60.09,0,0,1-18.73,2,3.32,3.32,0,0,1-3.3-3.52h0a3.48,3.48,0,0,1,3.63-3,52.82,52.82,0,0,0,16.69-1.81,3.46,3.46,0,0,1,4.17,2.11h0A3.3,3.3,0,0,1,210.85,100Z"/><path class="cls-18" d="M210.85,100a60.09,60.09,0,0,1-18.73,2,3.32,3.32,0,0,1-3.3-3.52h0a3.48,3.48,0,0,1,3.63-3,52.82,52.82,0,0,0,16.69-1.81,3.46,3.46,0,0,1,4.17,2.11h0A3.3,3.3,0,0,1,210.85,100Z"/><path class="cls-14" d="M211.71,101.53a64.06,64.06,0,0,1-20.11,2.18,3.55,3.55,0,0,1-3.54-3.78h0a3.73,3.73,0,0,1,3.9-3.17,57,57,0,0,0,17.91-1.94,3.71,3.71,0,0,1,4.48,2.27h0A3.53,3.53,0,0,1,211.71,101.53Z"/><path class="cls-19" d="M211.13,102.6a59.79,59.79,0,0,1-18.73,2,3.3,3.3,0,0,1-3.3-3.51h0a3.48,3.48,0,0,1,3.63-3,52.82,52.82,0,0,0,16.69-1.81,3.46,3.46,0,0,1,4.17,2.11h0A3.3,3.3,0,0,1,211.13,102.6Z"/><path class="cls-18" d="M211.12,102.6a59.75,59.75,0,0,1-18.73,2,3.29,3.29,0,0,1-3.29-3.51h0a3.47,3.47,0,0,1,3.62-3,52.78,52.78,0,0,0,16.69-1.81,3.48,3.48,0,0,1,4.18,2.11h0A3.31,3.31,0,0,1,211.12,102.6Z"/><path class="cls-17" d="M195.3,99.51a1.74,1.74,0,0,1-.39-.05.78.78,0,0,1-.54-.43.65.65,0,0,1,.12-.62,2,2,0,0,1,.4-.36c.31-.24.5-.4.42-.68a.43.43,0,0,0-.2-.27,1.78,1.78,0,0,0-1.17.07,3.62,3.62,0,0,0-1.58,1.17.91.91,0,0,0-.26.61.19.19,0,0,1-.16.19.18.18,0,0,1-.18-.16,1.26,1.26,0,0,1,.34-.85,3.77,3.77,0,0,1,1.73-1.27,2,2,0,0,1,1.43,0,.74.74,0,0,1,.38.48c.13.51-.25.8-.55,1a2,2,0,0,0-.33.29.31.31,0,0,0-.07.31c.05.13.23.19.31.21a1.24,1.24,0,0,0,1.08-.23,2.4,2.4,0,0,0,.5-.75c.06-.13.13-.26.2-.38a2.74,2.74,0,0,1,1.33-1.15c.42-.17,1.36-.33,1.59.22a.69.69,0,0,1,0,.56,2.33,2.33,0,0,1-.36.5c-.2.23-.4.47-.38.7a.32.32,0,0,0,.2.26.64.64,0,0,0,.49-.06,2.75,2.75,0,0,0,1.09-1.15l.05-.08a4.2,4.2,0,0,1,1-1.2,1,1,0,0,1,1-.16c.41.21.38.76.24,1.17l-.1.25a2.22,2.22,0,0,0-.14.38.62.62,0,0,0,.06.52c.22.28.86-.1,1-.22a3.44,3.44,0,0,0,1.1-1.22c.09-.17.17-.34.25-.5s.19-.39.29-.57a2.68,2.68,0,0,1,.76-.88.7.7,0,0,1,.85.1.75.75,0,0,1,.09.71c0,.13-.08.26-.13.39l-.12.35a1.09,1.09,0,0,0,0,.84.51.51,0,0,0,.43.15,2.39,2.39,0,0,0,1.57-.55,3,3,0,0,0,1-1.67c.09-.39,0-.85-.19-.95a.16.16,0,0,1-.09-.22.17.17,0,0,1,.22-.09c.42.18.5.8.4,1.33a3.36,3.36,0,0,1-1.14,1.86,2.69,2.69,0,0,1-1.79.63.8.8,0,0,1-.69-.3,1.39,1.39,0,0,1,0-1.13l.12-.36c.05-.13.09-.25.13-.38a.42.42,0,0,0,0-.39.34.34,0,0,0-.42,0,1.94,1.94,0,0,0-.63.74c-.1.18-.2.37-.28.55s-.17.35-.26.52A3.85,3.85,0,0,1,204,98.59c-.69.45-1.22.5-1.5.15a1,1,0,0,1-.12-.81,3.16,3.16,0,0,1,.16-.43l.09-.23c.08-.21.15-.64-.08-.76a.68.68,0,0,0-.63.13,4.26,4.26,0,0,0-.9,1.11l-.05.08a3,3,0,0,1-1.23,1.28,1,1,0,0,1-.76.07.66.66,0,0,1-.4-.54,1.31,1.31,0,0,1,.46-1,2.38,2.38,0,0,0,.3-.42.34.34,0,0,0,0-.29c-.12-.27-.83-.17-1.16,0a2.45,2.45,0,0,0-1.16,1c-.07.11-.13.24-.19.36a2.49,2.49,0,0,1-.59.86A1.58,1.58,0,0,1,195.3,99.51Z"/></g></g></svg>