<svg xmlns="http://www.w3.org/2000/svg" xmlns:xlink="http://www.w3.org/1999/xlink" viewBox="0 0 541.46 650.21"><defs><style>.cls-1{fill:none;}.cls-2{opacity:0.19;}.cls-3{fill:#05a66b;}.cls-4{clip-path:url(#clip-path);}.cls-5{fill:#05a76c;}.cls-6{fill:#06a86c;}.cls-7{fill:#06a96d;}.cls-8{fill:#07aa6d;}.cls-9{fill:#07ab6e;}.cls-10{fill:#08ac6f;}.cls-11{fill:#08ad6f;}.cls-12{fill:#08ae70;}.cls-13{fill:#09af71;}.cls-14{fill:#09b071;}.cls-15{fill:#0ab172;}.cls-16{fill:#0ab272;}.cls-17{fill:#0ab373;}.cls-18{fill:#0bb474;}.cls-19{fill:#0bb574;}.cls-20{fill:#0cb675;}.cls-21{fill:#0cb775;}.cls-22{fill:#0db876;}.cls-23{fill:#0db977;}.cls-24{fill:#0dba77;}.cls-25{fill:#0ebb78;}.cls-26{fill:#0ebc78;}.cls-27{fill:#0fbd79;}.cls-28{fill:#0fbe7a;}.cls-29{fill:#0fbf7a;}.cls-30{fill:#10c07b;}.cls-31{fill:#10c17c;}.cls-32{fill:#11c27c;}.cls-33{fill:#11c37d;}.cls-34{fill:#12c47d;}.cls-35{fill:#12c57e;}.cls-36{fill:#12c67f;}.cls-37{fill:#13c77f;}.cls-38{fill:#13c980;}.cls-39{fill:#14ca80;}.cls-40{fill:#14cb81;}.cls-41{fill:#14cc82;}.cls-42{fill:#15cd82;}.cls-43{fill:#15ce83;}.cls-44{fill:#16cf83;}.cls-45{fill:#16d084;}.cls-46{fill:#17d185;}.cls-47{fill:#17d285;}.cls-48{fill:#17d386;}.cls-49{fill:#18d487;}.cls-50{fill:#18d587;}.cls-51{fill:#19d688;}.cls-52{fill:#19d788;}.cls-53{fill:#19d889;}.cls-54{fill:#1ad98a;}.cls-55{fill:#1ada8a;}.cls-56{fill:#1bdb8b;}.cls-57{fill:#1bdc8b;}.cls-58{fill:#1cdd8c;}.cls-59{fill:#1cde8d;}.cls-60{fill:#1cdf8d;}.cls-61{fill:#1de08e;}.cls-62{fill:#1de18e;}.cls-63{fill:#1ee28f;}.cls-64{fill:#1ee390;}.cls-65{fill:#1ee490;}.cls-66{fill:#1fe591;}.cls-67{fill:#1fe692;}.cls-68{fill:#20e792;}.cls-69{fill:#20e893;}.cls-70{fill:#21e993;}.cls-71{fill:#21ea94;}.cls-72{fill:#81fcca;}.cls-73{fill:#85edc2;}.cls-74{clip-path:url(#clip-path-2);}.cls-75{clip-path:url(#clip-path-3);}</style><clipPath id="clip-path"><rect class="cls-1" x="105.97" y="302.38" width="241.86" height="241.86" transform="translate(365.78 -36.45) rotate(45)"/></clipPath><clipPath id="clip-path-2"><rect class="cls-1" x="193.64" y="105.97" width="241.86" height="241.86" transform="translate(252.57 -155.98) rotate(45)"/></clipPath><clipPath id="clip-path-3"><rect class="cls-1" x="87.16" y="166.79" width="142.84" height="142.84" transform="translate(214.89 -42.36) rotate(45)"/></clipPath></defs><title>bg</title><g id="Layer_2" data-name="Layer 2"><g id="Layer_1-2" data-name="Layer 1"><g class="cls-2"><rect class="cls-3" x="66.46" y="262.87" width="320.88" height="320.88" transform="translate(365.78 -36.45) rotate(45)"/></g><g class="cls-4"><polygon class="cls-3" points="397.91 341.39 262.94 252.29 397.91 252.29 397.91 341.39"/><polygon class="cls-3" points="397.91 346.89 254.6 252.29 262.94 252.29 397.91 341.39 397.91 346.89"/><polygon class="cls-5" points="397.91 352.39 246.27 252.29 254.6 252.29 397.91 346.89 397.91 352.39"/><polygon class="cls-6" points="397.91 357.89 237.94 252.29 246.27 252.29 397.91 352.39 397.91 357.89"/><polygon class="cls-7" points="397.91 363.39 229.6 252.29 237.94 252.29 397.91 357.89 397.91 363.39"/><polygon class="cls-8" points="397.91 368.89 221.27 252.29 229.6 252.29 397.91 363.39 397.91 368.89"/><polygon class="cls-9" points="397.91 374.39 212.94 252.29 221.27 252.29 397.91 368.89 397.91 374.39"/><polygon class="cls-10" points="397.91 379.89 204.61 252.29 212.94 252.29 397.91 374.39 397.91 379.89"/><polygon class="cls-11" points="397.91 385.39 196.28 252.29 204.61 252.29 397.91 379.89 397.91 385.39"/><polygon class="cls-12" points="397.91 390.89 187.94 252.29 196.28 252.29 397.91 385.39 397.91 390.89"/><polygon class="cls-13" points="397.91 396.39 179.61 252.29 187.94 252.29 397.91 390.89 397.91 396.39"/><polygon class="cls-14" points="397.91 401.89 171.28 252.29 179.61 252.29 397.91 396.39 397.91 401.89"/><polygon class="cls-15" points="397.91 407.39 164.17 253.1 164.71 252.29 171.28 252.29 397.91 401.89 397.91 407.39"/><polygon class="cls-16" points="397.91 412.9 161.64 256.94 164.17 253.1 397.91 407.39 397.91 412.9"/><polygon class="cls-17" points="397.91 418.4 159.12 260.77 161.64 256.94 397.91 412.9 397.91 418.4"/><polygon class="cls-18" points="397.91 423.9 156.59 264.6 159.12 260.77 397.91 418.4 397.91 423.9"/><polygon class="cls-19" points="397.91 429.4 154.06 268.43 156.59 264.6 397.91 423.9 397.91 429.4"/><polygon class="cls-20" points="397.91 429.46 395.41 433.25 151.53 272.26 154.06 268.43 397.91 429.4 397.91 429.46"/><rect class="cls-21" x="269.91" y="208.56" width="4.59" height="292.23" transform="translate(-173.75 386.46) rotate(-56.57)"/><rect class="cls-22" x="267.38" y="212.39" width="4.59" height="292.23" transform="translate(-178.08 386.07) rotate(-56.57)"/><rect class="cls-23" x="264.85" y="216.22" width="4.59" height="292.23" transform="translate(-182.41 385.68) rotate(-56.57)"/><rect class="cls-24" x="262.32" y="220.05" width="4.59" height="292.23" transform="translate(-186.75 385.29) rotate(-56.57)"/><rect class="cls-25" x="259.8" y="223.88" width="4.59" height="292.23" transform="translate(-191.08 384.9) rotate(-56.57)"/><rect class="cls-26" x="257.27" y="227.71" width="4.59" height="292.23" transform="matrix(0.55, -0.83, 0.83, 0.55, -195.41, 384.51)"/><rect class="cls-27" x="254.74" y="231.54" width="4.59" height="292.23" transform="translate(-199.75 384.12) rotate(-56.57)"/><rect class="cls-28" x="252.21" y="235.37" width="4.59" height="292.23" transform="translate(-204.08 383.73) rotate(-56.57)"/><rect class="cls-29" x="249.68" y="239.2" width="4.59" height="292.23" transform="translate(-208.41 383.34) rotate(-56.57)"/><rect class="cls-30" x="247.15" y="243.03" width="4.59" height="292.23" transform="translate(-212.75 382.95) rotate(-56.57)"/><rect class="cls-31" x="244.62" y="246.87" width="4.59" height="292.23" transform="translate(-217.08 382.56) rotate(-56.57)"/><rect class="cls-32" x="242.09" y="250.7" width="4.59" height="292.23" transform="translate(-221.41 382.17) rotate(-56.57)"/><rect class="cls-33" x="239.56" y="254.53" width="4.59" height="292.23" transform="translate(-225.74 381.78) rotate(-56.57)"/><rect class="cls-34" x="237.04" y="258.36" width="4.59" height="292.23" transform="translate(-230.08 381.39) rotate(-56.57)"/><rect class="cls-35" x="234.51" y="262.19" width="4.59" height="292.23" transform="translate(-234.41 381) rotate(-56.57)"/><rect class="cls-36" x="231.98" y="266.02" width="4.59" height="292.23" transform="translate(-238.74 380.61) rotate(-56.57)"/><rect class="cls-37" x="229.45" y="269.85" width="4.59" height="292.23" transform="translate(-243.08 380.22) rotate(-56.57)"/><rect class="cls-38" x="226.92" y="273.68" width="4.59" height="292.23" transform="translate(-247.41 379.83) rotate(-56.57)"/><rect class="cls-39" x="224.39" y="277.51" width="4.59" height="292.23" transform="translate(-251.74 379.44) rotate(-56.57)"/><rect class="cls-40" x="221.86" y="281.35" width="4.59" height="292.23" transform="translate(-256.08 379.05) rotate(-56.57)"/><rect class="cls-41" x="219.33" y="285.18" width="4.59" height="292.23" transform="translate(-260.41 378.66) rotate(-56.57)"/><rect class="cls-42" x="216.8" y="289.01" width="4.59" height="292.23" transform="translate(-264.74 378.27) rotate(-56.57)"/><rect class="cls-43" x="214.28" y="292.84" width="4.59" height="292.23" transform="translate(-269.07 377.88) rotate(-56.57)"/><rect class="cls-44" x="211.75" y="296.67" width="4.59" height="292.23" transform="translate(-273.41 377.49) rotate(-56.57)"/><rect class="cls-45" x="209.22" y="300.5" width="4.59" height="292.23" transform="translate(-277.74 377.1) rotate(-56.57)"/><rect class="cls-46" x="206.69" y="304.33" width="4.59" height="292.23" transform="translate(-282.07 376.71) rotate(-56.57)"/><rect class="cls-47" x="204.16" y="308.16" width="4.59" height="292.23" transform="translate(-286.41 376.32) rotate(-56.57)"/><rect class="cls-48" x="201.63" y="311.99" width="4.59" height="292.23" transform="translate(-290.74 375.93) rotate(-56.57)"/><rect class="cls-49" x="199.1" y="315.82" width="4.59" height="292.23" transform="translate(-295.07 375.54) rotate(-56.57)"/><rect class="cls-50" x="196.57" y="319.66" width="4.59" height="292.23" transform="translate(-299.4 375.15) rotate(-56.57)"/><rect class="cls-51" x="194.04" y="323.49" width="4.59" height="292.23" transform="matrix(0.55, -0.83, 0.83, 0.55, -303.74, 374.76)"/><rect class="cls-52" x="191.52" y="327.32" width="4.59" height="292.23" transform="translate(-308.07 374.37) rotate(-56.57)"/><rect class="cls-53" x="188.99" y="331.15" width="4.59" height="292.23" transform="translate(-312.4 373.98) rotate(-56.57)"/><rect class="cls-54" x="186.46" y="334.98" width="4.59" height="292.23" transform="translate(-316.74 373.59) rotate(-56.57)"/><rect class="cls-55" x="183.93" y="338.81" width="4.59" height="292.23" transform="translate(-321.07 373.2) rotate(-56.57)"/><rect class="cls-56" x="181.4" y="342.64" width="4.59" height="292.23" transform="translate(-325.4 372.81) rotate(-56.57)"/><rect class="cls-57" x="178.87" y="346.47" width="4.59" height="292.23" transform="translate(-329.74 372.42) rotate(-56.57)"/><polygon class="cls-58" points="301.84 575 299.31 578.83 55.88 418.13 55.88 417.16 57.96 414.01 301.84 575"/><polygon class="cls-59" points="299.31 578.83 296.79 582.66 55.88 423.63 55.88 418.13 299.31 578.83"/><polygon class="cls-60" points="296.79 582.66 294.26 586.49 55.88 429.13 55.88 423.63 296.79 582.66"/><polygon class="cls-61" points="294.26 586.49 291.73 590.32 55.88 434.63 55.88 429.13 294.26 586.49"/><polygon class="cls-62" points="291.73 590.32 289.2 594.15 55.88 440.13 55.88 434.63 291.73 590.32"/><polygon class="cls-63" points="289.2 594.15 289.08 594.33 281.14 594.33 55.88 445.63 55.88 440.13 289.2 594.15"/><polygon class="cls-64" points="272.81 594.33 55.88 451.13 55.88 445.63 281.14 594.33 272.81 594.33"/><polygon class="cls-65" points="264.47 594.33 55.88 456.63 55.88 451.13 272.81 594.33 264.47 594.33"/><polygon class="cls-66" points="256.14 594.33 55.88 462.13 55.88 456.63 264.47 594.33 256.14 594.33"/><polygon class="cls-67" points="247.81 594.33 55.88 467.63 55.88 462.13 256.14 594.33 247.81 594.33"/><polygon class="cls-68" points="239.48 594.33 55.88 473.14 55.88 467.63 247.81 594.33 239.48 594.33"/><polygon class="cls-69" points="231.14 594.33 55.88 478.64 55.88 473.14 239.48 594.33 231.14 594.33"/><polygon class="cls-70" points="222.81 594.33 55.88 484.14 55.88 478.64 231.14 594.33 222.81 594.33"/><polygon class="cls-71" points="214.48 594.33 55.88 489.64 55.88 484.14 222.81 594.33 214.48 594.33"/><polygon class="cls-71" points="55.88 489.64 214.48 594.33 55.88 594.33 55.88 489.64"/></g><rect class="cls-72" x="199.36" y="395.77" width="55.08" height="55.08" transform="translate(365.78 -36.45) rotate(45)"/><path class="cls-73" d="M226.89,556.58,93.62,423.31,226.89,290,360.16,423.31ZM96,423.31,226.89,554.19,357.77,423.31,226.89,292.44Z"/><g class="cls-2"><rect class="cls-3" x="154.13" y="66.46" width="320.88" height="320.88" transform="translate(252.57 -155.98) rotate(45)"/></g><g class="cls-74"><polygon class="cls-3" points="485.59 144.97 350.61 55.88 485.59 55.88 485.59 144.97"/><polygon class="cls-3" points="485.59 150.47 342.28 55.88 350.61 55.88 485.59 144.97 485.59 150.47"/><polygon class="cls-5" points="485.59 155.98 333.95 55.88 342.28 55.88 485.59 150.47 485.59 155.98"/><polygon class="cls-6" points="485.59 161.48 325.61 55.88 333.95 55.88 485.59 155.98 485.59 161.48"/><polygon class="cls-7" points="485.59 166.98 317.28 55.88 325.61 55.88 485.59 161.48 485.59 166.98"/><polygon class="cls-8" points="485.59 172.48 308.95 55.88 317.28 55.88 485.59 166.98 485.59 172.48"/><polygon class="cls-9" points="485.59 177.98 300.62 55.88 308.95 55.88 485.59 172.48 485.59 177.98"/><polygon class="cls-10" points="485.59 183.48 292.28 55.88 300.62 55.88 485.59 177.98 485.59 183.48"/><polygon class="cls-11" points="485.59 188.98 283.95 55.88 292.28 55.88 485.59 183.48 485.59 188.98"/><polygon class="cls-12" points="485.59 194.48 275.62 55.88 283.95 55.88 485.59 188.98 485.59 194.48"/><polygon class="cls-13" points="485.59 199.98 267.29 55.88 275.62 55.88 485.59 194.48 485.59 199.98"/><polygon class="cls-14" points="485.59 205.48 258.95 55.88 267.29 55.88 485.59 199.98 485.59 205.48"/><polygon class="cls-15" points="485.59 210.98 251.85 56.69 252.38 55.88 258.95 55.88 485.59 205.48 485.59 210.98"/><polygon class="cls-16" points="485.59 216.48 249.32 60.52 251.85 56.69 485.59 210.98 485.59 216.48"/><polygon class="cls-17" points="485.59 221.98 246.79 64.35 249.32 60.52 485.59 216.48 485.59 221.98"/><polygon class="cls-18" points="485.59 227.48 244.26 68.18 246.79 64.35 485.59 221.98 485.59 227.48"/><polygon class="cls-19" points="485.59 232.98 241.73 72.01 244.26 68.18 485.59 227.48 485.59 232.98"/><polygon class="cls-20" points="485.59 233.04 483.09 236.83 239.2 75.84 241.73 72.01 485.59 232.98 485.59 233.04"/><rect class="cls-21" x="357.59" y="12.14" width="4.59" height="292.23" transform="translate(29.55 371.42) rotate(-56.57)"/><rect class="cls-22" x="355.06" y="15.97" width="4.59" height="292.23" transform="translate(25.22 371.03) rotate(-56.57)"/><rect class="cls-23" x="352.53" y="19.8" width="4.59" height="292.23" transform="translate(20.88 370.64) rotate(-56.57)"/><rect class="cls-24" x="350" y="23.63" width="4.59" height="292.23" transform="translate(16.55 370.25) rotate(-56.57)"/><rect class="cls-25" x="347.47" y="27.46" width="4.59" height="292.23" transform="translate(12.22 369.86) rotate(-56.57)"/><rect class="cls-26" x="344.94" y="31.29" width="4.59" height="292.23" transform="matrix(0.55, -0.83, 0.83, 0.55, 7.89, 369.47)"/><rect class="cls-27" x="342.41" y="35.13" width="4.59" height="292.23" transform="translate(3.55 369.08) rotate(-56.57)"/><rect class="cls-28" x="339.88" y="38.96" width="4.59" height="292.23" transform="translate(-0.78 368.69) rotate(-56.57)"/><rect class="cls-29" x="337.35" y="42.79" width="4.59" height="292.23" transform="translate(-5.11 368.3) rotate(-56.57)"/><rect class="cls-30" x="334.83" y="46.62" width="4.59" height="292.23" transform="translate(-9.45 367.91) rotate(-56.57)"/><rect class="cls-31" x="332.3" y="50.45" width="4.59" height="292.23" transform="translate(-13.78 367.52) rotate(-56.57)"/><rect class="cls-32" x="329.77" y="54.28" width="4.59" height="292.23" transform="translate(-18.11 367.13) rotate(-56.57)"/><rect class="cls-33" x="327.24" y="58.11" width="4.59" height="292.23" transform="translate(-22.45 366.74) rotate(-56.57)"/><rect class="cls-34" x="324.71" y="61.94" width="4.59" height="292.23" transform="translate(-26.78 366.35) rotate(-56.57)"/><rect class="cls-35" x="322.18" y="65.77" width="4.59" height="292.23" transform="translate(-31.11 365.96) rotate(-56.57)"/><rect class="cls-36" x="319.65" y="69.6" width="4.59" height="292.23" transform="translate(-35.44 365.57) rotate(-56.57)"/><rect class="cls-37" x="317.12" y="73.44" width="4.59" height="292.23" transform="translate(-39.78 365.18) rotate(-56.57)"/><rect class="cls-38" x="314.6" y="77.27" width="4.59" height="292.23" transform="translate(-44.11 364.79) rotate(-56.57)"/><rect class="cls-39" x="312.07" y="81.1" width="4.59" height="292.23" transform="translate(-48.44 364.4) rotate(-56.57)"/><rect class="cls-40" x="309.54" y="84.93" width="4.59" height="292.23" transform="translate(-52.78 364.01) rotate(-56.57)"/><rect class="cls-41" x="307.01" y="88.76" width="4.59" height="292.23" transform="translate(-57.11 363.62) rotate(-56.57)"/><rect class="cls-42" x="304.48" y="92.59" width="4.59" height="292.23" transform="translate(-61.44 363.23) rotate(-56.57)"/><rect class="cls-43" x="301.95" y="96.42" width="4.59" height="292.23" transform="translate(-65.78 362.84) rotate(-56.57)"/><rect class="cls-44" x="299.42" y="100.25" width="4.59" height="292.23" transform="translate(-70.11 362.45) rotate(-56.57)"/><rect class="cls-45" x="296.89" y="104.08" width="4.59" height="292.23" transform="translate(-74.44 362.06) rotate(-56.57)"/><rect class="cls-46" x="294.36" y="107.91" width="4.59" height="292.23" transform="translate(-78.77 361.67) rotate(-56.57)"/><rect class="cls-47" x="291.84" y="111.75" width="4.59" height="292.23" transform="translate(-83.11 361.28) rotate(-56.57)"/><rect class="cls-48" x="289.31" y="115.58" width="4.59" height="292.23" transform="translate(-87.44 360.89) rotate(-56.57)"/><rect class="cls-49" x="286.78" y="119.41" width="4.59" height="292.23" transform="translate(-91.77 360.5) rotate(-56.57)"/><rect class="cls-50" x="284.25" y="123.24" width="4.59" height="292.23" transform="translate(-96.11 360.11) rotate(-56.57)"/><rect class="cls-51" x="281.72" y="127.07" width="4.59" height="292.23" transform="matrix(0.55, -0.83, 0.83, 0.55, -100.44, 359.72)"/><rect class="cls-52" x="279.19" y="130.9" width="4.59" height="292.23" transform="translate(-104.77 359.33) rotate(-56.57)"/><rect class="cls-53" x="276.66" y="134.73" width="4.59" height="292.23" transform="translate(-109.11 358.94) rotate(-56.57)"/><rect class="cls-54" x="274.13" y="138.56" width="4.59" height="292.23" transform="translate(-113.44 358.55) rotate(-56.57)"/><rect class="cls-55" x="271.6" y="142.39" width="4.59" height="292.23" transform="translate(-117.77 358.16) rotate(-56.57)"/><rect class="cls-56" x="269.08" y="146.23" width="4.59" height="292.23" transform="translate(-122.1 357.77) rotate(-56.57)"/><rect class="cls-57" x="266.55" y="150.06" width="4.59" height="292.23" transform="translate(-126.44 357.38) rotate(-56.57)"/><polygon class="cls-58" points="389.52 378.58 386.99 382.41 143.55 221.72 143.55 220.75 145.64 217.59 389.52 378.58"/><polygon class="cls-59" points="386.99 382.41 384.46 386.24 143.55 227.22 143.55 221.72 386.99 382.41"/><polygon class="cls-60" points="384.46 386.24 381.93 390.07 143.55 232.72 143.55 227.22 384.46 386.24"/><polygon class="cls-61" points="381.93 390.07 379.4 393.9 143.55 238.22 143.55 232.72 381.93 390.07"/><polygon class="cls-62" points="379.4 393.9 376.88 397.73 143.55 243.72 143.55 238.22 379.4 393.9"/><polygon class="cls-63" points="376.88 397.73 376.76 397.91 368.81 397.91 143.55 249.22 143.55 243.72 376.88 397.73"/><polygon class="cls-64" points="360.48 397.91 143.55 254.72 143.55 249.22 368.81 397.91 360.48 397.91"/><polygon class="cls-65" points="352.15 397.91 143.55 260.22 143.55 254.72 360.48 397.91 352.15 397.91"/><polygon class="cls-66" points="343.82 397.91 143.55 265.72 143.55 260.22 352.15 397.91 343.82 397.91"/><polygon class="cls-67" points="335.48 397.91 143.55 271.22 143.55 265.72 343.82 397.91 335.48 397.91"/><polygon class="cls-68" points="327.15 397.91 143.55 276.72 143.55 271.22 335.48 397.91 327.15 397.91"/><polygon class="cls-69" points="318.82 397.91 143.55 282.22 143.55 276.72 327.15 397.91 318.82 397.91"/><polygon class="cls-70" points="310.49 397.91 143.55 287.72 143.55 282.22 318.82 397.91 310.49 397.91"/><polygon class="cls-71" points="302.15 397.91 143.55 293.22 143.55 287.72 310.49 397.91 302.15 397.91"/><polygon class="cls-71" points="143.55 293.22 302.15 397.91 143.55 397.91 143.55 293.22"/></g><rect class="cls-72" x="287.03" y="199.36" width="55.08" height="55.08" transform="translate(252.57 -155.98) rotate(45)"/><path class="cls-73" d="M314.57,360.16,181.3,226.89,314.57,93.62,447.84,226.89ZM183.69,226.89,314.57,357.77,445.45,226.89,314.57,96Z"/><g class="cls-2"><rect class="cls-3" x="63.83" y="143.46" width="189.5" height="189.5" transform="translate(214.89 -42.36) rotate(45)"/></g><g class="cls-75"><polygon class="cls-3" points="259.58 189.83 179.86 137.21 259.58 137.21 259.58 189.83"/><polygon class="cls-3" points="259.58 193.08 174.94 137.21 179.86 137.21 259.58 189.83 259.58 193.08"/><polygon class="cls-5" points="259.58 196.33 170.02 137.21 174.94 137.21 259.58 193.08 259.58 196.33"/><polygon class="cls-6" points="259.58 199.57 165.1 137.21 170.02 137.21 259.58 196.33 259.58 199.57"/><polygon class="cls-7" points="259.58 202.82 160.18 137.21 165.1 137.21 259.58 199.57 259.58 202.82"/><polygon class="cls-8" points="259.58 206.07 155.26 137.21 160.18 137.21 259.58 202.82 259.58 206.07"/><polygon class="cls-9" points="259.58 209.32 150.34 137.21 155.26 137.21 259.58 206.07 259.58 209.32"/><polygon class="cls-10" points="259.58 212.57 145.42 137.21 150.34 137.21 259.58 209.32 259.58 212.57"/><polygon class="cls-11" points="259.58 215.82 140.5 137.21 145.42 137.21 259.58 212.57 259.58 215.82"/><polygon class="cls-12" points="259.58 219.06 135.57 137.21 140.5 137.21 259.58 215.82 259.58 219.06"/><polygon class="cls-13" points="259.58 222.31 130.65 137.21 135.57 137.21 259.58 219.06 259.58 222.31"/><polygon class="cls-14" points="259.58 225.56 125.73 137.21 130.65 137.21 259.58 222.31 259.58 225.56"/><polygon class="cls-15" points="259.58 228.81 121.54 137.69 121.85 137.21 125.73 137.21 259.58 225.56 259.58 228.81"/><polygon class="cls-16" points="259.58 232.06 120.04 139.95 121.54 137.69 259.58 228.81 259.58 232.06"/><polygon class="cls-17" points="259.58 235.31 118.55 142.21 120.04 139.95 259.58 232.06 259.58 235.31"/><polygon class="cls-18" points="259.58 238.56 117.06 144.48 118.55 142.21 259.58 235.31 259.58 238.56"/><polygon class="cls-19" points="259.58 241.8 115.56 146.74 117.06 144.48 259.58 238.56 259.58 241.8"/><polygon class="cls-20" points="259.58 241.84 258.1 244.08 114.07 149 115.56 146.74 259.58 241.8 259.58 241.84"/><rect class="cls-21" x="183.98" y="111.38" width="2.71" height="172.58" transform="translate(-81.73 243.45) rotate(-56.57)"/><rect class="cls-22" x="182.49" y="113.64" width="2.71" height="172.58" transform="translate(-84.29 243.22) rotate(-56.57)"/><rect class="cls-23" x="181" y="115.9" width="2.71" height="172.58" transform="translate(-86.85 242.99) rotate(-56.57)"/><rect class="cls-24" x="179.5" y="118.17" width="2.71" height="172.58" transform="translate(-89.41 242.76) rotate(-56.57)"/><rect class="cls-25" x="178.01" y="120.43" width="2.71" height="172.58" transform="translate(-91.97 242.53) rotate(-56.57)"/><rect class="cls-26" x="176.52" y="122.69" width="2.71" height="172.58" transform="translate(-94.53 242.3) rotate(-56.57)"/><rect class="cls-27" x="175.02" y="124.95" width="2.71" height="172.58" transform="translate(-97.09 242.07) rotate(-56.57)"/><rect class="cls-28" x="173.53" y="127.22" width="2.71" height="172.58" transform="translate(-99.65 241.84) rotate(-56.57)"/><rect class="cls-29" x="172.04" y="129.48" width="2.71" height="172.58" transform="translate(-102.21 241.61) rotate(-56.57)"/><rect class="cls-30" x="170.54" y="131.74" width="2.71" height="172.58" transform="matrix(0.55, -0.83, 0.83, 0.55, -104.77, 241.38)"/><rect class="cls-31" x="169.05" y="134" width="2.71" height="172.58" transform="translate(-107.32 241.15) rotate(-56.57)"/><rect class="cls-32" x="167.55" y="136.27" width="2.71" height="172.58" transform="translate(-109.88 240.92) rotate(-56.57)"/><rect class="cls-33" x="166.06" y="138.53" width="2.71" height="172.58" transform="translate(-112.44 240.69) rotate(-56.57)"/><rect class="cls-34" x="164.57" y="140.79" width="2.71" height="172.58" transform="translate(-115 240.46) rotate(-56.57)"/><rect class="cls-35" x="163.07" y="143.05" width="2.71" height="172.58" transform="translate(-117.56 240.23) rotate(-56.57)"/><rect class="cls-36" x="161.58" y="145.32" width="2.71" height="172.58" transform="translate(-120.12 240) rotate(-56.57)"/><rect class="cls-37" x="160.09" y="147.58" width="2.71" height="172.58" transform="translate(-122.68 239.77) rotate(-56.57)"/><rect class="cls-38" x="158.59" y="149.84" width="2.71" height="172.58" transform="matrix(0.55, -0.83, 0.83, 0.55, -125.24, 239.54)"/><rect class="cls-39" x="157.1" y="152.1" width="2.71" height="172.58" transform="translate(-127.8 239.31) rotate(-56.57)"/><rect class="cls-40" x="155.61" y="154.37" width="2.71" height="172.58" transform="translate(-130.36 239.08) rotate(-56.57)"/><rect class="cls-41" x="154.11" y="156.63" width="2.71" height="172.58" transform="translate(-132.91 238.85) rotate(-56.57)"/><rect class="cls-42" x="152.62" y="158.89" width="2.71" height="172.58" transform="matrix(0.55, -0.83, 0.83, 0.55, -135.47, 238.62)"/><rect class="cls-43" x="151.13" y="161.16" width="2.71" height="172.58" transform="translate(-138.03 238.39) rotate(-56.57)"/><rect class="cls-44" x="149.63" y="163.42" width="2.71" height="172.58" transform="translate(-140.59 238.16) rotate(-56.57)"/><rect class="cls-45" x="148.14" y="165.68" width="2.71" height="172.58" transform="translate(-143.15 237.92) rotate(-56.57)"/><rect class="cls-46" x="146.65" y="167.94" width="2.71" height="172.58" transform="translate(-145.71 237.69) rotate(-56.57)"/><rect class="cls-47" x="145.15" y="170.21" width="2.71" height="172.58" transform="translate(-148.27 237.46) rotate(-56.57)"/><rect class="cls-48" x="143.66" y="172.47" width="2.71" height="172.58" transform="translate(-150.83 237.23) rotate(-56.57)"/><rect class="cls-49" x="142.17" y="174.73" width="2.71" height="172.58" transform="matrix(0.55, -0.83, 0.83, 0.55, -153.39, 237)"/><rect class="cls-50" x="140.67" y="176.99" width="2.71" height="172.58" transform="translate(-155.95 236.77) rotate(-56.57)"/><rect class="cls-51" x="139.18" y="179.26" width="2.71" height="172.58" transform="translate(-158.5 236.54) rotate(-56.57)"/><rect class="cls-52" x="137.68" y="181.52" width="2.71" height="172.58" transform="translate(-161.06 236.31) rotate(-56.57)"/><rect class="cls-53" x="136.19" y="183.78" width="2.71" height="172.58" transform="matrix(0.55, -0.83, 0.83, 0.55, -163.62, 236.08)"/><rect class="cls-54" x="134.7" y="186.04" width="2.71" height="172.58" transform="translate(-166.18 235.85) rotate(-56.57)"/><rect class="cls-55" x="133.2" y="188.31" width="2.71" height="172.58" transform="translate(-168.74 235.62) rotate(-56.57)"/><rect class="cls-56" x="131.71" y="190.57" width="2.71" height="172.58" transform="translate(-171.3 235.39) rotate(-56.57)"/><rect class="cls-57" x="130.22" y="192.83" width="2.71" height="172.58" transform="translate(-173.86 235.16) rotate(-56.57)"/><polygon class="cls-58" points="202.84 327.79 201.35 330.05 57.58 235.15 57.58 234.58 58.81 232.72 202.84 327.79"/><polygon class="cls-59" points="201.35 330.05 199.86 332.32 57.58 238.4 57.58 235.15 201.35 330.05"/><polygon class="cls-60" points="199.86 332.32 198.36 334.58 57.58 241.65 57.58 238.4 199.86 332.32"/><polygon class="cls-61" points="198.36 334.58 196.87 336.84 57.58 244.9 57.58 241.65 198.36 334.58"/><polygon class="cls-62" points="196.87 336.84 195.38 339.1 57.58 248.15 57.58 244.9 196.87 336.84"/><polygon class="cls-63" points="195.38 339.1 195.31 339.21 190.61 339.21 57.58 251.39 57.58 248.15 195.38 339.1"/><polygon class="cls-64" points="185.69 339.21 57.58 254.64 57.58 251.39 190.61 339.21 185.69 339.21"/><polygon class="cls-65" points="180.77 339.21 57.58 257.89 57.58 254.64 185.69 339.21 180.77 339.21"/><polygon class="cls-66" points="175.85 339.21 57.58 261.14 57.58 257.89 180.77 339.21 175.85 339.21"/><polygon class="cls-67" points="170.93 339.21 57.58 264.39 57.58 261.14 175.85 339.21 170.93 339.21"/><polygon class="cls-68" points="166.01 339.21 57.58 267.64 57.58 264.39 170.93 339.21 166.01 339.21"/><polygon class="cls-69" points="161.09 339.21 57.58 270.88 57.58 267.64 166.01 339.21 161.09 339.21"/><polygon class="cls-70" points="156.17 339.21 57.58 274.13 57.58 270.88 161.09 339.21 156.17 339.21"/><polygon class="cls-71" points="151.25 339.21 57.58 277.38 57.58 274.13 156.17 339.21 151.25 339.21"/><polygon class="cls-71" points="57.58 277.38 151.25 339.21 57.58 339.21 57.58 277.38"/></g><rect class="cls-72" x="142.32" y="221.95" width="32.53" height="32.53" transform="translate(214.89 -42.36) rotate(45)"/><path class="cls-73" d="M158.58,316.92,79.87,238.21l78.71-78.71,78.71,78.71ZM81.29,238.21l77.29,77.29,77.29-77.29-77.29-77.29Z"/></g></g></svg>