<svg xmlns="http://www.w3.org/2000/svg" xmlns:xlink="http://www.w3.org/1999/xlink" viewBox="0 0 703.65 161.73"><defs><style>.cls-1{fill:url(#linear-gradient);}.cls-2{fill:#5bd8a5;}.cls-3{fill:url(#linear-gradient-2);}.cls-4{fill:#000d06;}.cls-5{fill:url(#linear-gradient-3);}</style><linearGradient id="linear-gradient" x1="601.76" y1="-215.63" x2="365.99" y2="140.34" gradientUnits="userSpaceOnUse"><stop offset="0" stop-color="#012615"/><stop offset="1" stop-color="#05a66b"/></linearGradient><linearGradient id="linear-gradient-2" x1="209.66" y1="256.28" x2="641.09" y2="-30.67" xlink:href="#linear-gradient"/><linearGradient id="linear-gradient-3" x1="791.77" y1="-50.39" x2="105.76" y2="280.36" xlink:href="#linear-gradient"/></defs><title>footer_curves</title><g id="Layer_2" data-name="Layer 2"><g id="OBJECTS"><path class="cls-1" d="M703.65,0c-36.13,26.72-91,64.46-186,93.31C323.41,152.32,78.44,161.73,0,161.73H703.65Z"/><path class="cls-2" d="M703.65,31.22c-36.13,21.56-91,52-186,75.3C323.41,154.13,78.44,161.73,0,161.73H703.65Z"/><path class="cls-3" d="M703.65,36.71c-36.13,20.65-91,49.82-186,72.13C323.41,154.45,78.44,161.73,0,161.73H703.65Z"/><path class="cls-4" d="M703.65,92.62c-36.13,11.42-91,27.54-186,39.87C323.41,157.7,78.44,161.73,0,161.73H703.65Z"/><path class="cls-5" d="M703.65,96.47c-36.13,10.78-91,26-186,37.65C323.41,157.93,78.44,161.73,0,161.73H703.65Z"/></g></g></svg>