<svg xmlns="http://www.w3.org/2000/svg" xmlns:xlink="http://www.w3.org/1999/xlink" version="1.1" x="0px" y="0px" viewBox="0 0 100 125" style="enable-background:new 0 0 100 100;" xml:space="preserve">
    <g>
        <path d="M33.452,12.644c-3.625,0-6.574,2.949-6.574,6.574s2.949,6.574,6.574,6.574c3.625,0,6.574-2.949,6.574-6.574   S37.077,12.644,33.452,12.644z M33.452,22.917c-2.04,0-3.7-1.659-3.7-3.699s1.66-3.699,3.7-3.699c2.04,0,3.699,1.659,3.699,3.699   S35.491,22.917,33.452,22.917z" />
        <path d="M59.975,19.218c0,3.625,2.949,6.574,6.574,6.574c3.625,0,6.574-2.949,6.574-6.574s-2.949-6.574-6.574-6.574   C62.924,12.644,59.975,15.592,59.975,19.218z M70.248,19.218c0,2.04-1.66,3.699-3.7,3.699c-2.04,0-3.699-1.659-3.699-3.699   s1.66-3.699,3.699-3.699C68.589,15.518,70.248,17.177,70.248,19.218z" />
        <path d="M10.329,27.278c0,3.625,2.949,6.575,6.574,6.575c3.625,0,6.574-2.95,6.574-6.575s-2.949-6.574-6.574-6.574   C13.279,20.704,10.329,23.652,10.329,27.278z M16.903,23.578c2.04,0,3.7,1.659,3.7,3.699s-1.66,3.7-3.7,3.7   c-2.04,0-3.699-1.66-3.699-3.7S14.864,23.578,16.903,23.578z" />
        <path d="M50,20.704c-3.625,0-6.574,2.949-6.574,6.574s2.949,6.575,6.574,6.575c3.625,0,6.574-2.95,6.574-6.575   S53.625,20.704,50,20.704z M50,30.978c-2.04,0-3.699-1.66-3.699-3.7s1.66-3.699,3.699-3.699c2.04,0,3.7,1.659,3.7,3.699   S52.04,30.978,50,30.978z" />
        <path d="M80.417,36.78c-0.675,0-1.345,0.082-2.001,0.227c-0.17-2.093-1.059-4.037-2.556-5.535   c-1.749-1.749-4.166-2.752-6.631-2.752h-5.36c-2.465,0-4.882,1.003-6.632,2.752c-1.497,1.498-2.385,3.442-2.556,5.535   c-0.656-0.145-1.326-0.227-2.001-0.227h-5.36c-0.676,0-1.346,0.082-2.001,0.227c-0.17-2.093-1.059-4.037-2.556-5.535   c-1.749-1.749-4.166-2.752-6.631-2.752h-5.36c-2.465,0-4.882,1.003-6.632,2.752c-1.497,1.498-2.386,3.442-2.556,5.535   c-0.655-0.145-1.325-0.227-2.001-0.227h-5.36c-2.465,0-4.882,1.003-6.631,2.753C5.92,41.204,5,43.43,5,45.802V58.84   c0,2.32,0.94,4.59,2.57,6.221l0.803,0.816c1.368,1.357,2.121,3.17,2.121,5.104v16.375h2.875v0V70.981   c0-2.706-1.055-5.243-2.959-7.132l-0.799-0.812c-1.104-1.104-1.737-2.633-1.737-4.197V45.802c0-1.603,0.621-3.108,1.75-4.236   c1.214-1.215,2.89-1.911,4.598-1.911h5.36c1.708,0,3.384,0.696,4.598,1.911c1.129,1.129,1.75,2.632,1.75,4.236V58.84   c0,1.564-0.633,3.094-1.745,4.205l-0.778,0.792c-1.917,1.901-2.972,4.438-2.972,7.144v16.375v0h2.875V70.981   c0-1.934,0.753-3.747,2.134-5.116l0.782-0.795c0.298-0.298,0.564-0.623,0.815-0.959v15.186h2.875v0V62.921   c0-1.632-0.39-3.199-1.111-4.602V45.802c0-2.371-0.921-4.598-2.592-6.269c-0.538-0.538-1.145-0.996-1.792-1.386v-0.405   c0-1.603,0.621-3.109,1.75-4.237c1.214-1.214,2.89-1.91,4.598-1.91h5.36c1.708,0,3.384,0.696,4.598,1.91   c1.129,1.129,1.75,2.634,1.75,4.237v0.406c-0.646,0.389-1.253,0.847-1.791,1.386c-1.671,1.67-2.592,3.898-2.592,6.269v12.521   c-0.722,1.404-1.111,2.969-1.111,4.599v16.375v0h2.875V64.111c0.248,0.333,0.512,0.655,0.807,0.95l0.803,0.816   c1.367,1.357,2.121,3.17,2.121,5.104v16.375h2.875v0V70.981c0-2.706-1.055-5.244-2.959-7.132l-0.799-0.812   c-1.103-1.103-1.736-2.633-1.736-4.197V45.802c0-1.604,0.621-3.108,1.75-4.236c1.214-1.215,2.89-1.911,4.598-1.911h5.36   c1.708,0,3.384,0.696,4.598,1.911c1.129,1.129,1.75,2.632,1.75,4.236V58.84c0,1.564-0.633,3.094-1.745,4.205l-0.778,0.792   c-1.916,1.9-2.971,4.438-2.971,7.144v16.375v0h2.875V70.981c0-1.934,0.753-3.747,2.133-5.116l0.782-0.795   c0.298-0.298,0.565-0.623,0.815-0.96v15.187h2.875v0V62.921c0-1.632-0.39-3.199-1.111-4.602V45.802   c0-2.371-0.921-4.598-2.592-6.269c-0.538-0.538-1.145-0.996-1.791-1.386v-0.405c0-1.603,0.621-3.109,1.749-4.237   c1.214-1.214,2.89-1.91,4.598-1.91h5.36c1.708,0,3.384,0.696,4.598,1.91c1.129,1.129,1.75,2.634,1.75,4.237v0.405   c-0.646,0.39-1.253,0.848-1.791,1.386c-1.671,1.67-2.592,3.898-2.592,6.269v12.521c-0.722,1.404-1.111,2.969-1.111,4.599v16.375v0   h2.875V64.111c0.248,0.333,0.512,0.655,0.807,0.95l0.803,0.816c1.368,1.357,2.121,3.17,2.121,5.104v16.375h2.875v0V70.981   c0-2.706-1.055-5.243-2.959-7.132l-0.799-0.812c-1.103-1.103-1.736-2.633-1.736-4.197V45.802c0-1.604,0.621-3.108,1.75-4.236   c1.214-1.215,2.89-1.911,4.598-1.911h5.36c1.708,0,3.384,0.696,4.598,1.911c1.128,1.129,1.749,2.632,1.749,4.236V58.84   c0,1.564-0.633,3.094-1.745,4.205l-0.777,0.792c-1.917,1.901-2.972,4.438-2.972,7.144v16.375v0h2.875V70.981   c0-1.934,0.753-3.747,2.134-5.116l0.781-0.795C94.06,63.431,95,61.161,95,58.84V45.802c0-2.371-0.92-4.598-2.591-6.269   c-1.749-1.75-4.166-2.753-6.632-2.753H80.417z" />
        <path d="M83.097,33.852c3.625,0,6.574-2.95,6.574-6.575s-2.949-6.574-6.574-6.574c-3.625,0-6.574,2.949-6.574,6.574   S79.472,33.852,83.097,33.852z M83.097,23.578c2.04,0,3.699,1.659,3.699,3.699s-1.66,3.7-3.699,3.7c-2.04,0-3.7-1.66-3.7-3.7   S81.057,23.578,83.097,23.578z" />
    </g>
</svg>