<svg xmlns="http://www.w3.org/2000/svg" viewBox="0 0 21 26.25" x="0px" y="0px">
    <path d="M407,11.5 C407,17.2992375 402.299136,22 396.5,22 C390.701241,22 386,17.2990449 386,11.5 C386,5.70095513 390.701241,1 396.5,1 C402.299136,1 407,5.70076251 407,11.5 Z M406.095694,11.5 C406.095694,6.20020142 401.799706,1.90430622 396.5,1.90430622 C391.200663,1.90430622 386.904306,6.20040197 386.904306,11.5 C386.904306,16.799598 391.200663,21.0956938 396.5,21.0956938 C401.799706,21.0956938 406.095694,16.7997986 406.095694,11.5 Z M396.513879,17.5 C395.961594,17.5 395.513879,17.0522847 395.513879,16.5 C395.513879,15.9477153 395.961594,15.5 396.513879,15.5 C397.066164,15.5 397.513879,15.9477153 397.513879,16.5 C397.513879,17.0522847 397.066164,17.5 396.513879,17.5 Z M399.513879,8.500126 C399.513879,9.98662414 398.432736,11.2206077 397.013879,11.4586468 L397.013879,13.96953 L396.013879,13.96953 L396.013879,10.500126 L396.513879,10.500126 C397.618448,10.500126 398.513879,9.6046955 398.513879,8.500126 C398.513879,7.39546368 397.618453,6.5 396.513879,6.5 C395.409312,6.5 394.513879,7.39545589 394.513879,8.500063 L394.513879,9.000063 L393.513879,9.000063 L393.513879,8.500063 C393.513879,6.84317678 394.857022,5.5 396.513879,5.5 C398.170748,5.5 399.513879,6.84318847 399.513879,8.500126 Z" transform="translate(-386 -1)" />
</svg>