<svg xmlns="http://www.w3.org/2000/svg" xmlns:xlink="http://www.w3.org/1999/xlink" version="1.1" x="0px" y="0px" viewBox="0 0 100 125" style="enable-background:new 0 0 100 100;" xml:space="preserve">
	<style type="text/css">
	.st0{fill:none;stroke:#000000;stroke-width:2;stroke-linecap:round;stroke-linejoin:round;stroke-miterlimit:10;}
</style>
	<path d="M49.5,15.7c-19.9,0-36,16.1-36,36c0,11.2,5.2,21.2,13.2,27.8c0,0,0,0,0,0.1c1.3,1.1,2.7,2,4.1,2.9c0,0,0.1,0.1,0.1,0.1  c0.4,0.2,0.8,0.5,1.2,0.7c0.2,0.1,0.4,0.2,0.5,0.3c0.3,0.1,0.5,0.3,0.8,0.4c0.3,0.1,0.5,0.3,0.8,0.4c0.2,0.1,0.4,0.2,0.5,0.2  c0.3,0.2,0.7,0.3,1,0.4c0.1,0,0.2,0.1,0.3,0.1c2.2,0.9,4.5,1.6,7,2c0.1,0,0.2,0,0.4,0.1c0.4,0.1,0.7,0.1,1.1,0.2  c0.2,0,0.4,0.1,0.6,0.1c0.3,0,0.6,0.1,0.9,0.1c0.3,0,0.6,0,0.9,0.1c0.2,0,0.5,0,0.7,0c0.6,0,1.1,0,1.7,0s1.1,0,1.7,0  c0.2,0,0.5,0,0.7,0c0.3,0,0.6,0,0.9-0.1c0.3,0,0.6-0.1,0.9-0.1c0.2,0,0.4-0.1,0.6-0.1c0.4-0.1,0.7-0.1,1.1-0.2c0.1,0,0.2,0,0.4-0.1  c2.4-0.4,4.7-1.1,7-2c0.1,0,0.2-0.1,0.3-0.1c0.3-0.1,0.7-0.3,1-0.4c0.2-0.1,0.4-0.2,0.5-0.2c0.3-0.1,0.5-0.3,0.8-0.4  c0.3-0.1,0.6-0.3,0.8-0.4c0.2-0.1,0.4-0.2,0.5-0.3c0.4-0.2,0.8-0.5,1.2-0.7c0,0,0.1-0.1,0.1-0.1c1.4-0.9,2.8-1.8,4.1-2.9  c0,0,0,0,0.1-0.1c8-6.6,13.2-16.6,13.2-27.8C85.5,31.9,69.4,15.7,49.5,15.7z M65.8,81.6c-0.1,0.1-0.3,0.2-0.4,0.2  c-0.3,0.1-0.6,0.3-0.8,0.4c-0.3,0.1-0.5,0.3-0.8,0.4c-0.2,0.1-0.3,0.1-0.5,0.2c-0.3,0.1-0.7,0.3-1,0.4c-0.1,0-0.2,0.1-0.3,0.1  c-0.4,0.2-0.8,0.3-1.2,0.4c0,0,0,0-0.1,0c-1.7,0.6-3.5,1-5.2,1.4c-0.1,0-0.2,0-0.3,0.1c-0.3,0.1-0.7,0.1-1,0.2  c-0.2,0-0.4,0.1-0.6,0.1c-0.3,0-0.6,0.1-0.9,0.1c-0.3,0-0.6,0-0.9,0.1c-0.2,0-0.4,0-0.7,0c-0.5,0-1.1,0-1.6,0c-0.5,0-1.1,0-1.6,0  c-0.2,0-0.4,0-0.7,0c-0.3,0-0.6,0-0.9-0.1c-0.3,0-0.6-0.1-0.9-0.1c-0.2,0-0.4,0-0.6-0.1c-0.3,0-0.7-0.1-1-0.2c-0.1,0-0.2,0-0.3-0.1  c-1.8-0.3-3.5-0.8-5.3-1.4c0,0,0,0,0,0c-0.4-0.1-0.8-0.3-1.2-0.4c-0.1,0-0.2-0.1-0.3-0.1c-0.3-0.1-0.7-0.3-1-0.4  c-0.2-0.1-0.3-0.1-0.5-0.2c-0.3-0.1-0.5-0.3-0.8-0.4c-0.3-0.1-0.6-0.3-0.8-0.4c-0.2-0.1-0.3-0.2-0.5-0.2c-1.7-0.9-3.3-2-4.9-3.2  c0.2-11.5,9.6-20.8,21.1-20.8c11.5,0,20.9,9.3,21.1,20.8C69.1,79.5,67.5,80.6,65.8,81.6z M72.6,76.7c-0.8-9.9-7.9-18-17.2-20.4  C60.4,54,64,49,64,43.1c0-8-6.5-14.4-14.4-14.4s-14.4,6.5-14.4,14.4c0,5.9,3.5,10.9,8.6,13.2c-9.3,2.4-16.4,10.6-17.2,20.4  c-6.7-6.2-11-15.1-11-25c0-18.7,15.3-34,34-34s34,15.3,34,34C83.5,61.6,79.3,70.5,72.6,76.7z M49.5,55.5c-6.9,0-12.4-5.6-12.4-12.4  c0-6.9,5.6-12.4,12.4-12.4c6.8,0,12.4,5.6,12.4,12.4C62,49.9,56.4,55.5,49.5,55.5z" />

</svg>