<svg xmlns="http://www.w3.org/2000/svg" xmlns:xlink="http://www.w3.org/1999/xlink" version="1.1" x="0px" y="0px" viewBox="0 0 64 80" style="enable-background:new 0 0 64 64;" xml:space="preserve"><g><path d="M16.5,55.4H9.8c-0.5,0-1,0.4-1,1V63c0,0.5,0.4,1,1,1h6.6c0.5,0,1-0.4,1-1v-6.6C17.5,55.8,17,55.4,16.5,55.4z"/><path d="M15.4,46.1H22c0.5,0,1-0.4,1-1v-6.6c0-0.5-0.4-1-1-1h-6.6c-0.5,0-1,0.4-1,1v6.6C14.4,45.7,14.8,46.1,15.4,46.1z"/><path d="M27.6,55.4h-6.6c-0.5,0-1,0.4-1,1V63c0,0.5,0.4,1,1,1h6.6c0.5,0,1-0.4,1-1v-6.6C28.5,55.8,28.1,55.4,27.6,55.4z"/><path d="M54.2,55.4h-6.6c-0.5,0-1,0.4-1,1V63c0,0.5,0.4,1,1,1h6.6c0.5,0,1-0.4,1-1v-6.6C55.1,55.8,54.7,55.4,54.2,55.4z"/><path d="M43.1,55.4h-6.6c-0.5,0-1,0.4-1,1V63c0,0.5,0.4,1,1,1h6.6c0.5,0,1-0.4,1-1v-6.6C44.1,55.8,43.6,55.4,43.1,55.4z"/><path d="M41,38.5v6.6c0,0.5,0.4,1,1,1h6.6c0.5,0,1-0.4,1-1v-6.6c0-0.5-0.4-1-1-1H42C41.4,37.5,41,38,41,38.5z"/><path d="M13.2,54c0.5,0,1-0.4,1-1v-1.2h9.1v1.2c0,0.5,0.4,1,1,1c0.5,0,1-0.4,1-1v-2.2c0-0.5-0.4-1-1-1h-4.6v-1.2c0-0.5-0.4-1-1-1   c-0.5,0-1,0.4-1,1v1.2h-4.6c-0.5,0-1,0.4-1,1v2.2C12.2,53.6,12.6,54,13.2,54z"/><path d="M46.3,48.6c0-0.5-0.4-1-1-1c-0.5,0-1,0.4-1,1v1.2h-4.6c-0.5,0-1,0.4-1,1v2.2c0,0.5,0.4,1,1,1s1-0.4,1-1v-1.2h9.1v1.2   c0,0.5,0.4,1,1,1s1-0.4,1-1v-2.2c0-0.5-0.4-1-1-1h-4.6V48.6z"/><path d="M44.3,35c0,0.5,0.4,1,1,1c0.5,0,1-0.4,1-1v-2.2c0-0.5-0.4-1-1-1H33v-1.2c0-0.5-0.4-1-1-1s-1,0.4-1,1v1.2H18.7   c-0.5,0-1,0.4-1,1V35c0,0.5,0.4,1,1,1c0.5,0,1-0.4,1-1v-1.2H32h12.3V35z"/><rect x="28.3" y="16.8" width="7.4" height="2.2"/><path d="M27.6,22.1h-0.2c-0.5,0-1,0.4-1,1v4.1c0,0.5,0.4,1,1,1h9.1c0.5,0,1-0.4,1-1V23c0-0.5-0.4-1-1-1h-0.2L36,20.9H28L27.6,22.1z   "/><path d="M27.4,9l0.8,5.9h7.7L36.6,9l3.6-7.6c0.1-0.3,0.1-0.7-0.1-0.9C39.9,0.2,39.6,0,39.3,0H24.7c-0.3,0-0.6,0.2-0.8,0.4   c-0.2,0.3-0.2,0.6-0.1,0.9L27.4,9z"/></g></svg>