<svg xmlns="http://www.w3.org/2000/svg" viewBox="0 0 32 40" x="0px" y="0px"><title>account profile user </title><g data-name="Layer 23"><path d="M16,13.5a3,3,0,1,0-3-3A3,3,0,0,0,16,13.5Zm0-4a1,1,0,1,1-1,1A1,1,0,0,1,16,9.5Z"/><path d="M30,27,26.42,17a3,3,0,0,0-2.83-2h-.41a14.79,14.79,0,0,0,1.53-5.29,8.71,8.71,0,0,0-17.42,0A14.79,14.79,0,0,0,8.82,15H8.41a3,3,0,0,0-2.83,2L2,27a3,3,0,0,0,2.83,4H27.16A3,3,0,0,0,30,27ZM16,3a6.72,6.72,0,0,1,6.71,6.71c0,.77-.34,2.41-2,5.86l-.54,1.1L20,17c-.13.26-.26.52-.41.8l-.23.44q-.21.38-.42.78c-.08.15-.17.3-.25.46l-.63,1.12a1,1,0,0,1-.08.14c-.39.69-.77,1.34-1.11,1.92l0,.05a1,1,0,0,1-1.7,0l0-.07a3.62,3.62,0,0,1-.2-.33l-.34-.58c-.18-.31-.38-.64-.57-1s-.5-.89-.73-1.32c-.07-.11-.13-.23-.19-.34l-.48-.9-.2-.37c-.16-.3-.31-.59-.45-.88,0-.08-.09-.17-.13-.25-.19-.38-.38-.75-.55-1.11-1.64-3.44-2-5.09-2-5.86A6.72,6.72,0,0,1,16,3ZM28,28.58a1,1,0,0,1-.82.42H4.84A1,1,0,0,1,4,28.58a1,1,0,0,1-.12-.92l3.57-10A1,1,0,0,1,8.41,17h.71a1,1,0,0,1,.89.54l0,.05.07.14c.16.33.34.67.52,1l.19.37.49.9.21.39.74,1.33.59,1,.26.44.27.47,0,.07h0c1,1.67,1.72,2.8,1.73,2.82a1,1,0,0,0,1.68,0s.74-1.15,1.73-2.81h0l.6-1q.28-.48.57-1c.26-.46.51-.9.75-1.34l.19-.36.49-.91c.07-.12.14-.25.2-.38.17-.32.34-.64.5-1l.1-.19,0,0a1,1,0,0,1,.89-.54h.71a1,1,0,0,1,.94.66l3.57,10A1,1,0,0,1,28,28.58Z"/></g><text x="0" y="47" fill="#000000" font-size="5px" font-weight="bold" font-family="'Helvetica Neue', Helvetica, Arial-Unicode, Arial, Sans-serif">Created by Dam</text><text x="0" y="52" fill="#000000" font-size="5px" font-weight="bold" font-family="'Helvetica Neue', Helvetica, Arial-Unicode, Arial, Sans-serif">from the Noun Project</text></svg>