<svg xmlns="http://www.w3.org/2000/svg" xmlns:xlink="http://www.w3.org/1999/xlink" version="1.1" x="0px" y="0px" viewBox="-5.502 -13.252 95 125" enable-background="new -5.502 -13.252 95 100" xml:space="preserve">
    <path d="M15.299,64.771c6.911,6.533,16.228,10.548,26.487,10.548c21.303,0,38.571-17.271,38.571-38.571  c0-21.303-17.269-38.572-38.571-38.572c-10.415,0-19.856,4.135-26.797,10.842l-4.452-4.606C18.639-3.42,29.656-8.252,41.785-8.252  c24.812,0,45,20.188,45,45c0,24.814-20.188,45-45,45c-11.953,0-22.824-4.692-30.889-12.321L15.299,64.771z" />
    <polygon points="53.879,36.746 53.904,36.722 38.831,21.647 34.284,26.194 41.625,33.534 -2.789,33.534 -2.789,39.962   41.625,39.962 34.284,47.303 38.831,51.849 53.906,36.773 " />
</svg>