<svg xmlns="http://www.w3.org/2000/svg" viewBox="0 0 147.43 184.27499999999998" x="0px" y="0px">
    <defs>
        <style>.cls-1,.cls-2,.cls-3{fill:none;}.cls-1,.cls-3{stroke:#000;stroke-miterlimit:10;stroke-width:1px;}.cls-3{stroke-linecap:square;}</style>
    </defs>
    <title>Asset 7</title>
    <g data-name="Layer 2">
        <g data-name="Layer 1">
            <path class="cls-1" d="M144.43,73.71c0,.52,0,1,0,1.56A70.71,70.71,0,0,1,15.6,114,70.36,70.36,0,0,1,3,75.27c0-.52,0-1,0-1.56A70.75,70.75,0,0,1,50.39,6.94h0A71,71,0,0,1,97,6.94h0a70.75,70.75,0,0,1,47.39,66.77Z" />
            <polygon points="73.72 48.71 49.94 65.98 59.02 93.94 88.41 93.94 97.49 65.98 73.72 48.71" />
            <path d="M97.49,8.34,73.72,25.61,49.94,8.34l.45-1.4h0A71,71,0,0,1,97,6.94h0Z" />
            <path d="M28,58.85,4.19,76.12,3,75.27c0-.52,0-1,0-1.56A70.41,70.41,0,0,1,17.43,30.9h1.46Z" />
            <path d="M54.53,140.57l-1.19.86A70.75,70.75,0,0,1,15.6,114l.45-1.38H45.44Z" />
            <path d="M131.83,114a70.82,70.82,0,0,1-37.74,27.42l-1.19-.86,9.09-28h29.39Z" />
            <path d="M144.43,73.71c0,.52,0,1,0,1.56l-1.17.85L119.46,58.85l9.08-28H130A70.35,70.35,0,0,1,144.43,73.71Z" />
            <line class="cls-2" x1="73.72" y1="25.61" x2="73.72" y2="48.71" />
            <line class="cls-3" x1="73.72" y1="25.61" x2="73.72" y2="48.71" />
            <line class="cls-3" x1="27.97" y1="58.85" x2="49.94" y2="65.98" />
            <line class="cls-3" x1="45.44" y1="112.62" x2="59.02" y2="93.94" />
            <line class="cls-3" x1="101.99" y1="112.62" x2="88.41" y2="93.94" />
            <line class="cls-3" x1="97.49" y1="65.98" x2="119.46" y2="58.85" />
        </g>
    </g>
</svg>