<svg xmlns="http://www.w3.org/2000/svg" xmlns:xlink="http://www.w3.org/1999/xlink" version="1.1" x="0px" y="0px" viewBox="0 0 36 45" style="enable-background:new 0 0 36 36;" xml:space="preserve"><g><path d="M8.54,8.54c-0.74,0.74-1.4,1.59-1.98,2.54c0,0,0,0,0,0c-1.31,2.17-1.98,4.65-1.93,7.18c0.04,2.13,0.59,4.23,1.6,6.09   c0,0,0,0,0,0c0.62,1.15,1.4,2.19,2.31,3.1c0.91,0.91,1.95,1.69,3.1,2.31c0,0,0,0,0,0c1.85,1,3.96,1.55,6.08,1.6   c0.09,0,0.18,0,0.27,0c2.44,0,4.82-0.67,6.91-1.93c0,0,0,0,0,0c0.95-0.57,1.8-1.24,2.54-1.98c0.74-0.74,1.4-1.59,1.98-2.54   c0,0,0,0,0,0c1.31-2.16,1.98-4.65,1.93-7.18c-0.04-2.13-0.59-4.23-1.6-6.08c-0.62-1.15-1.4-2.19-2.31-3.11   c-0.91-0.91-1.96-1.69-3.11-2.31c-1.85-1-3.96-1.55-6.08-1.6c0,0-0.01,0-0.01,0c0,0,0,0,0,0c-2.53-0.04-5.01,0.62-7.17,1.93   C10.14,7.14,9.28,7.81,8.54,8.54z M6.76,12.27l0.74,2.77c0.02,0.06,0.04,0.11,0.08,0.15c-0.04,0.02-0.07,0.04-0.1,0.07L5.4,17.34   C5.49,15.57,5.96,13.85,6.76,12.27z M5.4,18.4l2.46-2.46l4.41,1.18l1.18,4.41l-3.23,3.23l-3.39-0.91   C5.95,22.18,5.46,20.31,5.4,18.4z M9.07,26.93c-0.65-0.65-1.23-1.37-1.72-2.15l2.89,0.77c0.07,0.02,0.15,0.02,0.22-0.01   c-0.03,0.07-0.03,0.15-0.01,0.22l0.77,2.89C10.45,28.15,9.72,27.58,9.07,26.93z M17.6,30.6c-1.9-0.06-3.78-0.55-5.45-1.43   l-0.91-3.39l3.23-3.23l4.41,1.18l1.18,4.41L17.6,30.6z M13.59,16.82l3.23-3.23l4.41,1.18l1.18,4.41l-3.23,3.23l-4.41-1.18   L13.59,16.82z M18.66,30.6l2.08-2.08c0.03-0.03,0.05-0.07,0.07-0.1c0.04,0.04,0.09,0.07,0.15,0.08l2.77,0.74   C22.15,30.04,20.43,30.51,18.66,30.6z M26.93,26.93c-0.66,0.66-1.43,1.26-2.28,1.78l-3.28-0.88l-1.18-4.41l3.23-3.23l4.41,1.18   l0.88,3.28C28.18,25.5,27.59,26.27,26.93,26.93z M29.24,23.73l-0.74-2.77c-0.02-0.06-0.04-0.11-0.08-0.15   c0.04-0.02,0.07-0.04,0.1-0.07l2.08-2.08C30.51,20.43,30.04,22.15,29.24,23.73z M30.6,17.6l-2.46,2.46l-4.41-1.18l-1.18-4.41   l3.23-3.23l3.39,0.91C30.05,13.82,30.54,15.69,30.6,17.6z M26.93,9.07c0.65,0.65,1.23,1.37,1.72,2.15l-2.89-0.77   c-0.03-0.01-0.06-0.01-0.1-0.01c-0.04,0-0.09,0.01-0.13,0.02c0.03-0.07,0.03-0.15,0.01-0.23l-0.77-2.89   C25.56,7.85,26.28,8.42,26.93,9.07z M18.4,5.4c1.9,0.06,3.78,0.55,5.45,1.43l0.91,3.39l-3.23,3.23l-4.41-1.18l-1.18-4.41L18.4,5.4z    M17.34,5.4l-2.08,2.08c-0.03,0.03-0.05,0.07-0.07,0.1c-0.04-0.04-0.09-0.07-0.15-0.08l-2.77-0.74C13.84,5.96,15.57,5.49,17.34,5.4   z M14.63,8.17l1.18,4.41l-3.23,3.23l-4.41-1.18l-0.88-3.28c0.53-0.85,1.12-1.62,1.78-2.28c0.66-0.66,1.43-1.25,2.28-1.78   L14.63,8.17z"/></g><text x="0" y="51" fill="#000000" font-size="5px" font-weight="bold" font-family="'Helvetica Neue', Helvetica, Arial-Unicode, Arial, Sans-serif">Created by businessicons13</text><text x="0" y="56" fill="#000000" font-size="5px" font-weight="bold" font-family="'Helvetica Neue', Helvetica, Arial-Unicode, Arial, Sans-serif">from the Noun Project</text></svg>