<svg xmlns="http://www.w3.org/2000/svg" xmlns:xlink="http://www.w3.org/1999/xlink" version="1.1" x="0px" y="0px" viewBox="0 0 90 112.5" enable-background="new 0 0 90 90" xml:space="preserve">
    <path d="M66.4,84H41.1c-3.6,0-6.5-2.9-6.5-6.5V17.4c0-3.6,2.9-6.5,6.5-6.5h25.3c3.6,0,6.5,2.9,6.5,6.5v60.2C72.9,81.1,70,84,66.4,84  z M41.1,12.9c-2.5,0-4.5,2-4.5,4.5v60.2c0,2.5,2,4.5,4.5,4.5h25.3c2.5,0,4.5-2,4.5-4.5V17.4c0-2.5-2-4.5-4.5-4.5H41.1z" />
    <rect x="35.6" y="20.2" width="36.3" height="2" />
    <rect x="35.6" y="73.5" width="36.3" height="2" />
    <path d="M57.2,18.7h-6.9c-0.6,0-1-0.4-1-1s0.4-1,1-1h6.9c0.6,0,1,0.4,1,1S57.8,18.7,57.2,18.7z" />
    <path d="M53.8,82c-1.8,0-3.3-1.5-3.3-3.3s1.5-3.3,3.3-3.3S57,77,57,78.8S55.6,82,53.8,82z M53.8,77.5c-0.7,0-1.3,0.6-1.3,1.3  s0.6,1.3,1.3,1.3s1.3-0.6,1.3-1.3S54.5,77.5,53.8,77.5z" />
    <path d="M25.2,26.6c-0.4,0-0.7-0.2-0.9-0.5c-1.4-2.6-1.6-5.5-0.8-8.3s2.7-5,5.3-6.4c0.5-0.3,1.1-0.1,1.4,0.4  c0.3,0.5,0.1,1.1-0.4,1.4c-4.3,2.3-5.9,7.7-3.6,12c0.3,0.5,0.1,1.1-0.4,1.4C25.5,26.5,25.4,26.6,25.2,26.6z" />
    <path d="M19.9,29.4c-0.4,0-0.7-0.2-0.9-0.5c-4.4-8.2-1.3-18.4,6.9-22.8c0.5-0.3,1.1-0.1,1.4,0.4c0.3,0.5,0.1,1.1-0.4,1.4  c-7.2,3.8-10,12.9-6.1,20.1c0.3,0.5,0.1,1.1-0.4,1.4C20.2,29.3,20.1,29.4,19.9,29.4z" />
</svg>