<svg xmlns="http://www.w3.org/2000/svg" xmlns:xlink="http://www.w3.org/1999/xlink" version="1.1" x="0px" y="0px" viewBox="0 0 100 125" style="enable-background:new 0 0 100 100;" xml:space="preserve">
    <g>
        <g>
            <path d="M50,52.3c-12.7,0-22.9-10.2-22.9-22.9S37.3,6.5,50,6.5s22.9,10.2,22.9,22.9S62.7,52.3,50,52.3z M50,14.2    c-8.4,0-15.2,6.8-15.2,15.2S41.6,44.6,50,44.6s15.2-6.8,15.2-15.2S58.4,14.2,50,14.2z" />
        </g>
        <g>
            <path d="M89.3,93.5h-7.7c0-17.4-14.2-31.6-31.6-31.6S18.4,76.1,18.4,93.5h-7.7c0-21.6,17.7-39.3,39.3-39.3    S89.3,71.9,89.3,93.5z" />
        </g>
    </g>
</svg>