<svg xmlns:dc="http://purl.org/dc/elements/1.1/" xmlns:cc="http://creativecommons.org/ns#" xmlns:rdf="http://www.w3.org/1999/02/22-rdf-syntax-ns#" xmlns:svg="http://www.w3.org/2000/svg" xmlns="http://www.w3.org/2000/svg" xmlns:sodipodi="http://sodipodi.sourceforge.net/DTD/sodipodi-0.dtd" xmlns:inkscape="http://www.inkscape.org/namespaces/inkscape" viewBox="0 0 25.399999 31.75000125" version="1.1" x="0px" y="0px"><g transform="translate(0,-271.59998)"><path style="color:#000000;font-style:normal;font-variant:normal;font-weight:normal;font-stretch:normal;font-size:medium;line-height:normal;font-family:sans-serif;font-variant-ligatures:normal;font-variant-position:normal;font-variant-caps:normal;font-variant-numeric:normal;font-variant-alternates:normal;font-feature-settings:normal;text-indent:0;text-align:start;text-decoration:none;text-decoration-line:none;text-decoration-style:solid;text-decoration-color:#000000;letter-spacing:normal;word-spacing:normal;text-transform:none;writing-mode:lr-tb;direction:ltr;text-orientation:mixed;dominant-baseline:auto;baseline-shift:baseline;text-anchor:start;white-space:normal;shape-padding:0;clip-rule:nonzero;display:inline;overflow:visible;visibility:visible;opacity:1;isolation:auto;mix-blend-mode:normal;color-interpolation:sRGB;color-interpolation-filters:linearRGB;solid-color:#000000;solid-opacity:1;vector-effect:none;fill:#000000;fill-opacity:1;fill-rule:nonzero;stroke:none;stroke-width:3.99999976;stroke-linecap:round;stroke-linejoin:round;stroke-miterlimit:4;stroke-dasharray:none;stroke-dashoffset:0;stroke-opacity:1;paint-order:stroke fill markers;color-rendering:auto;image-rendering:auto;shape-rendering:auto;text-rendering:auto;enable-background:accumulate" d="M 47.996094 10.001953 C 27.032962 10.001953 10.001953 27.040794 10.001953 48.003906 C 10.001953 68.967056 27.032962 85.998047 47.996094 85.998047 C 68.959224 85.998047 85.998047 68.967056 85.998047 48.003906 C 85.998047 27.040794 68.959224 10.001953 47.996094 10.001953 z M 48 16 A 2.0000019 1.9999999 0 0 1 50 18 A 2.0000019 1.9999999 0 0 1 48 20 A 2.0000019 1.9999999 0 0 1 46 18 A 2.0000019 1.9999999 0 0 1 48 16 z M 47.966797 23.974609 A 2.0001999 2.0001999 0 0 1 49.998047 25.998047 L 49.998047 48.003906 A 2.0001999 2.0001999 0 0 1 47.996094 50.003906 L 28 50.003906 A 2.0009765 2.0009765 0 1 1 28 46.001953 L 45.996094 46.001953 L 45.996094 25.998047 A 2.0001999 2.0001999 0 0 1 47.966797 23.974609 z M 26.816406 24.787109 A 2.0000019 1.9999999 45 0 1 28.201172 25.373047 A 2.0000019 1.9999999 45 0 1 28.201172 28.201172 A 2.0000019 1.9999999 45 0 1 25.373047 28.201172 A 2.0000019 1.9999999 45 0 1 25.373047 25.373047 A 2.0000019 1.9999999 45 0 1 26.816406 24.787109 z M 69.242188 24.787109 A 1.9999999 2.0000019 45 0 1 70.626953 25.373047 A 1.9999999 2.0000019 45 0 1 70.626953 28.201172 A 1.9999999 2.0000019 45 0 1 67.798828 28.201172 A 1.9999999 2.0000019 45 0 1 67.798828 25.373047 A 1.9999999 2.0000019 45 0 1 69.242188 24.787109 z M 18 46 A 2.0000019 1.9999999 0 0 1 20 48 A 2.0000019 1.9999999 0 0 1 18 50 A 2.0000019 1.9999999 0 0 1 16 48 A 2.0000019 1.9999999 0 0 1 18 46 z M 78 46 A 2.0000019 1.9999999 0 0 1 80 48 A 2.0000019 1.9999999 0 0 1 78 50 A 2.0000019 1.9999999 0 0 1 76 48 A 2.0000019 1.9999999 0 0 1 78 46 z M 26.816406 67.212891 A 1.9999999 2.0000019 45 0 1 28.201172 67.798828 A 1.9999999 2.0000019 45 0 1 28.201172 70.626953 A 1.9999999 2.0000019 45 0 1 25.373047 70.626953 A 1.9999999 2.0000019 45 0 1 25.373047 67.798828 A 1.9999999 2.0000019 45 0 1 26.816406 67.212891 z M 69.242188 67.212891 A 2.0000019 1.9999999 45 0 1 70.626953 67.798828 A 2.0000019 1.9999999 45 0 1 70.626953 70.626953 A 2.0000019 1.9999999 45 0 1 67.798828 70.626953 A 2.0000019 1.9999999 45 0 1 67.798828 67.798828 A 2.0000019 1.9999999 45 0 1 69.242188 67.212891 z M 48 76 A 2.0000019 1.9999999 0 0 1 50 78 A 2.0000019 1.9999999 0 0 1 48 80 A 2.0000019 1.9999999 0 0 1 46 78 A 2.0000019 1.9999999 0 0 1 48 76 z " transform="matrix(0.26458333,0,0,0.26458333,0,271.59998)"/><path style="color:#000000;font-style:normal;font-variant:normal;font-weight:normal;font-stretch:normal;font-size:medium;line-height:normal;font-family:sans-serif;font-variant-ligatures:normal;font-variant-position:normal;font-variant-caps:normal;font-variant-numeric:normal;font-variant-alternates:normal;font-feature-settings:normal;text-indent:0;text-align:start;text-decoration:none;text-decoration-line:none;text-decoration-style:solid;text-decoration-color:#000000;letter-spacing:normal;word-spacing:normal;text-transform:none;writing-mode:lr-tb;direction:ltr;text-orientation:mixed;dominant-baseline:auto;baseline-shift:baseline;text-anchor:start;white-space:normal;shape-padding:0;clip-rule:nonzero;display:inline;overflow:visible;visibility:visible;opacity:1;isolation:auto;mix-blend-mode:normal;color-interpolation:sRGB;color-interpolation-filters:linearRGB;solid-color:#000000;solid-opacity:1;vector-effect:none;fill:#000000;fill-opacity:1;fill-rule:nonzero;stroke:none;stroke-width:1.05833328;stroke-linecap:round;stroke-linejoin:round;stroke-miterlimit:4;stroke-dasharray:none;stroke-dashoffset:0;stroke-opacity:1;paint-order:stroke fill markers;color-rendering:auto;image-rendering:auto;shape-rendering:auto;text-rendering:auto;enable-background:accumulate" d="m 17.529679,273.1849 a 0.52921955,0.52921955 0 0 0 -0.233061,1.01337 c 1.21079,0.54967 2.324526,1.30805 3.260783,2.24431 0.342326,0.34232 0.660714,0.70814 0.953947,1.09399 a 0.52922837,0.52922837 0 1 0 0.842843,-0.64027 c -0.321539,-0.42309 -0.671588,-0.82507 -1.048515,-1.202 -1.030888,-1.03089 -2.250115,-1.85923 -3.571875,-2.45928 a 0.52921955,0.52921955 0 0 0 -0.204122,-0.0501 z m 5.390369,5.04568 a 0.52921955,0.52921955 0 0 0 -0.45837,0.786 c 0.120834,0.225 0.234385,0.45407 0.340031,0.68678 a 0.52921955,0.52921955 0 1 0 0.963248,-0.43718 c -0.115328,-0.25404 -0.239013,-0.50451 -0.371036,-0.75034 a 0.52921955,0.52921955 0 0 0 -0.473873,-0.28526 z M 2.091862,288.57879 a 0.52921955,0.52921955 0 0 0 -0.4568197,0.75396 c 0.6000955,1.32203 1.4288721,2.54146 2.459798,3.57239 1.0309259,1.03092 2.2503617,1.8597 3.572392,2.4598 a 0.52921955,0.52921955 0 1 0 0.4371824,-0.96325 c -1.2109048,-0.54966 -2.324952,-1.30848 -3.2612994,-2.24483 -0.9363474,-0.93634 -1.6951708,-2.05039 -2.2448243,-3.26129 a 0.52921955,0.52921955 0 0 0 -0.506429,-0.31678 z"/></g><text x="0" y="40.400001" fill="#000000" font-size="5px" font-weight="bold" font-family="'Helvetica Neue', Helvetica, Arial-Unicode, Arial, Sans-serif">Created by Gajah Mada Studio</text><text x="0" y="45.400001" fill="#000000" font-size="5px" font-weight="bold" font-family="'Helvetica Neue', Helvetica, Arial-Unicode, Arial, Sans-serif">from the Noun Project</text></svg>