<svg xmlns="http://www.w3.org/2000/svg" viewBox="0 0 662.22 516.47"><defs><style>.cls-1{opacity:0.2;}.cls-2{fill:#b9e800;}.cls-3{fill:#63ce32;}.cls-4{fill:#ce9915;}.cls-5{fill:#fff;}.cls-6{fill:#15a505;}.cls-7{fill:#ce9e15;}.cls-8{fill:#05a505;}.cls-9{fill:#1da505;}.cls-10{fill:#ceb315;}</style></defs><title>profileCard</title><g id="Layer_2" data-name="Layer 2"><g id="OBJECTS"><g class="cls-1"><path class="cls-2" d="M662.22,0H584.05c-5.79,14.83-12.38,32-13.68,34.69-9.43,19.69-19.85,38.71-29.31,58.38C522.15,132.35,508,175,514.19,220.72a180.87,180.87,0,0,0,23.52,67.87c9.56,16,26.66,37.75,21.11,60,7.78-31.21-9.37-59.06-17-88.18-8.3-31.73-9.84-73.82,2.95-104.49C569.83,95.87,615.69,44.22,662.22,0Z"/><path class="cls-3" d="M517.7,233.39c-15.12-52.33,8.4-98.71,34.8-142.2q27.74-45.7,58.39-89.38L599.22,0h-73c2.86,15,.35,31.13-4.86,45.62-6.62,18.4-17.24,34.9-26.66,51.94-18.35,33.21-32.61,70.88-28.75,109,4.5,44.41,33.84,74.94,56.93,110.82C542,347.08,549,378.89,552.56,413.5a413.15,413.15,0,0,1-2.25,103h94.2c0-83.59-45.91-154.32-94-219C534.62,276.18,525,258.78,517.7,233.39Z"/><path class="cls-4" d="M522.89,317.34C499.8,281.46,470.46,250.93,466,206.52c-3.86-38.08,10.4-75.75,28.75-109,9.42-17,20-33.54,26.66-51.94C526.58,31.13,529.08,15,526.21,0H487.48c10.12,9.87,14.68,26.6,12.85,41.47C497.87,61.53,487,79.21,477.75,97c-10.71,20.52-19.69,42.31-23.4,65.34-11.19,69.46,32.25,130,48.3,195a273.52,273.52,0,0,1-8.95,159.17h56.61a413.15,413.15,0,0,0,2.25-103C549,378.89,542,347.08,522.89,317.34Z"/><path class="cls-5" d="M602.29,9.13c-3.93,5.84-9.51,14.19-16.07,24.3s-14.1,22-22,34.86c-3.94,6.43-8,13.11-12,19.92s-8.09,13.79-12,20.88-7.55,14.29-10.87,21.55a220.38,220.38,0,0,0-8.69,21.78c-1.24,3.6-2.29,7.2-3.27,10.74-.44,1.79-.91,3.54-1.31,5.29s-.8,3.48-1.1,5.21a135,135,0,0,0-2.34,19.58,125.37,125.37,0,0,0,.39,16.66c.14,1.23.27,2.42.39,3.58s.33,2.24.48,3.31c.28,2.12.7,4,1,5.79.15.87.34,1.69.53,2.46l.51,2.16c.29,1.35.63,2.47.88,3.38.51,1.83.79,2.81.79,2.81l-.72-2.83c-.23-.92-.55-2-.81-3.4-.14-.67-.3-1.39-.46-2.17s-.34-1.59-.48-2.46c-.28-1.75-.66-3.68-.89-5.8-.12-1.06-.3-2.16-.4-3.31s-.2-2.34-.3-3.57a121.34,121.34,0,0,1,0-16.55A133,133,0,0,1,516.39,174c.33-1.7.79-3.4,1.2-5.13s.94-3.45,1.41-5.2c1-3.48,2.17-7,3.48-10.55a214.45,214.45,0,0,1,9.1-21.34c3.44-7.11,7.25-14.17,11.25-21.11S551,96.86,555.2,90.16s8.35-13.25,12.42-19.57c8.15-12.63,15.94-24.28,22.7-34.21s12.52-18.1,16.57-23.81l6.39-9L608.49,0Z"/><path class="cls-6" d="M502.65,357.3c-14.1-57-49.33-110.72-50.1-170a120.21,120.21,0,0,0-2.4,28.15c1.92,39.89,19.18,79.93,26.23,119.15,5.82,32.43,7.54,66.84-2.08,98.74-9.15,30.35-26.8,57.32-45,83.15H493.7A273.52,273.52,0,0,0,502.65,357.3Z"/><path class="cls-5" d="M482.21,0l.2.14.7.59L484.6,2c.51.45,1,1,1.48,1.51a14.62,14.62,0,0,1,1.51,1.69l1.51,1.91,1.42,2.18a50.12,50.12,0,0,1,7,24.92c0,1.27,0,2.56-.07,3.87l-.15,2-.08,1-.14,1c-.2,1.42-.38,2.9-.67,4.21-.14.68-.27,1.36-.4,2s-.35,1.4-.52,2.11a105.48,105.48,0,0,1-6.13,17.46c-2.61,6-5.77,12.06-9.09,18.38q-2.5,4.77-5.08,9.71c-1.66,3.27-3.38,6.69-5,10.16-6.54,13.86-12.51,29.07-16.17,45.52-.91,4.12-1.72,8.26-2.26,12.55-.26,2.1-.6,4.15-.75,6.34s-.42,4.34-.47,6.5a157.76,157.76,0,0,0,.94,26.21c2,17.53,6.78,34.84,12.6,51.62s12.69,33.15,19.15,49.31,12.54,32.18,16.95,48.11a273.35,273.35,0,0,1,8.48,46.86,269.53,269.53,0,0,1,.51,42.71,284.45,284.45,0,0,1-4.75,35.84q-.84,3.94-1.63,7.64c-.54,2.46-1.2,4.8-1.76,7.06-1.08,4.54-2.4,8.62-3.49,12.33-.28.93-.55,1.83-.82,2.71s-.58,1.7-.86,2.52l-1.58,4.58c-.22.69-.45,1.36-.68,2h.16c.23-.62.46-1.26.69-1.93.5-1.42,1.05-2.94,1.63-4.57.29-.81.59-1.65.89-2.51s.56-1.77.86-2.7c1.13-3.7,2.51-7.77,3.64-12.3.59-2.26,1.28-4.6,1.85-7s1.14-5,1.73-7.64a285,285,0,0,0,5.21-35.89,270.63,270.63,0,0,0,0-42.93,275.38,275.38,0,0,0-8-47.29c-4.25-16.13-10.16-32.31-16.44-48.58S473,270.41,467.41,253.69s-10-33.82-11.79-51a153.43,153.43,0,0,1-.6-25.5c.07-2.11.35-4.15.52-6.22s.53-4.16.81-6.24c.57-4.07,1.41-8.14,2.34-12.11,3.76-15.94,9.76-30.72,16.36-44.27,1.64-3.4,3.33-6.67,5.06-10l5.15-9.57c3.41-6.3,6.71-12.46,9.5-18.62a110.81,110.81,0,0,0,6.69-18.36c.2-.76.39-1.52.58-2.27l.48-2.31c.35-1.56.54-3,.77-4.39l.17-1.14.1-1.12c.07-.75.14-1.48.2-2.22.12-1.47.09-2.92.14-4.34a56.63,56.63,0,0,0-7.65-28.32L494.6,3.19,492.84.89"/></g><g class="cls-1"><path class="cls-2" d="M232.9,0H154.73c-5.79,14.83-12.38,32-13.68,34.69-9.43,19.69-19.85,38.71-29.31,58.38C92.84,132.35,78.66,175,84.88,220.72a180.69,180.69,0,0,0,23.52,67.87c9.56,16,26.65,37.75,21.1,60,7.79-31.21-9.36-59.06-17-88.18-8.31-31.73-9.85-73.82,3-104.49C140.51,95.87,186.37,44.22,232.9,0Z"/><path class="cls-7" d="M203.6,398.12c-.55-5-1.12-10.12-3-14.82a56.41,56.41,0,0,0-4.43-8.29l-59-97.21c-3.51-5.77-7.06-11.59-11.83-16.36-7.38-7.38-17.93-12.14-24.11-20.68-6.87-9.5-9.78-23.42-13.9-34.33L68.17,155.72,144.53,0H58.17C68.28,9.87,72.84,26.6,71,41.47,68.55,61.53,57.71,79.21,48.43,97,37.72,117.51,28.75,139.3,25,162.33c-11.2,69.46,32.24,130,48.29,195a273.52,273.52,0,0,1-9,159.17H194.55a235.9,235.9,0,0,0,12.08-82C206.25,422.31,204.92,410.21,203.6,398.12Z"/><path class="cls-5" d="M73,351.66c-4.25-16.13-10.16-32.31-16.43-48.58s-12.92-32.67-18.49-49.39-10-33.82-11.79-51a154.52,154.52,0,0,1-.6-25.5c.07-2.11.35-4.15.53-6.22s.53-4.16.81-6.24c.57-4.07,1.4-8.14,2.34-12.11,3.75-15.94,9.75-30.72,16.35-44.27,1.64-3.4,3.34-6.67,5.06-10L56,88.86c3.4-6.3,6.7-12.46,9.49-18.62a111.78,111.78,0,0,0,6.7-18.36c.19-.76.38-1.52.58-2.27l.48-2.31c.35-1.56.54-3,.76-4.39l.17-1.14.11-1.12c.06-.75.13-1.48.2-2.22.11-1.47.08-2.92.13-4.34A56.53,56.53,0,0,0,66.92,5.77L65.28,3.19,63.52.89C63.29.58,63,.29,62.79,0h-9.9l.21.14.69.59L55.28,2c.51.45,1,1,1.48,1.51a14.62,14.62,0,0,1,1.51,1.69c.49.62,1,1.25,1.51,1.91L61.2,9.26a50.12,50.12,0,0,1,7,24.92c0,1.27,0,2.56-.07,3.87-.06.65-.11,1.31-.16,2l-.08,1-.13,1c-.21,1.42-.39,2.9-.68,4.21-.13.68-.27,1.36-.4,2l-.51,2.11a105.55,105.55,0,0,1-6.14,17.46c-2.61,6-5.77,12.06-9.09,18.38l-5.08,9.71c-1.66,3.27-3.38,6.69-5,10.16-6.54,13.86-12.5,29.07-16.17,45.52-.91,4.12-1.71,8.26-2.26,12.55-.26,2.1-.6,4.15-.74,6.34s-.43,4.34-.47,6.5a157.75,157.75,0,0,0,.93,26.21c2,17.53,6.79,34.84,12.61,51.62S47.47,288,53.93,304.12s12.53,32.18,16.94,48.11a274.37,274.37,0,0,1,8.49,46.86,270.73,270.73,0,0,1,.51,42.71,284.35,284.35,0,0,1-4.76,35.84q-.84,3.94-1.63,7.64c-.54,2.46-1.2,4.8-1.76,7.06-1.08,4.54-2.4,8.62-3.49,12.33-.28.93-.55,1.83-.81,2.71l-.87,2.52L65,514.48c-.23.69-.46,1.36-.69,2h.16c.23-.62.46-1.26.69-1.93L66.77,510l.9-2.51c.27-.88.56-1.77.85-2.7,1.13-3.7,2.51-7.77,3.65-12.3.59-2.26,1.27-4.6,1.85-7s1.13-5,1.73-7.64A286.82,286.82,0,0,0,81,441.88,271.83,271.83,0,0,0,81,399,276.41,276.41,0,0,0,73,351.66Z"/><path class="cls-3" d="M201,431.24c-2.92-9.44-5.87-18.94-10.38-27.74-2.53-4.94-5.54-9.62-8.54-14.29l-16.65-25.93c-6.06-9.43-12.15-18.91-19.61-27.27-3.3-3.7-6.95-7.31-8.71-11.95-1.09-2.88-1.4-6-2.7-8.81a26.7,26.7,0,0,0-4-5.71c-9.78-11.67-17.58-22.1-24.63-35.62-5.63-10.79-17.4-28-17.4-40.53-15.11-52.33,8.4-98.71,34.8-142.2q27.73-45.7,58.39-89.38L169.91,0h-73c2.87,15,.36,31.13-4.85,45.62C85.44,64,74.81,80.52,65.4,97.56c-18.36,33.21-32.62,70.88-28.76,109,4.5,44.41,33.84,74.94,56.93,110.82,19.14,29.74,26.08,61.55,29.67,96.16a412.67,412.67,0,0,1-2.24,103h91.48a166.87,166.87,0,0,0,1.27-27C212.84,469.57,206.9,450.28,201,431.24Z"/><path class="cls-5" d="M173,9.13C169,15,163.46,23.32,156.9,33.43s-14.1,22-22,34.86c-3.94,6.43-8,13.11-12,19.92s-8.1,13.79-12,20.88-7.55,14.29-10.86,21.55a220.48,220.48,0,0,0-8.7,21.78c-1.24,3.6-2.28,7.2-3.26,10.74-.44,1.79-.92,3.54-1.31,5.29s-.8,3.48-1.1,5.21a135.13,135.13,0,0,0-2.35,19.58,123.59,123.59,0,0,0,.4,16.66c.13,1.23.26,2.42.39,3.58s.32,2.24.47,3.31c.28,2.12.7,4,1,5.79.15.87.35,1.69.53,2.46l.51,2.16c.3,1.35.64,2.47.89,3.38l.78,2.81-.72-2.83c-.23-.92-.54-2-.81-3.4-.14-.67-.29-1.39-.46-2.17s-.34-1.59-.47-2.46c-.29-1.75-.66-3.68-.9-5.8-.12-1.06-.29-2.16-.39-3.31s-.2-2.34-.31-3.57a124.65,124.65,0,0,1,0-16.55A133,133,0,0,1,87.07,174c.33-1.7.8-3.4,1.21-5.13s.93-3.45,1.41-5.2c1-3.48,2.17-7,3.47-10.55a219.26,219.26,0,0,1,9.1-21.34c3.45-7.11,7.25-14.17,11.26-21.11s8.17-13.77,12.36-20.47,8.35-13.25,12.43-19.57C146.46,58,154.24,46.31,161,36.38s12.51-18.1,16.56-23.81l6.39-9L179.18,0Z"/><path class="cls-8" d="M73.33,357.3c-14.1-57-49.33-110.72-50.1-170a120.2,120.2,0,0,0-2.39,28.15C22.76,255.32,40,295.36,47.06,334.58,52.89,367,54.6,401.42,45,433.32c-9.15,30.35-26.8,57.32-45,83.15H64.38A273.52,273.52,0,0,0,73.33,357.3Z"/></g><path class="cls-2" d="M273.16,0H198.43C193.23,12.87,188,26,186.8,28.32,177.37,47.26,167,65.57,157.49,84.49c-18.9,37.8-33.08,78.84-26.86,122.83,4.53,32.06,19.07,58.85,37.21,85.12a328.77,328.77,0,0,0,29.22,36.5q7.71,8.32,16,16.11c4.79,4.51,11.53,20,16.8,23.77,5.3-20.47-24.52-50.15-35.76-63-15.32-17.55-29.61-37.52-35.8-60.29-8.31-30.54-9.85-71,2.95-100.55C185.27,89.46,228.54,41.42,273.16,0Z"/><path class="cls-9" d="M226.47,420.82c-.48-5-.5-10.13-1.83-15a53.44,53.44,0,0,0-5.41-11.94c-28.43-50.61-67.73-93.67-111.47-131.1-7-6-14.23-11.57-20.9-17.84-21.3-20-34.48-48.08-32.17-76.88-14.54,45.29,17,98.42,48.37,129.36,39.45,38.9,62.76,101.17,66.13,156.07,1.3,21.2-.27,42.95-7,63h94.09C253,483.62,229.64,454.19,226.47,420.82Z"/><path class="cls-3" d="M134.13,219.51c-15.11-50.35,8.41-95,34.8-136.83q26.64-42.24,56-82.68H143.45c1.46,13-1,26.51-5.64,38.83-6.62,17.71-17.24,33.59-26.66,50C92.8,120.77,78.54,157,82.4,193.66,86,227.8,105,258.59,128,284.08c10.25,11.37,19.28,20.83,31.39,30.51l38.27,30.62c13,10.36,26.34,23,42.23,27.75-14.22-37-45.33-61.78-73.79-93.78C151.3,262.55,140.49,240.68,134.13,219.51Z"/><path class="cls-10" d="M310.7,437.74c-31.82-48-74.3-87.55-116.15-126.56-19.89-18.55-40-36.71-60-55C115.7,239,96,218.93,89.84,193.35c-8.69-36.07,3.36-73.29,21.31-104.54,9.42-16.39,20-32.27,26.66-50C142.41,26.51,144.89,13,143.43,0H93.26c7,9.57,9.92,22.84,8.39,34.84-2.46,19.31-13.3,36.32-22.58,53.42C68.36,108,59.39,129,55.68,151.14c-7.88,47,10.66,89.09,42.42,122.91,59.62,63.51,128.73,148.36,111.51,242.42H346.45c-2.38-11.28-6.43-25.88-7.47-28.13A381.38,381.38,0,0,0,310.7,437.74Z"/><path class="cls-5" d="M202.37,426.56A264.36,264.36,0,0,0,184.25,385a388.49,388.49,0,0,0-27-42.79c-5.13-7.13-10.53-14.25-16.19-21.29s-11.49-14.1-17.53-21.06S111.27,286,105,279.09A270.1,270.1,0,0,1,86.79,258,159.51,159.51,0,0,1,71.91,234.7a145,145,0,0,1-10.42-25.29A131.47,131.47,0,0,1,56.6,183c-.12-2.21-.32-4.41-.38-6.61l0-6.58c0-1.1.08-2.17.15-3.25s.16-2.15.23-3.22.16-2.14.23-3.2.31-2.18.46-3.27a139.11,139.11,0,0,1,5.5-24.76,200.54,200.54,0,0,1,8.77-22.75c1.65-3.62,3.34-7.15,5.11-10.6.86-1.73,1.76-3.41,2.64-5.09l2.72-5c3.63-6.57,7.32-12.9,10.61-19.19,1.66-3.14,3.18-6.29,4.61-9.41S100,53.84,101,50.72c.55-1.56,1-3.13,1.48-4.67s.87-3.07,1.18-4.67c.16-.79.33-1.57.5-2.35l.36-2.2.17-1.08,0-.27,0-.14,0-.23.06-.57.21-2.28a54.25,54.25,0,0,0-1.33-16.83A49.91,49.91,0,0,0,98.5,2c-.4-.68-.81-1.34-1.22-2H88.91a37.1,37.1,0,0,1,3.78,5.32A43.08,43.08,0,0,1,97.38,17a48.32,48.32,0,0,1,1.36,14.85c-.06.66-.11,1.33-.17,2l0,.51s0,.17,0,.05l0,.13,0,.27-.16,1.09L98,38.05c-.14.69-.28,1.37-.43,2.06-.24,1.38-.67,2.83-1,4.27s-.83,2.9-1.33,4.36c-1,2.94-2.15,5.9-3.43,8.91S89,63.71,87.42,66.79C84.29,73,80.7,79.29,77.09,86c-.88,1.68-1.78,3.37-2.68,5.08s-1.79,3.47-2.65,5.24q-2.62,5.3-5.08,10.88A205.07,205.07,0,0,0,58,130.64a143.8,143.8,0,0,0-5.38,25.62,130.3,130.3,0,0,0,4.94,54.36,148.51,148.51,0,0,0,11,25.88A163.1,163.1,0,0,0,84,260.15a270.73,270.73,0,0,0,18.63,21.1q9.52,10.17,18.7,20.49t17.71,20.77q8.56,10.42,16.36,21a387.31,387.31,0,0,1,27.4,42.27,262,262,0,0,1,18.51,41.13,199.23,199.23,0,0,1,9,37A175.5,175.5,0,0,1,212,493.31c-.24,4.08-.32,7.74-.75,10.88s-.57,5.85-1,8c-.29,1.78-.52,3.2-.7,4.27h0l.75-4.26c.44-2.15.69-4.84,1.08-8s.59-6.8.89-10.88a177.2,177.2,0,0,0-1.3-29.48A200.3,200.3,0,0,0,202.37,426.56Z"/><path class="cls-5" d="M336.08,482.13c-1.93-4-4.83-9.93-8.81-17.27s-9.06-16.14-15.41-25.9-14-20.47-22.9-31.68-19.1-23-30.33-34.95-23.5-24.21-36.39-36.64-26.36-25.1-40.1-37.93S154.32,272,140.3,259.1c-7-6.47-14-12.91-20.46-19.79a140.92,140.92,0,0,1-17.29-21.93,81.78,81.78,0,0,1-10.62-24.92A103.92,103.92,0,0,1,89.38,166c.5-17.56,5.05-34.24,11.1-49.19a205.84,205.84,0,0,1,10.16-21.26c3.68-6.7,7.57-13,11.26-19.15,7.42-12.26,14-23.9,18.33-35a96,96,0,0,0,6.9-30.27A71.83,71.83,0,0,0,146.87,0H140a64.54,64.54,0,0,1,.43,10.78,89.39,89.39,0,0,1-6.13,28.27c-4,10.65-10.23,22-17.48,34.32-3.59,6.16-7.48,12.6-11.15,19.48a208.3,208.3,0,0,0-10.18,22c-6,15.46-10.58,32.76-10.89,51.07a108.27,108.27,0,0,0,3,27.61,86.13,86.13,0,0,0,11.46,26.1,145.46,145.46,0,0,0,18,22.35c6.64,6.91,13.78,13.36,20.87,19.73,14.18,12.78,28.39,25.52,42.28,38.17s27.47,25.19,40.5,37.43,25.42,24.31,36.75,36.16,21.64,23.41,30.65,34.51,16.74,21.71,23.22,31.35S323,457.7,327,465s7,13.16,9,17.17c1,2,1.72,3.56,2.22,4.6s.75,1.58.75,1.58l-.74-1.59C337.75,485.71,337,484.15,336.08,482.13Z"/><path class="cls-5" d="M221.36,0l-2.63,3.72c-3.94,5.62-9.51,13.65-16.08,23.39s-14.1,21.17-22,33.54c-3.94,6.19-8,12.61-12,19.17s-8.1,13.26-12,20.09-7.54,13.75-10.86,20.73a208.57,208.57,0,0,0-8.7,21c-1.23,3.47-2.28,6.93-3.26,10.34-.44,1.72-.92,3.4-1.31,5.09s-.8,3.35-1.1,5a125.29,125.29,0,0,0-2.35,18.85,114.32,114.32,0,0,0,.4,16c.13,1.19.26,2.33.39,3.44s.32,2.17.47,3.19c.29,2,.71,3.89,1,5.57.16.84.35,1.63.53,2.37s.36,1.43.51,2.08c.3,1.29.64,2.37.89,3.25l.78,2.7-.72-2.71c-.22-.89-.54-2-.8-3.28-.15-.64-.3-1.34-.46-2.08s-.34-1.53-.48-2.38c-.28-1.68-.66-3.53-.89-5.58-.13-1-.3-2.08-.4-3.18s-.2-2.25-.31-3.44a113.9,113.9,0,0,1,0-15.92,123.3,123.3,0,0,1,2.76-18.61c.34-1.64.8-3.27,1.21-4.94s.94-3.31,1.41-5c1.05-3.35,2.17-6.75,3.47-10.15A207.9,207.9,0,0,1,148,121.7c3.45-6.84,7.26-13.63,11.26-20.31s8.17-13.25,12.37-19.7S180,68.94,184.06,62.86C192.21,50.71,200,39.49,206.76,30S219.28,12.52,223.32,7l5.22-7Z"/></g></g></svg>