<svg xmlns="http://www.w3.org/2000/svg" width="965.713" height="1293.929" viewBox="0 0 965.713 1293.929">
  <g id="tCardBg" transform="translate(-788.758 -558.61)">
    <path id="Path_1867" data-name="Path 1867" d="M1261.288,1481.146l38.781,95.042,57.481,71.684,14.795-9.855,4.973-24.39c-3.174-23.909-5.662-47.516-5.662-70.546q16.087,11.246,32.144,24.674l1.878-3.251,35.188-22.588,12.938-60.77-99.364-21.024Z" transform="translate(-135.215 -257.968)" fill="#e50c12" fill-rule="evenodd"/>
    <path id="Path_1868" data-name="Path 1868" d="M1514.061,1011.018l45.415,97.764,45.095,45.092q26.323-43.317,79.806-90.294,1.844,2.9,4.052,6.8l28.335-16.714,1.9-35.637-86.088-11.092Z" transform="translate(-207.545 -128.287)" fill="#692e8c" fill-rule="evenodd"/>
    <path id="Path_1869" data-name="Path 1869" d="M1840.837,1095.2l-43.414-70.8-8.869-1.925-30.23,52.351q15.454,27.207,48.766,102.641,2.019,4.191,6.568,11.733l29.525,15.574,40.584-15.574-.674-2.973Z" transform="translate(-277.44 -132.733)" fill="#962488" fill-rule="evenodd"/>
    <path id="Path_1870" data-name="Path 1870" d="M1396.138,1709.4l14.136,9.65,10.426-9.65c-1.622-11.465-3.287-22.887-4.794-34.244Z" transform="translate(-173.802 -319.501)" fill="#e23a11" fill-rule="evenodd"/>
    <path id="Path_1871" data-name="Path 1871" d="M1510.929,1489.573l-48.125,83.358-1.878,3.251q39.886,33.333,79.672,80.117l33.859,6.937,32.734-6.937-32.411-89.838Z" transform="translate(-192.341 -266.394)" fill="#e23a11" fill-rule="evenodd"/>
    <path id="Path_1872" data-name="Path 1872" d="M1937.553,1466.117l-19.391,16.744c6.23,21.194,17.02,41.6,21.748,40.627,7.813-1.605.957-11.623,5.6-14.442,1.576,1.271,2.215,3.488,2.215,6.331,0,15.375-14.867,30.4-14.867,35.739,0,2.846,2.207,4.434,6.32,4.434,25.3,0,37.955-22.459,37.955-67.689q0-2.42-.156-5Z" transform="translate(-323.18 -259.683)" fill="#e50c12" fill-rule="evenodd"/>
    <path id="Path_1873" data-name="Path 1873" d="M1835.837,1256.027q9.34,15.505,29.178,45.2c3.209,4.219,6.148,8.278,8.811,12.239l26.619-14.739,5.8-41.406-.295-1.291Z" transform="translate(-299.622 -199.566)" fill="#c00072" fill-rule="evenodd"/>
    <path id="Path_1874" data-name="Path 1874" d="M1558.081,1374.517l-27.107,75.57,76.8,12.458,29.106-12.458c-25.622-44.58-42-77.511-49.026-98.5Z" transform="translate(-212.385 -226.909)" fill="#ce0948" fill-rule="evenodd"/>
    <path id="Path_1875" data-name="Path 1875" d="M1825.133,1937.252l-24.459,13.867,38.875,98.154,57.377,68.57,3.941-6.828c-16.748-37.215-35.469-107.523-49.238-159.9Z" transform="translate(-289.561 -394.498)" fill="#eb8b00" fill-rule="evenodd"/>
    <path id="Path_1876" data-name="Path 1876" d="M1724.394,1952.973a501.9,501.9,0,0,0,22.887,54.666l22.334-24.877,9.23-29.789-28.236-9.242Z" transform="translate(-267.733 -396.353)" fill="#eb8b00" fill-rule="evenodd"/>
    <path id="Path_1877" data-name="Path 1877" d="M991.6,1020.8l4.78,20.216,18.067,19.353q17.751-22.567,32.457-39.568l-31.17-4.16Z" transform="translate(-58.043 -131.066)" fill="#692e8c" fill-rule="evenodd"/>
    <path id="Path_1878" data-name="Path 1878" d="M866.063,1105.977c-13.389,4.836-42.488,14.853-53.026,29.153l10.822,32.932,20.384,21.134,59.552-83.362,36.71-83.362H915.4C899.447,1050.127,884.058,1078.309,866.063,1105.977Z" transform="translate(-6.947 -132.733)" fill="#692e8c" fill-rule="evenodd"/>
    <path id="Path_1879" data-name="Path 1879" d="M1193.285,1573.646c10.392,27.785,22.267,55.182,33.5,82.654l21.982,7.861,89.327-7.861-96.263-166.727Z" transform="translate(-115.755 -266.394)" fill="#e23a11" fill-rule="evenodd"/>
    <path id="Path_1880" data-name="Path 1880" d="M1373.435,1733.976l-15.884-10.844-62.928,72.262-33.335,94.455,25.358,8.324,40.6-8.324c17.148-15.1,34.663-30.219,52.954-45.684,6.963-7.277,10.439-16.125,10.439-27.52,0-13.139-.744-26.33-1.925-39.533Z" transform="translate(-135.215 -333.228)" fill="#e77800" fill-rule="evenodd"/>
    <path id="Path_1881" data-name="Path 1881" d="M1714.463,1702.407l-48.641,14.793,38.422,91.678,57.842,75.041,25.475-29.66,8.773-29.666c-6.824-17.105-25.426-60.8-45.482-107.393Z" transform="translate(-250.972 -327.298)" fill="#e24f0e" fill-rule="evenodd"/>
    <path id="Path_1882" data-name="Path 1882" d="M1816.85,939.358l-16.176,52.154,27.734,6.01,23.357-6.01c.844-8.388,1.287-24.864,1.287-49.333,0-8.4-2.646-17.68-7.8-27.9Z" transform="translate(-289.561 -101.775)" fill="#393f96" fill-rule="evenodd"/>
    <path id="Path_1883" data-name="Path 1883" d="M1165.635,1251.208a2.957,2.957,0,0,0-.229.914,160.363,160.363,0,0,0-13.66,30.368l30.064,52.076,48.132,83.358,56.45-75.037,46.435-95.186-97.336-8.517Z" transform="translate(-103.87 -194.747)" fill="#c00072" fill-rule="evenodd"/>
    <path id="Path_1884" data-name="Path 1884" d="M1171.354,875.518l24.38,21.382c22.271-1.666,45.038-1.35,66.485-1.35-.135,1.438-.315,2.991-.537,4.625l27.2-26.964,37.036-84.286-175.175,30.042Z" transform="translate(-103.583 -65.905)" fill="#356696" fill-rule="evenodd"/>
    <path id="Path_1885" data-name="Path 1885" d="M1396.138,786.7l41.192,88.444,55.06,78.272,55.531-79.661,40.731-87.056-95.339-5.549Z" transform="translate(-173.802 -63.68)" fill="#356696" fill-rule="evenodd"/>
    <path id="Path_1886" data-name="Path 1886" d="M1750.762,817.046c2.584-9.066,5.717-19.5,8.84-30.717l-46.078-6.476-49.268,5.843,43.7,89.539,53.682,77.812,44.584-77.232a158.183,158.183,0,0,0-14.344-22.716C1777.01,833.174,1763.414,821.478,1750.762,817.046Z" transform="translate(-250.524 -63.309)" fill="#356696" fill-rule="evenodd"/>
    <path id="Path_1887" data-name="Path 1887" d="M1624.618,584.323c-18.389,17.986-21.739,40.545-20.826,63.447l13.893,35.463,30.35,41.173,54.47-73.295,30.164-73.294c-11.793-9.033-28.62-14.366-52.072-14.366Q1646.913,563.451,1624.618,584.323Z" transform="translate(-233.183 -1.385)" fill="#13b4b6" fill-rule="evenodd"/>
    <path id="Path_1888" data-name="Path 1888" d="M1713.951,1606.025,1685,1633.451l-19.174,55.941h85.029c-12.41-28.821-25.367-58.747-36.439-84.167Z" transform="translate(-250.972 -299.489)" fill="#e23a11" fill-rule="evenodd"/>
    <path id="Path_1889" data-name="Path 1889" d="M1294.512,1006.917l-9.127,10.125c-2.065,7.116-4.288,14.374-6.619,21.607l28.255,71,55.531,74.118,58.3-73.2,37.955-93.527-20.271-13.547Z" transform="translate(-140.216 -127.304)" fill="#692e8c" fill-rule="evenodd"/>
    <path id="Path_1890" data-name="Path 1890" d="M1499.788,1224.94l-103.65,22.192,42.118,87.518,54.135,79.2,48.134-83.358,8.742-15.146q-3.957-11.82-3.959-18.582,0-24.136,10.018-49.63Z" transform="translate(-173.802 -190.67)" fill="#c00072" fill-rule="evenodd"/>
    <path id="Path_1891" data-name="Path 1891" d="M788.758,1540.268,820.79,1572.3l32.033,32.031,20.711-52.741,20.71-52.743-52.743,20.71Z" transform="translate(0 -269.048)" fill="#e50c12" fill-rule="evenodd"/>
    <path id="Path_1892" data-name="Path 1892" d="M815.4,1292l11.526-19.97H789.074C797.335,1280.741,806.211,1287.77,815.4,1292Z" transform="translate(-0.091 -204.145)" fill="#c00072" fill-rule="evenodd"/>
    <path id="Path_1893" data-name="Path 1893" d="M807.562,1190.984c0,9.486,8.63,30.92,20.435,43.37h14.68l-31.207-54.065A17.988,17.988,0,0,0,807.562,1190.984Z" transform="translate(-5.381 -177.893)" fill="#962488" fill-rule="evenodd"/>
    <path id="Path_1894" data-name="Path 1894" d="M833.569,1330.254a60.459,60.459,0,0,0,25.334,5.92,71.287,71.287,0,0,0,8.783-.553l-18.614-32.228Z" transform="translate(-12.823 -213.12)" fill="#ce0948" fill-rule="evenodd"/>
    <path id="Path_1895" data-name="Path 1895" d="M862.121,1265.321c5.749-.713,11.524-3.843,17.52-9.294H856.752Z" transform="translate(-19.456 -199.566)" fill="#c00072" fill-rule="evenodd"/>
    <path id="Path_1896" data-name="Path 1896" d="M918.147,992.969h30.721l-15.216-26.355Q925.761,979.7,918.147,992.969Z" transform="translate(-37.025 -116.75)" fill="#393f96" fill-rule="evenodd"/>
    <path id="Path_1897" data-name="Path 1897" d="M974.184,952.795l12.435,21.534,49.518-75.5,19.823-44.6a73.071,73.071,0,0,0-13.16,7.5C1014.643,889.9,993.466,920.808,974.184,952.795Z" transform="translate(-53.06 -84.592)" fill="#356696" fill-rule="evenodd"/>
    <path id="Path_1898" data-name="Path 1898" d="M904.883,1105.83,856.752,1189.2h22.889a79.483,79.483,0,0,0,6.207-6.361c9.163-10.433,23.086-29.1,41.109-55.975q26.808-36.728,48.905-64.819l-22.847-39.569Z" transform="translate(-19.456 -132.733)" fill="#962488" fill-rule="evenodd"/>
    <path id="Path_1899" data-name="Path 1899" d="M1093.521,1275.748A152.514,152.514,0,0,0,1086,1323.5q0,39.992,11.208,87.682h74.516l-48.134-83.359Z" transform="translate(-85.054 -205.209)" fill="#ce0948" fill-rule="evenodd"/>
    <path id="Path_1900" data-name="Path 1900" d="M1105.2,831.009c-17.886,5.763-33.309,11.44-44.261,16.578l-21.213,36.739L991.6,967.685h55.3q40.521-46.863,57.808-51.547c14.5-3.9,29.869-6.031,45.482-7.2l-14.212-24.616Z" transform="translate(-58.043 -77.947)" fill="#393f96" fill-rule="evenodd"/>
    <path id="Path_1901" data-name="Path 1901" d="M1247.989,1052.749c-10.448,32.452-22.992,64.223-32.735,78.657-27.314,39.063-42.079,61.212-44.052,66.454h160.57l-48.134-83.367Z" transform="translate(-109.436 -141.398)" fill="#962488" fill-rule="evenodd"/>
    <path id="Path_1902" data-name="Path 1902" d="M1357.55,1256.027l-48.134,83.358-48.128,83.358H1453.8l-48.125-83.358Z" transform="translate(-135.215 -199.566)" fill="#ce0948" fill-rule="evenodd"/>
    <path id="Path_1903" data-name="Path 1903" d="M1247.766,777h62.759l-6.294-10.9C1288.563,768.471,1268.931,772.292,1247.766,777Z" transform="translate(-131.345 -59.374)" fill="#2f9687" fill-rule="evenodd"/>
    <path id="Path_1904" data-name="Path 1904" d="M1365.407,612.045l51.69-9.5c-10.7-10.132-22.984-21.2-36.566-33Z" transform="translate(-165.008 -3.13)" fill="#13b4b6" fill-rule="evenodd"/>
    <path id="Path_1905" data-name="Path 1905" d="M1365.205,788.925l-48.134,83.359-16.1,27.891c-1.842,13.666-6.659,33.87-12.931,55.467h173.419l-48.125-83.358Z" transform="translate(-142.869 -65.905)" fill="#393f96" fill-rule="evenodd"/>
    <path id="Path_1906" data-name="Path 1906" d="M1492.391,1022.471l-48.125,83.359-48.128,83.365h159.188a201.521,201.521,0,0,1,15.5-30.875l-30.3-52.49Z" transform="translate(-173.802 -132.733)" fill="#962488" fill-rule="evenodd"/>
    <path id="Path_1907" data-name="Path 1907" d="M1549.414,740.524l-153.276,17.682h192.515l-44.241-76.636C1545.227,701.941,1549.414,722.585,1549.414,740.524Z" transform="translate(-173.802 -35.185)" fill="#2f9687" fill-rule="evenodd"/>
    <path id="Path_1908" data-name="Path 1908" d="M1627.235,788.925l-48.128,83.358-48.134,83.359H1723.5l-48.134-83.359Z" transform="translate(-212.385 -65.905)" fill="#393f96" fill-rule="evenodd"/>
    <path id="Path_1909" data-name="Path 1909" d="M1851.766,1022.471h-51.092l48.123,83.359,46.414,80.393q-3.794-16.645-8.635-38.177Z" transform="translate(-289.561 -132.733)" fill="#692e8c" fill-rule="evenodd"/>
    <path id="Path_1910" data-name="Path 1910" d="M1933.064,1306.177c-1.934-6.665-5.77-22.813-11.594-48.34l-32.416,56.146c16.539,24.608,22.453,45.4,16.492,76.319-1.3,8.764.764,20.993,4.285,32.961h58.814c-.889-14.774-5.611-33.38-14.4-56.051Z" transform="translate(-314.85 -200.083)" fill="#ce0948" fill-rule="evenodd"/>
    <path id="Path_1911" data-name="Path 1911" d="M1750.457,583.576,1713.951,646.8l-48.129,83.367h94.229C1774.207,679.376,1788.23,612.511,1750.457,583.576Z" transform="translate(-250.972 -7.144)" fill="#2f9687" fill-rule="evenodd"/>
    <path id="Path_1912" data-name="Path 1912" d="M1008.268,2237.193c0,24.045,10.79,38.369,32.543,42.791l3.688-6.391,42.246-37.418,5.885-45.941h-73.744C1011.854,2206.076,1008.268,2221.686,1008.268,2237.193Z" transform="translate(-62.813 -466.889)" fill="#b9d32c" fill-rule="evenodd"/>
    <path id="Path_1913" data-name="Path 1913" d="M1044.155,2130.906a187.406,187.406,0,0,0-21.013,35.275h73.744l-34.645-60.008C1057.022,2113.725,1051.071,2121.873,1044.155,2130.906Z" transform="translate(-67.07 -442.835)" fill="#f7b200" fill-rule="evenodd"/>
    <path id="Path_1914" data-name="Path 1914" d="M1077.916,2063.4l34.644,60.008,67.594-95.045,28.663-71.682h-76.138C1112.413,2001.5,1104.86,2024.441,1077.916,2063.4Z" transform="translate(-82.743 -400.057)" fill="#eb8b00" fill-rule="evenodd"/>
    <path id="Path_1915" data-name="Path 1915" d="M1105.675,2190.234l-48.131,83.359-3.688,6.391a81.264,81.264,0,0,0,16.171,1.482c16.765,0,28.787-5.693,35.736-17.074q25.192,47.121,73.842,53.895l-25.806-44.693Z" transform="translate(-75.858 -466.889)" fill="#d4de37" fill-rule="evenodd"/>
    <path id="Path_1916" data-name="Path 1916" d="M1219.977,2176.6l-93.53,9.73,37.609,83.75,36.32,44.3a122.164,122.164,0,0,0,16.938,1.141,95.549,95.549,0,0,0,29.813-4.781l43.176-43.779,23.757-72.139c-.613-2.871-1.341-5.711-2.189-8.5Z" transform="translate(-96.63 -462.988)" fill="#b9d32c" fill-rule="evenodd"/>
    <path id="Path_1917" data-name="Path 1917" d="M1182.876,1573.646l.411-.714,48.132-83.358H1156.9A691.749,691.749,0,0,0,1182.876,1573.646Z" transform="translate(-105.345 -266.394)" fill="#e50c12" fill-rule="evenodd"/>
    <path id="Path_1918" data-name="Path 1918" d="M1109.492,1884.942c-2.7,5.748-5.171,11.146-7.485,16.266h76.138l-30.608-53.01C1128.379,1859.114,1115.624,1871.3,1109.492,1884.942Z" transform="translate(-89.636 -369.015)" fill="#e77800" fill-rule="evenodd"/>
    <path id="Path_1919" data-name="Path 1919" d="M1233.972,1723.132c19,46.475,28.642,71.422,28.642,74.543,0,11.381-12.021,22.771-36.063,34.793q-4.245,2.153-8.141,4.369l30.609,53.012,48.128-83.359,48.134-83.357H1233.972Z" transform="translate(-122.945 -333.228)" fill="#e24f0e" fill-rule="evenodd"/>
    <path id="Path_1920" data-name="Path 1920" d="M1217.313,2052.064a94.417,94.417,0,0,0-44.282,10.752c24.742-23.5,48.414-45.605,72.148-67.205l-22.478-38.934-48.132,83.359-48.124,83.367h185.423C1299.433,2082.584,1262.213,2052.064,1217.313,2052.064Z" transform="translate(-96.63 -400.057)" fill="#f7b200" fill-rule="evenodd"/>
    <path id="Path_1921" data-name="Path 1921" d="M1283.765,1995.611c14.389-13.1,28.8-26,43.483-38.934h-65.96Z" transform="translate(-135.215 -400.057)" fill="#eb8b00" fill-rule="evenodd"/>
    <path id="Path_1922" data-name="Path 1922" d="M1319.206,2277l-23.705,41.057c39.731-13.021,69.188-51.082,69.188-94.533a102.668,102.668,0,0,0-2.255-21.385Z" transform="translate(-145.005 -470.294)" fill="#d4de37" fill-rule="evenodd"/>
    <path id="Path_1923" data-name="Path 1923" d="M1611.1,1771.687l22.637-16.164,5.4-32.391h-66.594Q1591.83,1745.813,1611.1,1771.687Z" transform="translate(-224.278 -333.228)" fill="#e24f0e" fill-rule="evenodd"/>
    <path id="Path_1924" data-name="Path 1924" d="M1396.138,1723.132l31.167,53.98c-1.621-18.016-4.063-36.047-6.605-53.98Z" transform="translate(-173.802 -333.228)" fill="#e24f0e" fill-rule="evenodd"/>
    <path id="Path_1925" data-name="Path 1925" d="M1858.268,2270.717a9.311,9.311,0,0,0,1.137,1.207l47.164-81.689h-72.2Q1842.651,2227.614,1858.268,2270.717Z" transform="translate(-299.202 -466.889)" fill="#b9d32c" fill-rule="evenodd"/>
    <path id="Path_1926" data-name="Path 1926" d="M1636.876,1489.573h-105.9l48.134,83.358,48.127,83.368,48.13-83.368.461-.8c-15.552-35.712-27.369-62.534-28.679-64.907Q1641.781,1498.11,1636.876,1489.573Z" transform="translate(-212.385 -266.394)" fill="#e50c12" fill-rule="evenodd"/>
    <path id="Path_1927" data-name="Path 1927" d="M1654.583,1723.132l-28.032,48.555q30.308,40.676,60.6,89.244c2.982,10.248,6.061,19.834,9.249,28.918h54.453l-48.135-83.359Z" transform="translate(-239.734 -333.228)" fill="#e77800" fill-rule="evenodd"/>
    <path id="Path_1928" data-name="Path 1928" d="M1788.02,1956.678l-31.564,54.668c15.012,30.8,32.205,59.225,52.314,95.756q1.462,8.01,3.3,16.3h72.2l-48.129-83.367Z" transform="translate(-276.906 -400.057)" fill="#f7b200" fill-rule="evenodd"/>
    <path id="Path_1929" data-name="Path 1929" d="M1916.6,2190.23l-47.166,81.693c7.166,6.453,29.262,9.541,66.547,9.541,9.256,0,21.379,1.547,36.186,5.006l-7.436-12.879Z" transform="translate(-309.236 -466.888)" fill="#d4de37" fill-rule="evenodd"/>
    <path id="Path_1930" data-name="Path 1930" d="M2028.592,2241.3c-44.914-16.758-70.217-28.783-75.906-35.738-3.184-3.184-6.539-8.459-10-15.328h-7.176l48.131,83.359,7.436,12.879q4.38,1.017,9.055,2.27C2062.814,2305.441,2134.389,2283.121,2028.592,2241.3Z" transform="translate(-328.144 -466.889)" fill="#b9d32c" fill-rule="evenodd"/>
    <path id="Path_1931" data-name="Path 1931" d="M1834.92,1873.572l-34.246,59.326h50.955c-5.877-22.344-10.846-41.42-14.387-53.275C1836.795,1878.344,1836,1876.281,1834.92,1873.572Z" transform="translate(-289.561 -376.277)" fill="#e77800" fill-rule="evenodd"/>
    <path id="Path_1932" data-name="Path 1932" d="M1935.51,2187.5h7.176c-1.068-2.121-2.146-4.4-3.236-6.826Z" transform="translate(-328.144 -464.151)" fill="#f7b200" fill-rule="evenodd"/>
    <path id="Path_1933" data-name="Path 1933" d="M1041.5,1193.035h52.685l-62.271-107.849A827.638,827.638,0,0,0,1041.5,1193.035Z" transform="translate(-69.579 -150.68)" fill="#ce0948" fill-rule="evenodd"/>
    <path id="Path_1934" data-name="Path 1934" d="M996.078,1572.621l40.43-70.023H983.05Q988.215,1536.683,996.078,1572.621Z" transform="translate(-55.596 -270.122)" fill="#e50c12" fill-rule="evenodd"/>
    <path id="Path_1935" data-name="Path 1935" d="M939.617,1217.7l-23.463,33.584-23.462,33.582,50.234,10.11,50.235,10.108-26.771-43.692Z" transform="translate(-29.742 -188.599)" fill="#c00072" fill-rule="evenodd"/>
    <path id="Path_1936" data-name="Path 1936" d="M818.669,1376.607l12.379,38.708,12.379,38.707,38.194-33.547,38.191-33.548-50.571-5.16Z" transform="translate(-8.56 -234.07)" fill="#ce0948" fill-rule="evenodd"/>
    <path id="Path_1937" data-name="Path 1937" d="M828.975,1010.191l-13.957,19.978-13.958,19.979,29.885,6.015,29.886,6.016L844.9,1036.186Z" transform="translate(-3.52 -129.22)" fill="#692e8c" fill-rule="evenodd"/>
    <path id="Path_1938" data-name="Path 1938" d="M849.748,1887.5,836.8,1925.4l-12.954,37.9,49.93-4.1,49.927-4.1-36.977-33.8Z" transform="translate(-10.04 -380.263)" fill="#f7b200" fill-rule="evenodd"/>
    <path id="Path_1939" data-name="Path 1939" d="M1006.1,1699.468q66.034,16.144,137.465,28.76L1046.2,1601.98Z" transform="translate(-62.194 -298.561)" fill="#e50c12" fill-rule="evenodd"/>
    <path id="Path_1940" data-name="Path 1940" d="M844.351,2077.85l-9.713,28.422-9.715,28.422,37.447-3.074,37.446-3.072L872.083,2103.2Z" transform="translate(-10.349 -434.73)" fill="#b9d32c" fill-rule="evenodd"/>
    <path id="Path_1941" data-name="Path 1941" d="M851.552,1668.855l-17.669,51.7-17.671,51.7,68.116-5.59,68.115-5.592L902,1714.967Z" transform="translate(-7.856 -317.697)" fill="#f7b200" fill-rule="evenodd"/>
    <path id="Path_1942" data-name="Path 1942" d="M1011.386,1408.3l26.627-46.115H1002.8Q1006.206,1384.629,1011.386,1408.3Z" transform="translate(-61.249 -229.942)" fill="#e50c12" fill-rule="evenodd"/>
    <path id="Path_1943" data-name="Path 1943" d="M947.631,887.458l8.417-60.073c-18.966,7.254-37.845,14.761-56.687,22.388Z" transform="translate(-31.649 -76.91)" fill="#393f96" fill-rule="evenodd"/>
    <path id="Path_1944" data-name="Path 1944" d="M1129.77,989.806l-23.344,33.411-23.344,33.411,49.981,10.059,49.979,10.059-26.638-43.47Z" transform="translate(-84.221 -123.387)" fill="#692e8c" fill-rule="evenodd"/>
    <path id="Path_1945" data-name="Path 1945" d="M1148.845,742.542h61.238l-30.333-52.534Q1164.021,716.1,1148.845,742.542Z" transform="translate(-103.039 -37.6)" fill="#356696" fill-rule="evenodd"/>
    <path id="Path_1946" data-name="Path 1946" d="M1051.742,789.694l32.206-51.4c-20.277-1.119-40.575-1.971-60.89-2.7Z" transform="translate(-67.046 -50.643)" fill="#356696" fill-rule="evenodd"/>
    <path id="Path_1947" data-name="Path 1947" d="M834.126,872.723l-17.289,24.743-17.286,24.745,37.013,7.448,37.014,7.45-19.725-32.2Z" transform="translate(-3.089 -89.883)" fill="#692e8c" fill-rule="evenodd"/>
    <path id="Path_1948" data-name="Path 1948" d="M807.266,720.575l4.553,35.708,4.555,35.708,38.664-23.075,38.667-23.076-43.22-12.634Z" transform="translate(-5.296 -46.346)" fill="#692e8c" fill-rule="evenodd"/>
    <path id="Path_1949" data-name="Path 1949" d="M942.6,2072.344l11.543,11.99,11.544,11.986,7.973-19.227,7.974-19.23-19.517,7.24Z" transform="translate(-44.022 -429.01)" fill="#b9d32c" fill-rule="evenodd"/>
    <path id="Path_1950" data-name="Path 1950" d="M1021.163,1939.8l-3.241,29.469-3.244,29.469,22.631-7.041,22.634-7.039-19.39-22.43Z" transform="translate(-64.647 -395.226)" fill="#b9d32c" fill-rule="evenodd"/>
    <path id="Path_1951" data-name="Path 1951" d="M1478.239,730.833l40.366-69.91c-22.5,2.425-47.683,5.771-75.009,9.9Z" transform="translate(-187.382 -29.277)" fill="#13b4b6" fill-rule="evenodd"/>
    <path id="Path_1952" data-name="Path 1952" d="M1496.341,617.779l41.036-12.492-36.509-34.128C1499.179,585.069,1497.674,600.723,1496.341,617.779Z" transform="translate(-202.475 -3.592)" fill="#13b4b6" fill-rule="evenodd"/>
    <path id="Path_1953" data-name="Path 1953" d="M1193.982,612.082l76.34,29.226c-3.79-27.1-7.939-54.163-12.254-81.211Z" transform="translate(-115.955 -0.425)" fill="#356696" fill-rule="evenodd"/>
    <path id="Path_1954" data-name="Path 1954" d="M810.257,595.3l40.832,41.974,40.83,41.973,2.975-58.48,2.978-58.482-43.808,16.508Z" transform="translate(-6.152 -1.05)" fill="#692e8c" fill-rule="evenodd"/>
    <path id="Path_1955" data-name="Path 1955" d="M1071.628,656.318l58.161-92.833c-36.621-2.021-73.278-3.561-109.962-4.875Z" transform="translate(-66.12 0)" fill="#356696" fill-rule="evenodd"/>
    <path id="Path_1956" data-name="Path 1956" d="M1310.444,726.892,1389,712.463c-16.259-15.4-34.928-32.217-55.566-50.152Z" transform="translate(-149.281 -29.674)" fill="#13b4b6" fill-rule="evenodd"/>
    <path id="Path_1957" data-name="Path 1957" d="M960.453,688.951l44.085-4.8q-12.813-18.214-26.026-36.163Z" transform="translate(-49.131 -25.575)" fill="#356696" fill-rule="evenodd"/>
  </g>
</svg>
