<svg xmlns="http://www.w3.org/2000/svg" width="1419.362" height="1605.583" viewBox="0 0 1419.362 1605.583">
  <g id="tDBg" transform="translate(-656.469 -2703.741)">
    <path id="Path_4869" data-name="Path 4869" d="M777.314,4247.848c-1.312,0-2.614.021-3.907.072l-.888,15.889,15.842,10.01,13.491-9.191-.127-13.953A104.823,104.823,0,0,0,777.314,4247.848Z" transform="translate(-11.828 -157.386)" fill="#eb8b00" fill-rule="evenodd"/>
    <path id="Path_4870" data-name="Path 4870" d="M696.37,4274.988q-4.122,3.5-8.073,7.457c-21.093,21.078-31.828,46.563-31.828,76.791,0,28.791,9.729,53.246,28.854,73.721l60.048-33.5,31.163-124.465-28.557-15.674Z" transform="translate(0 -158.555)" fill="#b9d32c" fill-rule="evenodd"/>
    <path id="Path_4871" data-name="Path 4871" d="M1329.532,3806.994l40.957,101.932,39.129,36.773q6.29-10.638,13.4-22.139c21.925-24.234,50.9-62.969,86.239-116.566l-54.7-23.514Z" transform="translate(-68.603 -110.053)" fill="#e24f0e" fill-rule="evenodd"/>
    <path id="Path_4872" data-name="Path 4872" d="M1129.762,3805.551c-2.471,21.266.141,40.627,7.384,58.08,8.757,21.094,26.66,31.828,52.925,31.828,51.953,0,72.314-9.2,72.29-9l45.82-20.666.9-60.242L1195.812,3769.3Z" transform="translate(-48.149 -108.608)" fill="#e24f0e" fill-rule="evenodd"/>
    <path id="Path_4873" data-name="Path 4873" d="M1534.712,3532.471l-70.331,39.186,13.521,132.3,72.249,16.268c21.611-55.3,32.242-97.736,32.242-127.453q0-10.559-.971-21.117Z" transform="translate(-82.348 -84.47)" fill="#e50c12" fill-rule="evenodd"/>
    <path id="Path_4874" data-name="Path 4874" d="M1194.683,3568.766l27.243,128.385,93.861,81.367,105.614-65.7,15.49-144.057-121.1-64.656Z" transform="translate(-54.858 -81.579)" fill="#e50c12" fill-rule="evenodd"/>
    <path id="Path_4875" data-name="Path 4875" d="M1329.531,3339.893l39.976,131.322,81.13,78.416,85.034-73.518,34.93-136.221-126.821-23.516Z" transform="translate(-68.602 -62.443)" fill="#c00072" fill-rule="evenodd"/>
    <path id="Path_4876" data-name="Path 4876" d="M1216.173,3338.111l-21.49,209.742,93.862-73.52,48-153.289-84.048-22.121Z" transform="translate(-54.858 -60.665)" fill="#c00072" fill-rule="evenodd"/>
    <path id="Path_4877" data-name="Path 4877" d="M669.989,3480.537c-9.153,10.746-13.521,23.871-13.521,39.8,0,12.41,2.76,21.25,8.278,26.408l44.906-46.328,13.068-54.082-2.591,2.377C707.791,3453.877,691.083,3464.623,669.989,3480.537Z" transform="translate(0 -75.691)" fill="#c00072" fill-rule="evenodd"/>
    <path id="Path_4878" data-name="Path 4878" d="M825.946,3338,803.8,3360.711l-8.4,36.3,35.331,10.342a702.551,702.551,0,0,1,97.348-64.105q3.973-2.32,8.515-5.244l-23.825-40.164Z" transform="translate(-14.161 -60.552)" fill="#c00072" fill-rule="evenodd"/>
    <path id="Path_4879" data-name="Path 4879" d="M1464.381,3105l38.011,129.361,82.264,78.971c4.312-19.719,8.863-43.146,13.653-70.141l7.963-98.279a97.392,97.392,0,0,1,21.16-39.912l-35.1-35.268Z" transform="translate(-82.348 -37.305)" fill="#692e8c" fill-rule="evenodd"/>
    <path id="Path_4880" data-name="Path 4880" d="M1194.683,3105.891l41.941,133.277,79.163,76.473,97.775-80.387,48.8-145.041-146.575-11.752Z" transform="translate(-54.858 -38.193)" fill="#692e8c" fill-rule="evenodd"/>
    <path id="Path_4881" data-name="Path 4881" d="M1051.074,3109q-37.667,45.393-70.024,69.352-4.128,3.375-8.877,7.572l-20.118,71.053,67.667,11.3q11.3-9.27,23.8-19.887c30.591-25.715,57.494-45.725,80.466-59.779l50.195-40.074L1169.953,3109Z" transform="translate(-30.128 -41.306)" fill="#692e8c" fill-rule="evenodd"/>
    <path id="Path_4882" data-name="Path 4882" d="M2190.729,2861.276l-52.131,12.736.4,37.275,28.941,13.557c39.312-9.287,58.956-25.148,58.956-47.889q0-1.409-.089-2.943Z" transform="translate(-151.068 -16.058)" fill="#356696" fill-rule="evenodd"/>
    <path id="Path_4883" data-name="Path 4883" d="M2126.992,2866.105l10.424,5.756,16.645-13.717,1.646-17.971q-10.27,8.517-25.391,19.387Z" transform="translate(-149.885 -13.907)" fill="#13b4b6" fill-rule="evenodd"/>
    <path id="Path_4884" data-name="Path 4884" d="M2085.061,2874.957c-20.338,9.051-48.964,13.676-86.073,13.676-67.251,1.6-103.456,2.789-108.632,2.789q-4.018,1.8-8.533,3.617l11.722,76.949,46.182,23.344q29.152-9.079,64.824-24.322,38.919-16.79,68-26.984l34.609-34.535,5.271-34.533-8.851-4.41Z" transform="translate(-124.897 -17.002)" fill="#356696" fill-rule="evenodd"/>
    <path id="Path_4885" data-name="Path 4885" d="M1758.109,2927.21c-15.914,1.588-37.007,1.588-63.661,0-29.851-3.592-50.136-5.574-60.887-5.574q-2.889,0-6.811.084l10.354,77.723,62.855,49.074a324.506,324.506,0,0,1,39.842-15.475q9.062-2.8,18.481-5.291l73.4-43.982-4.969-74.547Q1798.21,2918.14,1758.109,2927.21Z" transform="translate(-98.898 -20.944)" fill="#356696" fill-rule="evenodd"/>
    <path id="Path_4886" data-name="Path 4886" d="M1259.1,2748.389l13.161,57.457,50.1,52.107,70.345-80.393,11.6-61.547C1363.239,2688.42,1287.648,2710.887,1259.1,2748.389Z" transform="translate(-61.424 0)" fill="#13b4b6" fill-rule="evenodd"/>
    <path id="Path_4887" data-name="Path 4887" d="M1240.963,2872.125q6.54,30.835,8.6,37.557l-15.917,13.129c-34.279,16.676-65.924,40.551-94.936,71.988l50.268,87.063,86.516-73.029,34.589-136.707-51.572-29.4Z" transform="translate(-49.153 -14.165)" fill="#356696" fill-rule="evenodd"/>
    <path id="Path_4888" data-name="Path 4888" d="M1441.307,2873.734l-59.984-15.186-51.792,15.186,38.017,131.322,83.089,78.418L1520,3016.809l25.961-98.436-104.649.885Z" transform="translate(-68.602 -15.779)" fill="#356696" fill-rule="evenodd"/>
    <path id="Path_4889" data-name="Path 4889" d="M1682.876,3611.365q-51.1,12.261-92.859,27.666l15.224,43.359,34.054,32.947,118.618,5.031,21.013-11.992c-13.76-13.281-23.666-25.037-29.991-34.826C1735.4,3652.592,1711.12,3604.631,1682.876,3611.365Z" transform="translate(-95.153 -92.446)" fill="#e50c12" fill-rule="evenodd"/>
    <path id="Path_4890" data-name="Path 4890" d="M1531.7,3789.811l101.648-71.258-49.277-76.3Z" transform="translate(-89.209 -95.66)" fill="#e23a11" fill-rule="evenodd"/>
    <path id="Path_4891" data-name="Path 4891" d="M1793.095,3727.482q-4.515-4.1-8.578-8.018l-18.684.928-120.95,6.023c54.109,14.906,69.98,28.125,117.5,63.523C1878.789,3873.205,1853.528,3782.332,1793.095,3727.482Z" transform="translate(-100.746 -103.528)" fill="#e23a11" fill-rule="evenodd"/>
    <path id="Path_4892" data-name="Path 4892" d="M2156.889,2838.413,2138.6,2870.1h88.211C2223.907,2822.089,2192.134,2809.19,2156.889,2838.413Z" transform="translate(-151.068 -12.145)" fill="#2f9687" fill-rule="evenodd"/>
    <path id="Path_4893" data-name="Path 4893" d="M2094.193,2944.525c24-8.455,42.9-13.613,56.55-15.594q6.647-1.222,12.673-2.643l-29.344-50.832Z" transform="translate(-146.542 -17.501)" fill="#393f96" fill-rule="evenodd"/>
    <path id="Path_4894" data-name="Path 4894" d="M2121.523,2866.658a83.8,83.8,0,0,1-13.395,7.4h27.363l-7.1-12.3Z" transform="translate(-147.964 -16.106)" fill="#2f9687" fill-rule="evenodd"/>
    <path id="Path_4895" data-name="Path 4895" d="M1841.644,2908.062l-68.431,118.527a551.624,551.624,0,0,1,92.942-15.789c17.62-.887,38.411-5.18,62.5-12.687l-57.9-100.293Q1858.143,2902.894,1841.644,2908.062Z" transform="translate(-113.825 -19.78)" fill="#393f96" fill-rule="evenodd"/>
    <path id="Path_4896" data-name="Path 4896" d="M1583.643,3346.1l-58.717,101.693-60.545,104.871h117.041a205.492,205.492,0,0,0-6.981-37.377q-13.137-60.879,0-132.5Q1578.844,3367.617,1583.643,3346.1Z" transform="translate(-82.348 -65.472)" fill="#ce0948" fill-rule="evenodd"/>
    <path id="Path_4897" data-name="Path 4897" d="M1559.7,2924.954l-95.32,165.1h163.051q19.853-23.042,55.979-40.123L1610.2,2923.14C1599.321,2923.366,1582.45,2924.044,1559.7,2924.954Z" transform="translate(-82.348 -22.362)" fill="#393f96" fill-rule="evenodd"/>
    <path id="Path_4898" data-name="Path 4898" d="M1450.636,3109l-60.556,104.871-60.55,104.881H1570.6l.313-1.42-59.732-103.461Z" transform="translate(-68.602 -41.308)" fill="#962488" fill-rule="evenodd"/>
    <path id="Path_4899" data-name="Path 4899" d="M1315.787,3342.561l-60.549,104.869L1194.683,3552.3h242.208l-60.557-104.873Z" transform="translate(-54.858 -65.113)" fill="#ce0948" fill-rule="evenodd"/>
    <path id="Path_4900" data-name="Path 4900" d="M1411.481,2717.408l-21.4,37.059-60.55,104.883h111.777v-86.99C1437.662,2746.621,1427.656,2728.287,1411.481,2717.408Z" transform="translate(-68.603 -1.392)" fill="#2f9687" fill-rule="evenodd"/>
    <path id="Path_4901" data-name="Path 4901" d="M1194.683,3085.2h242.208l-121.1-209.74Z" transform="translate(-54.858 -17.501)" fill="#393f96" fill-rule="evenodd"/>
    <path id="Path_4902" data-name="Path 4902" d="M1189.466,3109l-45.963,79.615a248.807,248.807,0,0,1,29.756-15.838l18.306-7.949v5.57c14.318,84.762,21.488,130.916,21.488,137.68q0,.794-2.1,10.672h99.614l-60.55-104.879Z" transform="translate(-49.641 -41.306)" fill="#962488" fill-rule="evenodd"/>
    <path id="Path_4903" data-name="Path 4903" d="M1116.768,3528.48h46.484l-34.894-60.447Q1122.692,3496.729,1116.768,3528.48Z" transform="translate(-46.916 -77.902)" fill="#ce0948" fill-rule="evenodd"/>
    <path id="Path_4904" data-name="Path 4904" d="M1257.284,2753.453c-10.593,13.908-15.963,30.279-15.963,48.846,0,12.34,2.785,29.439,7.961,50.533l2.141,10.189h69.118l-60.549-104.883Z" transform="translate(-59.611 -5.065)" fill="#2f9687" fill-rule="evenodd"/>
    <path id="Path_4905" data-name="Path 4905" d="M1066.336,3019.129q-23,32.458-44.176,57.975h118.877l-50.266-87.064Q1078.229,3003.633,1066.336,3019.129Z" transform="translate(-37.274 -29.181)" fill="#393f96" fill-rule="evenodd"/>
    <path id="Path_4906" data-name="Path 4906" d="M959.673,3194.658c-19.27,17.051-46.2,44.426-81.054,82.357l-49.205,50.467H940.061c16.661-10.705,39.134-27.486,67.16-50.471L975.8,3222.6Z" transform="translate(-17.628 -50.037)" fill="#962488" fill-rule="evenodd"/>
    <path id="Path_4907" data-name="Path 4907" d="M768.814,3390.176c-8.424,11.859-23.476,28.15-45.154,48.156l-6.742,11.674-51.232,88.74q5.775,5.411,15.59,5.426c10.746,0,21.487-7.176,31.829-21.094q42.105-59.282,104.4-108.592l-26.927-46.639Z" transform="translate(-0.94 -67.689)" fill="#ce0948" fill-rule="evenodd"/>
    <path id="Path_4908" data-name="Path 4908" d="M1207.105,4062.527l20.006,95.35,50.8,27.3,81.881-141.971H1221.583Q1214.742,4052.112,1207.105,4062.527Z" transform="translate(-56.124 -136.525)" fill="#eb8b00" fill-rule="evenodd"/>
    <path id="Path_4909" data-name="Path 4909" d="M1106.247,4276.766q-7.255,10.679-16.6,23.377c-2.928,2.922-5.958,5.893-9.068,8.877l41.931,72.621.787,1.357c40.833-25.029,67.485-55.6,80.559-90.818a161.889,161.889,0,0,1,8.045-15.414H1106.247Z" transform="translate(-43.228 -160.332)" fill="#b9d32c" fill-rule="evenodd"/>
    <path id="Path_4910" data-name="Path 4910" d="M1450.636,3576.105l-60.555,104.871-60.55,104.879h179.725l3.679-5.594q13.351-29.687,23.472-55.584l-25.225-43.7Z" transform="translate(-68.603 -88.917)" fill="#e23a11" fill-rule="evenodd"/>
    <path id="Path_4911" data-name="Path 4911" d="M1317.053,3809.664l-46.715,80.908-63.232,148.156,152.691-19.322q12.028-28.342,37.342-71.035l-19.536-33.834Z" transform="translate(-56.124 -112.723)" fill="#e77800" fill-rule="evenodd"/>
    <path id="Path_4912" data-name="Path 4912" d="M1197.122,4064.723l-72.729,166.049c-3.825,6.98-8.928,15.111-15.231,24.381h105.652l53.121-67.779-21.413-37.1Z" transform="translate(-46.141 -138.719)" fill="#f7b200" fill-rule="evenodd"/>
    <path id="Path_4913" data-name="Path 4913" d="M1075.289,4312.68c-7.878,7.555-16.314,15.246-25.161,22.957-14.314,15.914-21.487,29.041-21.487,39.787,0,10.348,6.366,20.291,18.7,29.051q18.5,10.734,58.5-10.75,6.277-3.454,12.162-7.066l-.786-1.361Z" transform="translate(-37.934 -163.994)" fill="#d4de37" fill-rule="evenodd"/>
    <path id="Path_4914" data-name="Path 4914" d="M878.849,4298.016h-57.8L881.6,4402.887l21.156,36.635a103.038,103.038,0,0,0,16.681-57.258c0-30.227-11.533-55.711-32.625-76.785Q882.933,4301.523,878.849,4298.016Z" transform="translate(-16.776 -162.499)" fill="#b9d32c" fill-rule="evenodd"/>
    <path id="Path_4915" data-name="Path 4915" d="M1188.077,3576.105l-56,196.2q-1.441,6.9-2.211,13.547h179.317l-60.55-104.879Z" transform="translate(-48.252 -88.917)" fill="#e23a11" fill-rule="evenodd"/>
    <path id="Path_4916" data-name="Path 4916" d="M1061.46,3667.232l79.494-103.4h-54.881Q1074.208,3611.64,1061.46,3667.232Z" transform="translate(-41.279 -87.667)" fill="#e50c12" fill-rule="evenodd"/>
    <path id="Path_4917" data-name="Path 4917" d="M790.16,4274.141h57.8A105.374,105.374,0,0,0,803.522,4251Z" transform="translate(-13.626 -157.708)" fill="#f7b200" fill-rule="evenodd"/>
    <path id="Path_4918" data-name="Path 4918" d="M779.8,4276.76l-60.549,104.881-30.658,53.1c.966,1.043,1.958,2.066,2.975,3.084,21.49,21.49,46.955,31.832,77.189,31.832,29.849,0,55.712-10.342,76.805-31.832a120.5,120.5,0,0,0,15.942-19.547l-21.154-36.635Z" transform="translate(-3.274 -160.33)" fill="#d4de37" fill-rule="evenodd"/>
    <path id="Path_4919" data-name="Path 4919" d="M700.9,4273.822h80.163l-14.956-25.9C741.229,4248.781,719.647,4257.875,700.9,4273.822Z" transform="translate(-4.529 -157.395)" fill="#f7b200" fill-rule="evenodd"/>
    <path id="Path_4920" data-name="Path 4920" d="M795.625,3555.207l40.3,40.3,40.3,40.3,26.056-66.357,26.055-66.352-66.354,26.055Z" transform="translate(-14.183 -81.476)" fill="#e50c12" fill-rule="evenodd"/>
    <path id="Path_4921" data-name="Path 4921" d="M830.946,3272.867l21.619-37.459H781.559C797.055,3251.756,813.706,3264.941,830.946,3272.867Z" transform="translate(-12.75 -54.19)" fill="#c00072" fill-rule="evenodd"/>
    <path id="Path_4922" data-name="Path 4922" d="M756.87,3321.018a76.159,76.159,0,0,0,31.872,7.445,90.273,90.273,0,0,0,11.051-.7l-23.417-40.543Z" transform="translate(-10.233 -59.473)" fill="#ce0948" fill-rule="evenodd"/>
    <path id="Path_4923" data-name="Path 4923" d="M924.92,3021.831h86.58l-42.884-74.271Q946.378,2984.447,924.92,3021.831Z" transform="translate(-27.362 -24.85)" fill="#393f96" fill-rule="evenodd"/>
    <path id="Path_4924" data-name="Path 4924" d="M1076.921,3306.389a132.2,132.2,0,0,0-6.52,41.367q0,34.644,9.711,75.955h64.55l-41.7-72.211Z" transform="translate(-42.19 -61.425)" fill="#ce0948" fill-rule="evenodd"/>
    <path id="Path_4925" data-name="Path 4925" d="M1171.426,2829.985l24.4-42.25c-13.6,1.461-28.819,3.484-45.335,5.98Z" transform="translate(-50.353 -8.561)" fill="#13b4b6" fill-rule="evenodd"/>
    <path id="Path_4926" data-name="Path 4926" d="M917.334,3927.621l.519-.9,60.554-104.869H884.664Q896.27,3871.4,917.334,3927.621Z" transform="translate(-23.259 -113.964)" fill="#e24f0e" fill-rule="evenodd"/>
    <path id="Path_4927" data-name="Path 4927" d="M978.785,3920.482h95.785l-38.506-66.691Z" transform="translate(-32.853 -117.219)" fill="#e77800" fill-rule="evenodd"/>
    <path id="Path_4928" data-name="Path 4928" d="M1137.786,3339.3h53.691l-63.458-109.9A844.109,844.109,0,0,0,1137.786,3339.3Z" transform="translate(-48.064 -53.578)" fill="#c00072" fill-rule="evenodd"/>
    <path id="Path_4929" data-name="Path 4929" d="M1010.189,3574.227l50.865-88.092H993.8Q1000.3,3529.017,1010.189,3574.227Z" transform="translate(-34.382 -79.747)" fill="#e50c12" fill-rule="evenodd"/>
    <path id="Path_4930" data-name="Path 4930" d="M809.217,3680.811,779.7,3723.059l-29.519,42.25,63.2,12.721,63.2,12.721L842.9,3735.779Z" transform="translate(-9.552 -99.588)" fill="#c00072" fill-rule="evenodd"/>
    <path id="Path_4931" data-name="Path 4931" d="M810.164,3442.123l10.678,33.4,10.68,33.391,32.948-28.941,32.947-28.941-43.626-4.451Z" transform="translate(-15.665 -75.259)" fill="#ce0948" fill-rule="evenodd"/>
    <path id="Path_4932" data-name="Path 4932" d="M902.655,3033.166,885.1,3058.3l-17.561,25.135,37.6,7.564,37.6,7.568-20.038-32.7Z" transform="translate(-21.513 -33.577)" fill="#692e8c" fill-rule="evenodd"/>
    <path id="Path_4933" data-name="Path 4933" d="M1047.266,3953.557l-16.3,47.68-16.3,47.682,62.816-5.162,62.814-5.152-46.519-42.521Z" transform="translate(-36.511 -127.389)" fill="#f7b200" fill-rule="evenodd"/>
    <path id="Path_4934" data-name="Path 4934" d="M929.425,3749.563q83.079,20.317,172.94,36.184l-122.5-158.828Z" transform="translate(-27.821 -94.096)" fill="#e50c12" fill-rule="evenodd"/>
    <path id="Path_4935" data-name="Path 4935" d="M933.375,4056.09l-12.222,35.758-12.221,35.76,47.109-3.867,47.11-3.869-34.889-31.887Z" transform="translate(-25.732 -137.838)" fill="#b9d32c" fill-rule="evenodd"/>
    <path id="Path_4936" data-name="Path 4936" d="M969.8,4187.66l11.021,48.545,11.025,48.547,50.151-36.906,50.151-36.916-61.172-11.637Z" transform="translate(-31.936 -151.251)" fill="#f7b200" fill-rule="evenodd"/>
    <path id="Path_4937" data-name="Path 4937" d="M943.829,3439.885l33.5-58.018H933.035Q937.313,3410.106,943.829,3439.885Z" transform="translate(-28.189 -69.12)" fill="#e50c12" fill-rule="evenodd"/>
    <path id="Path_4938" data-name="Path 4938" d="M898.447,2970.354l10.588-75.576q-35.793,13.693-71.316,28.166Z" transform="translate(-18.474 -19.472)" fill="#393f96" fill-rule="evenodd"/>
    <path id="Path_4939" data-name="Path 4939" d="M825.341,3078.8l-29.367,42.033-29.367,42.033,62.876,12.654,62.879,12.654-33.512-54.687Z" transform="translate(-11.226 -38.23)" fill="#692e8c" fill-rule="evenodd"/>
    <path id="Path_4940" data-name="Path 4940" d="M1015.211,2829.5h77.044l-38.162-66.09Q1034.3,2796.228,1015.211,2829.5Z" transform="translate(-36.565 -6.081)" fill="#356696" fill-rule="evenodd"/>
    <path id="Path_4941" data-name="Path 4941" d="M949.868,2843.564l28.311-45.187c-17.824-.982-35.667-1.732-53.523-2.373Z" transform="translate(-27.336 -9.403)" fill="#356696" fill-rule="evenodd"/>
    <path id="Path_4942" data-name="Path 4942" d="M795.2,2951.865l-21.75,31.127L751.7,3014.123l46.566,9.371,46.565,9.371-24.815-40.5Z" transform="translate(-9.706 -25.29)" fill="#692e8c" fill-rule="evenodd"/>
    <path id="Path_4943" data-name="Path 4943" d="M786.37,2775.577,792.1,2820.5l5.729,44.924,48.646-29.031,48.642-29.029-54.372-15.895Z" transform="translate(-13.24 -7.321)" fill="#692e8c" fill-rule="evenodd"/>
    <path id="Path_4944" data-name="Path 4944" d="M1046.717,2965.391l13.847-98.828c-31.205,11.936-62.261,24.287-93.258,36.832Z" transform="translate(-31.682 -16.596)" fill="#393f96" fill-rule="evenodd"/>
    <path id="Path_4945" data-name="Path 4945" d="M938.669,4390.105l31.944,20.18,31.946,20.191,7.173-46.721,7.174-46.721-39.119,26.533Z" transform="translate(-28.764 -166.476)" fill="#b9d32c" fill-rule="evenodd"/>
    <path id="Path_4946" data-name="Path 4946" d="M852.373,4229.066l31.945,20.188,31.945,20.193,7.174-46.717L930.611,4176l-39.119,26.533Z" transform="translate(-19.968 -150.063)" fill="#b9d32c" fill-rule="evenodd"/>
    <path id="Path_4947" data-name="Path 4947" d="M1031.848,4132.934l18.9,11.949,18.9,11.939,4.243-27.641,4.246-27.643-23.144,15.7Z" transform="translate(-38.261 -142.472)" fill="#b9d32c" fill-rule="evenodd"/>
    <path id="Path_4948" data-name="Path 4948" d="M908.729,3993.127l18.9,11.945,18.9,11.943,4.245-27.639,4.243-27.645-23.145,15.7Z" transform="translate(-25.712 -128.224)" fill="#b9d32c" fill-rule="evenodd"/>
    <path id="Path_4949" data-name="Path 4949" d="M817.333,3954.527,802.9,3996.76l-14.431,42.23,55.638-4.566,55.639-4.568-41.2-37.664Z" transform="translate(-13.455 -127.487)" fill="#f7b200" fill-rule="evenodd"/>
    <path id="Path_4950" data-name="Path 4950" d="M817.418,4117.611l-10.826,31.672-10.823,31.67,41.727-3.426,41.727-3.424-30.9-28.244Z" transform="translate(-14.199 -144.111)" fill="#f7b200" fill-rule="evenodd"/>
    <path id="Path_4951" data-name="Path 4951" d="M768.448,3863.406l62.224,41.4-9.951-80.826Z" transform="translate(-11.413 -114.182)" fill="#e77800" fill-rule="evenodd"/>
    <path id="Path_4952" data-name="Path 4952" d="M1151.261,2933.143c16.921-20.213,32.134-39.066,45.269-56.193l-76.968-1.791Z" transform="translate(-47.201 -17.472)" fill="#13b4b6" fill-rule="evenodd"/>
  </g>
</svg>
