<svg xmlns="http://www.w3.org/2000/svg" width="400.561" height="388.721" viewBox="0 0 400.561 388.721">
  <g id="tJersey" transform="translate(-16.522)">
    <path id="Path_46" data-name="Path 46" d="M162.234,0,155.44,2.912,84.1,31.544l-2.426.971-1.941,1.941L26.713,117.987l-10.191,9.706,11.162,8.735,57.874,45.557,8.25,6.794,7.765-7.279,1.456-1.456V388.722h231V181.015l.485.485,7.765,7.765,8.735-6.794,54.907-46.043,11.162-8.735-10.191-9.706-51.51-82.075-1.941-1.456-2.426-.971L279.191,3.4,272.4.485l-5.824,4.853a77.647,77.647,0,0,1-49.015,17.471,77.647,77.647,0,0,1-49.5-17.956Z"/>
  </g>
</svg>
