<svg xmlns="http://www.w3.org/2000/svg" width="416" height="416" viewBox="0 0 416 416">
  <g id="tLogo" transform="translate(777 -1461)">
    <g id="Group_127" data-name="Group 127" transform="translate(-777 1461)">
      <g id="Group_64" data-name="Group 64" transform="translate(0 0)">
        <path id="Path_42" data-name="Path 42" d="M299.071,64A209.5,209.5,0,0,1,418.717,253.593c0,114.124-93.876,208-208,208A204.762,204.762,0,0,1,115,437.664c11.044,1.841,23.929,3.681,34.973,3.681h0c60.743,0,114.124-23.929,154.62-64.425,38.655-38.655,62.584-93.876,62.584-152.779h0c0-60.743-23.929-114.124-62.584-154.619Z" transform="translate(-2.717 -45.593)" fill-rule="evenodd"/>
        <path id="Path_43" data-name="Path 43" d="M389.009,197.77c-11.044,29.451-25.77,55.221-47.858,75.469C306.177,308.212,256.478,330.3,201.257,330.3h0c-29.451,0-58.9-5.522-84.673-18.407A202.246,202.246,0,0,1,54,172a185.875,185.875,0,0,0,23.929,29.451c38.655,40.5,93.876,64.425,154.62,64.425h0c58.9,0,114.124-23.929,152.779-64.425C387.168,201.451,387.168,199.611,389.009,197.77Z" transform="translate(-54 45.204)" fill-rule="evenodd"/>
        <path id="Path_44" data-name="Path 44" d="M262,54h22.089c-44.177,9.2-82.832,29.451-114.124,60.743C131.31,153.4,107.381,208.62,107.381,267.522h0c0,12.885,0,23.929,3.681,36.814-7.363-5.522-12.885-11.044-20.248-16.566C76.089,273.044,65.044,254.637,54,236.23,66.885,133.15,155.239,54,262,54Z" transform="translate(-54 -54)" fill-rule="evenodd"/>
      </g>
    </g>
    <path id="_ionicons_svg_ios-add" d="M257.578,188.221H205.493V136.136a8.636,8.636,0,1,0-17.272,0v52.085H136.136a8.636,8.636,0,0,0,0,17.272h52.085v52.085a8.636,8.636,0,1,0,17.272,0V205.493h52.085a8.636,8.636,0,1,0,0-17.272Z" transform="translate(-766.357 1432.643)"/>
  </g>
</svg>
