<svg xmlns="http://www.w3.org/2000/svg" viewBox="0 0 1126.56 2436"><defs><style>.cls-1{fill:#0bbb72;}.cls-2{fill:#00e1fd;opacity:0.79;}.cls-3{fill:#1e1f28;}.cls-4{opacity:0.81;}</style></defs><title>Register</title><g id="Layer_2" data-name="Layer 2"><g id="Layer_1-2" data-name="Layer 1"><path class="cls-1" d="M1125.23,0V1426.18a61,61,0,0,1-61,61H904.79a60.67,60.67,0,0,1-39.47-14.5V1472a61,61,0,0,1-18.89-30.78v-159.7a59.72,59.72,0,0,0-.34-6.44V1196a61.59,61.59,0,0,0-1.53-13.67c-.23-1-.49-2-.77-3a61,61,0,0,0-58.7-44.34h-161a61,61,0,0,1-59.9-49.4v-25.52a61.28,61.28,0,0,0-.34-6.39V974.54a60.76,60.76,0,0,0-.77-9.7c-.21-1.34-.46-2.67-.76-4a61,61,0,0,0-59.47-47.33H342.67A61,61,0,0,1,282,858.86v-6.4a61.29,61.29,0,0,0-.33-6.39V766.91a61,61,0,0,0-55.92-60.79h0l-.41,0c-1.53-.12-3.08-.18-4.64-.18H60.46c-1.42,0-2.83.06-4.23.15l-.43,0h0A61,61,0,0,1,.56,654.64c-.13-.82-.24-1.64-.33-2.47V.77h282V0Z"/><path class="cls-2" d="M1126.23,2299.16v67.34H1125v-20.84c-.09-.83-.2-1.65-.33-2.47a61,61,0,0,0-55.21-51.45h0l-.43,0c-1.4.09-2.81.15-4.23.15H904.56c-1.56,0-3.11-.06-4.64-.18l-.41,0h0a61,61,0,0,1-55.92-60.79v-79.16a61.29,61.29,0,0,1-.33-6.39V2139a61,61,0,0,0-60.67-54.67H622.35A61,61,0,0,1,562.88,2037c-.3-1.31-.55-2.64-.76-4a60.76,60.76,0,0,1-.77-9.7v-79.15a61.28,61.28,0,0,1-.34-6.39v-25.52a61,61,0,0,0-59.9-49.4h-161a61,61,0,0,1-58.7-44.34c-.28-1-.54-2-.77-3a61.59,61.59,0,0,1-1.53-13.67v-79.1a59.72,59.72,0,0,1-.34-6.44v-159.7a61,61,0,0,0-18.89-30.78v-.66a60.67,60.67,0,0,0-39.47-14.5H61A61,61,0,0,0,1.23,1559.4v-34.25a61,61,0,0,1,61-61H221.67a60.67,60.67,0,0,1,39.47,14.5v.66A61,61,0,0,1,280,1510.09v159.7a59.72,59.72,0,0,0,.34,6.44v79.1A61.59,61.59,0,0,0,281.9,1769c.23,1,.49,2,.77,3a61,61,0,0,0,58.7,44.34h161a61,61,0,0,1,59.9,49.4v25.52a61.28,61.28,0,0,0,.34,6.39v79.15a60.76,60.76,0,0,0,.77,9.7c.21,1.34.46,2.67.76,4a61,61,0,0,0,59.47,47.33H783.79a61,61,0,0,1,60.67,54.67v6.4a61.29,61.29,0,0,0,.33,6.39v79.16a61,61,0,0,0,55.92,60.79h0l.41,0c1.53.12,3.08.18,4.64.18H1066c1.42,0,2.83-.06,4.23-.15l.43,0h0a61,61,0,0,1,55.21,51.45C1126,2297.51,1126.14,2298.33,1126.23,2299.16Z"/><path class="cls-3" d="M1125,2368.66V2436H0V1594.65a60.93,60.93,0,0,1,61-61H220.44a60.67,60.67,0,0,1,39.47,14.5v.66a61,61,0,0,1,18.89,30.78v159.7a59.72,59.72,0,0,0,.34,6.44v79.1a61.59,61.59,0,0,0,1.53,13.67c.23,1,.49,2,.77,3a61,61,0,0,0,58.7,44.34h161a61,61,0,0,1,59.9,49.4v25.52a61.28,61.28,0,0,0,.34,6.39v79.15a60.76,60.76,0,0,0,.77,9.7c.21,1.34.46,2.67.76,4a61,61,0,0,0,59.47,47.33H782.56A61,61,0,0,1,843.23,2162v6.4a61.29,61.29,0,0,0,.33,6.39v79.16a61,61,0,0,0,55.92,60.79h0l.41,0c1.53.12,3.08.18,4.64.18h160.21c1.42,0,2.83-.06,4.23-.15l.43,0h0a61,61,0,0,1,55.21,51.45C1124.8,2367,1124.91,2367.83,1125,2368.66Z"/><g class="cls-4"><path class="cls-1" d="M282.67,804.91v79.16c-.12-1.11-.26-2.21-.44-3.3a61,61,0,0,0-55.15-51.1h0l-.4,0c-1.54-.11-3.09-.17-4.65-.17H61.79c-1.42,0-2.83,0-4.22.14l-.44,0h0A61,61,0,0,1,1.56,775.71V692.64a61,61,0,0,0,55.21,51.45h0l.43,0c1.4-.09,2.81-.15,4.23-.15H221.67c1.56,0,3.11.06,4.64.18l.41,0h0a61,61,0,0,1,55.92,60.79Z"/><path class="cls-1" d="M564.88,1012.54v79.15c-.11-1.11-.26-2.22-.43-3.31-.22-1.33-.47-2.66-.77-4a61,61,0,0,0-59.47-47.33H344a61,61,0,0,1-61-61V896.86a61,61,0,0,0,60.67,54.67H503.88a61,61,0,0,1,59.47,47.33c.3,1.31.55,2.64.76,4A60.76,60.76,0,0,1,564.88,1012.54Z"/><path class="cls-1" d="M847.09,1234v79.1a59.25,59.25,0,0,0-1.2-7.23c-.23-1-.49-2-.77-3a61,61,0,0,0-58.7-44.35h-161a61,61,0,0,1-60.23-51.3V1123.6a61,61,0,0,0,59.9,49.4h161a61,61,0,0,1,58.7,44.34c.28,1,.54,2,.77,3A61.59,61.59,0,0,1,847.09,1234Z"/><path class="cls-1" d="M1126.56,184.55V1549.73a61,61,0,0,1-61,61H906.12a60.69,60.69,0,0,1-39.47-14.5v-.67a60.79,60.79,0,0,1-19.22-32.16v-84.16A61,61,0,0,0,866.32,1510v.66a60.67,60.67,0,0,0,39.47,14.5h159.44a61,61,0,0,0,61-61v-1286A60.14,60.14,0,0,1,1126.56,184.55Z"/></g></g></g></svg>